%TF.GenerationSoftware,KiCad,Pcbnew,9.0.6*%
%TF.CreationDate,2025-11-13T19:17:57+01:00*%
%TF.ProjectId,hex-dna,6865782d-646e-4612-9e6b-696361645f70,rev?*%
%TF.SameCoordinates,Original*%
%TF.FileFunction,Drillmap*%
%TF.FilePolarity,Positive*%
%FSLAX45Y45*%
G04 Gerber Fmt 4.5, Leading zero omitted, Abs format (unit mm)*
G04 Created by KiCad (PCBNEW 9.0.6) date 2025-11-13 19:17:57*
%MOMM*%
%LPD*%
G01*
G04 APERTURE LIST*
%ADD10C,0.050000*%
%ADD11C,0.200000*%
%ADD12C,0.320000*%
G04 APERTURE END LIST*
D10*
X10025000Y-5300000D02*
X8025000Y-8750000D01*
X4550000Y-5750000D02*
X4550000Y-8750000D01*
X4550000Y-8750000D02*
X4025000Y-8750000D01*
X7500000Y-8750000D02*
X7500000Y-5750000D01*
X2075000Y-5350000D02*
X4025000Y-1850000D01*
X7500000Y-5750000D02*
X4550000Y-5750000D01*
X4025000Y-1850000D02*
X8025000Y-1850000D01*
X4025000Y-8750000D02*
X2075000Y-5350000D01*
X4200000Y-5300000D02*
G75*
G02*
X2900000Y-5300000I-650000J0D01*
G01*
X2900000Y-5300000D02*
G75*
G02*
X4200000Y-5300000I650000J0D01*
G01*
X8025000Y-1850000D02*
X10025000Y-5300000D01*
X9200000Y-5300000D02*
G75*
G02*
X7900000Y-5300000I-650000J0D01*
G01*
X7900000Y-5300000D02*
G75*
G02*
X9200000Y-5300000I650000J0D01*
G01*
X8025000Y-8750000D02*
X7500000Y-8750000D01*
D11*
D12*
X5840000Y-4190000D02*
X6160000Y-4510000D01*
X6160000Y-4190000D02*
X5840000Y-4510000D01*
D11*
X2333277Y-9063984D02*
X2333277Y-8863984D01*
X2333277Y-8863984D02*
X2380896Y-8863984D01*
X2380896Y-8863984D02*
X2409467Y-8873508D01*
X2409467Y-8873508D02*
X2428515Y-8892555D01*
X2428515Y-8892555D02*
X2438039Y-8911603D01*
X2438039Y-8911603D02*
X2447563Y-8949698D01*
X2447563Y-8949698D02*
X2447563Y-8978270D01*
X2447563Y-8978270D02*
X2438039Y-9016365D01*
X2438039Y-9016365D02*
X2428515Y-9035412D01*
X2428515Y-9035412D02*
X2409467Y-9054460D01*
X2409467Y-9054460D02*
X2380896Y-9063984D01*
X2380896Y-9063984D02*
X2333277Y-9063984D01*
X2533277Y-9063984D02*
X2533277Y-8930650D01*
X2533277Y-8968746D02*
X2542801Y-8949698D01*
X2542801Y-8949698D02*
X2552324Y-8940174D01*
X2552324Y-8940174D02*
X2571372Y-8930650D01*
X2571372Y-8930650D02*
X2590420Y-8930650D01*
X2657086Y-9063984D02*
X2657086Y-8930650D01*
X2657086Y-8863984D02*
X2647563Y-8873508D01*
X2647563Y-8873508D02*
X2657086Y-8883031D01*
X2657086Y-8883031D02*
X2666610Y-8873508D01*
X2666610Y-8873508D02*
X2657086Y-8863984D01*
X2657086Y-8863984D02*
X2657086Y-8883031D01*
X2780896Y-9063984D02*
X2761848Y-9054460D01*
X2761848Y-9054460D02*
X2752324Y-9035412D01*
X2752324Y-9035412D02*
X2752324Y-8863984D01*
X2885658Y-9063984D02*
X2866610Y-9054460D01*
X2866610Y-9054460D02*
X2857086Y-9035412D01*
X2857086Y-9035412D02*
X2857086Y-8863984D01*
X3114229Y-9063984D02*
X3114229Y-8863984D01*
X3114229Y-8863984D02*
X3180896Y-9006841D01*
X3180896Y-9006841D02*
X3247562Y-8863984D01*
X3247562Y-8863984D02*
X3247562Y-9063984D01*
X3428515Y-9063984D02*
X3428515Y-8959222D01*
X3428515Y-8959222D02*
X3418991Y-8940174D01*
X3418991Y-8940174D02*
X3399943Y-8930650D01*
X3399943Y-8930650D02*
X3361848Y-8930650D01*
X3361848Y-8930650D02*
X3342801Y-8940174D01*
X3428515Y-9054460D02*
X3409467Y-9063984D01*
X3409467Y-9063984D02*
X3361848Y-9063984D01*
X3361848Y-9063984D02*
X3342801Y-9054460D01*
X3342801Y-9054460D02*
X3333277Y-9035412D01*
X3333277Y-9035412D02*
X3333277Y-9016365D01*
X3333277Y-9016365D02*
X3342801Y-8997317D01*
X3342801Y-8997317D02*
X3361848Y-8987793D01*
X3361848Y-8987793D02*
X3409467Y-8987793D01*
X3409467Y-8987793D02*
X3428515Y-8978270D01*
X3523753Y-8930650D02*
X3523753Y-9130650D01*
X3523753Y-8940174D02*
X3542801Y-8930650D01*
X3542801Y-8930650D02*
X3580896Y-8930650D01*
X3580896Y-8930650D02*
X3599943Y-8940174D01*
X3599943Y-8940174D02*
X3609467Y-8949698D01*
X3609467Y-8949698D02*
X3618991Y-8968746D01*
X3618991Y-8968746D02*
X3618991Y-9025889D01*
X3618991Y-9025889D02*
X3609467Y-9044936D01*
X3609467Y-9044936D02*
X3599943Y-9054460D01*
X3599943Y-9054460D02*
X3580896Y-9063984D01*
X3580896Y-9063984D02*
X3542801Y-9063984D01*
X3542801Y-9063984D02*
X3523753Y-9054460D01*
X3704705Y-9044936D02*
X3714229Y-9054460D01*
X3714229Y-9054460D02*
X3704705Y-9063984D01*
X3704705Y-9063984D02*
X3695182Y-9054460D01*
X3695182Y-9054460D02*
X3704705Y-9044936D01*
X3704705Y-9044936D02*
X3704705Y-9063984D01*
X3704705Y-8940174D02*
X3714229Y-8949698D01*
X3714229Y-8949698D02*
X3704705Y-8959222D01*
X3704705Y-8959222D02*
X3695182Y-8949698D01*
X3695182Y-8949698D02*
X3704705Y-8940174D01*
X3704705Y-8940174D02*
X3704705Y-8959222D01*
X1872500Y-9292500D02*
X2072500Y-9492500D01*
X2072500Y-9292500D02*
X1872500Y-9492500D01*
X2314229Y-9283984D02*
X2438039Y-9283984D01*
X2438039Y-9283984D02*
X2371372Y-9360174D01*
X2371372Y-9360174D02*
X2399944Y-9360174D01*
X2399944Y-9360174D02*
X2418991Y-9369698D01*
X2418991Y-9369698D02*
X2428515Y-9379222D01*
X2428515Y-9379222D02*
X2438039Y-9398270D01*
X2438039Y-9398270D02*
X2438039Y-9445889D01*
X2438039Y-9445889D02*
X2428515Y-9464936D01*
X2428515Y-9464936D02*
X2418991Y-9474460D01*
X2418991Y-9474460D02*
X2399944Y-9483984D01*
X2399944Y-9483984D02*
X2342801Y-9483984D01*
X2342801Y-9483984D02*
X2323753Y-9474460D01*
X2323753Y-9474460D02*
X2314229Y-9464936D01*
X2523753Y-9464936D02*
X2533277Y-9474460D01*
X2533277Y-9474460D02*
X2523753Y-9483984D01*
X2523753Y-9483984D02*
X2514229Y-9474460D01*
X2514229Y-9474460D02*
X2523753Y-9464936D01*
X2523753Y-9464936D02*
X2523753Y-9483984D01*
X2609467Y-9303031D02*
X2618991Y-9293508D01*
X2618991Y-9293508D02*
X2638039Y-9283984D01*
X2638039Y-9283984D02*
X2685658Y-9283984D01*
X2685658Y-9283984D02*
X2704705Y-9293508D01*
X2704705Y-9293508D02*
X2714229Y-9303031D01*
X2714229Y-9303031D02*
X2723753Y-9322079D01*
X2723753Y-9322079D02*
X2723753Y-9341127D01*
X2723753Y-9341127D02*
X2714229Y-9369698D01*
X2714229Y-9369698D02*
X2599944Y-9483984D01*
X2599944Y-9483984D02*
X2723753Y-9483984D01*
X2847562Y-9283984D02*
X2866610Y-9283984D01*
X2866610Y-9283984D02*
X2885658Y-9293508D01*
X2885658Y-9293508D02*
X2895182Y-9303031D01*
X2895182Y-9303031D02*
X2904705Y-9322079D01*
X2904705Y-9322079D02*
X2914229Y-9360174D01*
X2914229Y-9360174D02*
X2914229Y-9407793D01*
X2914229Y-9407793D02*
X2904705Y-9445889D01*
X2904705Y-9445889D02*
X2895182Y-9464936D01*
X2895182Y-9464936D02*
X2885658Y-9474460D01*
X2885658Y-9474460D02*
X2866610Y-9483984D01*
X2866610Y-9483984D02*
X2847562Y-9483984D01*
X2847562Y-9483984D02*
X2828515Y-9474460D01*
X2828515Y-9474460D02*
X2818991Y-9464936D01*
X2818991Y-9464936D02*
X2809467Y-9445889D01*
X2809467Y-9445889D02*
X2799943Y-9407793D01*
X2799943Y-9407793D02*
X2799943Y-9360174D01*
X2799943Y-9360174D02*
X2809467Y-9322079D01*
X2809467Y-9322079D02*
X2818991Y-9303031D01*
X2818991Y-9303031D02*
X2828515Y-9293508D01*
X2828515Y-9293508D02*
X2847562Y-9283984D01*
X3038039Y-9283984D02*
X3057086Y-9283984D01*
X3057086Y-9283984D02*
X3076134Y-9293508D01*
X3076134Y-9293508D02*
X3085658Y-9303031D01*
X3085658Y-9303031D02*
X3095182Y-9322079D01*
X3095182Y-9322079D02*
X3104705Y-9360174D01*
X3104705Y-9360174D02*
X3104705Y-9407793D01*
X3104705Y-9407793D02*
X3095182Y-9445889D01*
X3095182Y-9445889D02*
X3085658Y-9464936D01*
X3085658Y-9464936D02*
X3076134Y-9474460D01*
X3076134Y-9474460D02*
X3057086Y-9483984D01*
X3057086Y-9483984D02*
X3038039Y-9483984D01*
X3038039Y-9483984D02*
X3018991Y-9474460D01*
X3018991Y-9474460D02*
X3009467Y-9464936D01*
X3009467Y-9464936D02*
X2999943Y-9445889D01*
X2999943Y-9445889D02*
X2990420Y-9407793D01*
X2990420Y-9407793D02*
X2990420Y-9360174D01*
X2990420Y-9360174D02*
X2999943Y-9322079D01*
X2999943Y-9322079D02*
X3009467Y-9303031D01*
X3009467Y-9303031D02*
X3018991Y-9293508D01*
X3018991Y-9293508D02*
X3038039Y-9283984D01*
X3190420Y-9483984D02*
X3190420Y-9350650D01*
X3190420Y-9369698D02*
X3199943Y-9360174D01*
X3199943Y-9360174D02*
X3218991Y-9350650D01*
X3218991Y-9350650D02*
X3247563Y-9350650D01*
X3247563Y-9350650D02*
X3266610Y-9360174D01*
X3266610Y-9360174D02*
X3276134Y-9379222D01*
X3276134Y-9379222D02*
X3276134Y-9483984D01*
X3276134Y-9379222D02*
X3285658Y-9360174D01*
X3285658Y-9360174D02*
X3304705Y-9350650D01*
X3304705Y-9350650D02*
X3333277Y-9350650D01*
X3333277Y-9350650D02*
X3352324Y-9360174D01*
X3352324Y-9360174D02*
X3361848Y-9379222D01*
X3361848Y-9379222D02*
X3361848Y-9483984D01*
X3457086Y-9483984D02*
X3457086Y-9350650D01*
X3457086Y-9369698D02*
X3466610Y-9360174D01*
X3466610Y-9360174D02*
X3485658Y-9350650D01*
X3485658Y-9350650D02*
X3514229Y-9350650D01*
X3514229Y-9350650D02*
X3533277Y-9360174D01*
X3533277Y-9360174D02*
X3542801Y-9379222D01*
X3542801Y-9379222D02*
X3542801Y-9483984D01*
X3542801Y-9379222D02*
X3552324Y-9360174D01*
X3552324Y-9360174D02*
X3571372Y-9350650D01*
X3571372Y-9350650D02*
X3599943Y-9350650D01*
X3599943Y-9350650D02*
X3618991Y-9360174D01*
X3618991Y-9360174D02*
X3628515Y-9379222D01*
X3628515Y-9379222D02*
X3628515Y-9483984D01*
X4018991Y-9274460D02*
X3847563Y-9531603D01*
X4276134Y-9283984D02*
X4295182Y-9283984D01*
X4295182Y-9283984D02*
X4314229Y-9293508D01*
X4314229Y-9293508D02*
X4323753Y-9303031D01*
X4323753Y-9303031D02*
X4333277Y-9322079D01*
X4333277Y-9322079D02*
X4342801Y-9360174D01*
X4342801Y-9360174D02*
X4342801Y-9407793D01*
X4342801Y-9407793D02*
X4333277Y-9445889D01*
X4333277Y-9445889D02*
X4323753Y-9464936D01*
X4323753Y-9464936D02*
X4314229Y-9474460D01*
X4314229Y-9474460D02*
X4295182Y-9483984D01*
X4295182Y-9483984D02*
X4276134Y-9483984D01*
X4276134Y-9483984D02*
X4257087Y-9474460D01*
X4257087Y-9474460D02*
X4247563Y-9464936D01*
X4247563Y-9464936D02*
X4238039Y-9445889D01*
X4238039Y-9445889D02*
X4228515Y-9407793D01*
X4228515Y-9407793D02*
X4228515Y-9360174D01*
X4228515Y-9360174D02*
X4238039Y-9322079D01*
X4238039Y-9322079D02*
X4247563Y-9303031D01*
X4247563Y-9303031D02*
X4257087Y-9293508D01*
X4257087Y-9293508D02*
X4276134Y-9283984D01*
X4428515Y-9464936D02*
X4438039Y-9474460D01*
X4438039Y-9474460D02*
X4428515Y-9483984D01*
X4428515Y-9483984D02*
X4418991Y-9474460D01*
X4418991Y-9474460D02*
X4428515Y-9464936D01*
X4428515Y-9464936D02*
X4428515Y-9483984D01*
X4628515Y-9483984D02*
X4514229Y-9483984D01*
X4571372Y-9483984D02*
X4571372Y-9283984D01*
X4571372Y-9283984D02*
X4552325Y-9312555D01*
X4552325Y-9312555D02*
X4533277Y-9331603D01*
X4533277Y-9331603D02*
X4514229Y-9341127D01*
X4704706Y-9303031D02*
X4714229Y-9293508D01*
X4714229Y-9293508D02*
X4733277Y-9283984D01*
X4733277Y-9283984D02*
X4780896Y-9283984D01*
X4780896Y-9283984D02*
X4799944Y-9293508D01*
X4799944Y-9293508D02*
X4809468Y-9303031D01*
X4809468Y-9303031D02*
X4818991Y-9322079D01*
X4818991Y-9322079D02*
X4818991Y-9341127D01*
X4818991Y-9341127D02*
X4809468Y-9369698D01*
X4809468Y-9369698D02*
X4695182Y-9483984D01*
X4695182Y-9483984D02*
X4818991Y-9483984D01*
X4990420Y-9283984D02*
X4952325Y-9283984D01*
X4952325Y-9283984D02*
X4933277Y-9293508D01*
X4933277Y-9293508D02*
X4923753Y-9303031D01*
X4923753Y-9303031D02*
X4904706Y-9331603D01*
X4904706Y-9331603D02*
X4895182Y-9369698D01*
X4895182Y-9369698D02*
X4895182Y-9445889D01*
X4895182Y-9445889D02*
X4904706Y-9464936D01*
X4904706Y-9464936D02*
X4914229Y-9474460D01*
X4914229Y-9474460D02*
X4933277Y-9483984D01*
X4933277Y-9483984D02*
X4971372Y-9483984D01*
X4971372Y-9483984D02*
X4990420Y-9474460D01*
X4990420Y-9474460D02*
X4999944Y-9464936D01*
X4999944Y-9464936D02*
X5009468Y-9445889D01*
X5009468Y-9445889D02*
X5009468Y-9398270D01*
X5009468Y-9398270D02*
X4999944Y-9379222D01*
X4999944Y-9379222D02*
X4990420Y-9369698D01*
X4990420Y-9369698D02*
X4971372Y-9360174D01*
X4971372Y-9360174D02*
X4933277Y-9360174D01*
X4933277Y-9360174D02*
X4914229Y-9369698D01*
X4914229Y-9369698D02*
X4904706Y-9379222D01*
X4904706Y-9379222D02*
X4895182Y-9398270D01*
X5133277Y-9283984D02*
X5152325Y-9283984D01*
X5152325Y-9283984D02*
X5171372Y-9293508D01*
X5171372Y-9293508D02*
X5180896Y-9303031D01*
X5180896Y-9303031D02*
X5190420Y-9322079D01*
X5190420Y-9322079D02*
X5199944Y-9360174D01*
X5199944Y-9360174D02*
X5199944Y-9407793D01*
X5199944Y-9407793D02*
X5190420Y-9445889D01*
X5190420Y-9445889D02*
X5180896Y-9464936D01*
X5180896Y-9464936D02*
X5171372Y-9474460D01*
X5171372Y-9474460D02*
X5152325Y-9483984D01*
X5152325Y-9483984D02*
X5133277Y-9483984D01*
X5133277Y-9483984D02*
X5114229Y-9474460D01*
X5114229Y-9474460D02*
X5104706Y-9464936D01*
X5104706Y-9464936D02*
X5095182Y-9445889D01*
X5095182Y-9445889D02*
X5085658Y-9407793D01*
X5085658Y-9407793D02*
X5085658Y-9360174D01*
X5085658Y-9360174D02*
X5095182Y-9322079D01*
X5095182Y-9322079D02*
X5104706Y-9303031D01*
X5104706Y-9303031D02*
X5114229Y-9293508D01*
X5114229Y-9293508D02*
X5133277Y-9283984D01*
X5276134Y-9283984D02*
X5276134Y-9322079D01*
X5352325Y-9283984D02*
X5352325Y-9322079D01*
X5647563Y-9560174D02*
X5638039Y-9550650D01*
X5638039Y-9550650D02*
X5618991Y-9522079D01*
X5618991Y-9522079D02*
X5609468Y-9503031D01*
X5609468Y-9503031D02*
X5599944Y-9474460D01*
X5599944Y-9474460D02*
X5590420Y-9426841D01*
X5590420Y-9426841D02*
X5590420Y-9388746D01*
X5590420Y-9388746D02*
X5599944Y-9341127D01*
X5599944Y-9341127D02*
X5609468Y-9312555D01*
X5609468Y-9312555D02*
X5618991Y-9293508D01*
X5618991Y-9293508D02*
X5638039Y-9264936D01*
X5638039Y-9264936D02*
X5647563Y-9255412D01*
X5828515Y-9483984D02*
X5714229Y-9483984D01*
X5771372Y-9483984D02*
X5771372Y-9283984D01*
X5771372Y-9283984D02*
X5752325Y-9312555D01*
X5752325Y-9312555D02*
X5733277Y-9331603D01*
X5733277Y-9331603D02*
X5714229Y-9341127D01*
X6066610Y-9483984D02*
X6066610Y-9283984D01*
X6152325Y-9483984D02*
X6152325Y-9379222D01*
X6152325Y-9379222D02*
X6142801Y-9360174D01*
X6142801Y-9360174D02*
X6123753Y-9350650D01*
X6123753Y-9350650D02*
X6095182Y-9350650D01*
X6095182Y-9350650D02*
X6076134Y-9360174D01*
X6076134Y-9360174D02*
X6066610Y-9369698D01*
X6276134Y-9483984D02*
X6257087Y-9474460D01*
X6257087Y-9474460D02*
X6247563Y-9464936D01*
X6247563Y-9464936D02*
X6238039Y-9445889D01*
X6238039Y-9445889D02*
X6238039Y-9388746D01*
X6238039Y-9388746D02*
X6247563Y-9369698D01*
X6247563Y-9369698D02*
X6257087Y-9360174D01*
X6257087Y-9360174D02*
X6276134Y-9350650D01*
X6276134Y-9350650D02*
X6304706Y-9350650D01*
X6304706Y-9350650D02*
X6323753Y-9360174D01*
X6323753Y-9360174D02*
X6333277Y-9369698D01*
X6333277Y-9369698D02*
X6342801Y-9388746D01*
X6342801Y-9388746D02*
X6342801Y-9445889D01*
X6342801Y-9445889D02*
X6333277Y-9464936D01*
X6333277Y-9464936D02*
X6323753Y-9474460D01*
X6323753Y-9474460D02*
X6304706Y-9483984D01*
X6304706Y-9483984D02*
X6276134Y-9483984D01*
X6457087Y-9483984D02*
X6438039Y-9474460D01*
X6438039Y-9474460D02*
X6428515Y-9455412D01*
X6428515Y-9455412D02*
X6428515Y-9283984D01*
X6609468Y-9474460D02*
X6590420Y-9483984D01*
X6590420Y-9483984D02*
X6552325Y-9483984D01*
X6552325Y-9483984D02*
X6533277Y-9474460D01*
X6533277Y-9474460D02*
X6523753Y-9455412D01*
X6523753Y-9455412D02*
X6523753Y-9379222D01*
X6523753Y-9379222D02*
X6533277Y-9360174D01*
X6533277Y-9360174D02*
X6552325Y-9350650D01*
X6552325Y-9350650D02*
X6590420Y-9350650D01*
X6590420Y-9350650D02*
X6609468Y-9360174D01*
X6609468Y-9360174D02*
X6618991Y-9379222D01*
X6618991Y-9379222D02*
X6618991Y-9398270D01*
X6618991Y-9398270D02*
X6523753Y-9417317D01*
X6685658Y-9560174D02*
X6695182Y-9550650D01*
X6695182Y-9550650D02*
X6714230Y-9522079D01*
X6714230Y-9522079D02*
X6723753Y-9503031D01*
X6723753Y-9503031D02*
X6733277Y-9474460D01*
X6733277Y-9474460D02*
X6742801Y-9426841D01*
X6742801Y-9426841D02*
X6742801Y-9388746D01*
X6742801Y-9388746D02*
X6733277Y-9341127D01*
X6733277Y-9341127D02*
X6723753Y-9312555D01*
X6723753Y-9312555D02*
X6714230Y-9293508D01*
X6714230Y-9293508D02*
X6695182Y-9264936D01*
X6695182Y-9264936D02*
X6685658Y-9255412D01*
X7047563Y-9560174D02*
X7038039Y-9550650D01*
X7038039Y-9550650D02*
X7018991Y-9522079D01*
X7018991Y-9522079D02*
X7009468Y-9503031D01*
X7009468Y-9503031D02*
X6999944Y-9474460D01*
X6999944Y-9474460D02*
X6990420Y-9426841D01*
X6990420Y-9426841D02*
X6990420Y-9388746D01*
X6990420Y-9388746D02*
X6999944Y-9341127D01*
X6999944Y-9341127D02*
X7009468Y-9312555D01*
X7009468Y-9312555D02*
X7018991Y-9293508D01*
X7018991Y-9293508D02*
X7038039Y-9264936D01*
X7038039Y-9264936D02*
X7047563Y-9255412D01*
X7123753Y-9350650D02*
X7123753Y-9483984D01*
X7123753Y-9369698D02*
X7133277Y-9360174D01*
X7133277Y-9360174D02*
X7152325Y-9350650D01*
X7152325Y-9350650D02*
X7180896Y-9350650D01*
X7180896Y-9350650D02*
X7199944Y-9360174D01*
X7199944Y-9360174D02*
X7209468Y-9379222D01*
X7209468Y-9379222D02*
X7209468Y-9483984D01*
X7333277Y-9483984D02*
X7314230Y-9474460D01*
X7314230Y-9474460D02*
X7304706Y-9464936D01*
X7304706Y-9464936D02*
X7295182Y-9445889D01*
X7295182Y-9445889D02*
X7295182Y-9388746D01*
X7295182Y-9388746D02*
X7304706Y-9369698D01*
X7304706Y-9369698D02*
X7314230Y-9360174D01*
X7314230Y-9360174D02*
X7333277Y-9350650D01*
X7333277Y-9350650D02*
X7361849Y-9350650D01*
X7361849Y-9350650D02*
X7380896Y-9360174D01*
X7380896Y-9360174D02*
X7390420Y-9369698D01*
X7390420Y-9369698D02*
X7399944Y-9388746D01*
X7399944Y-9388746D02*
X7399944Y-9445889D01*
X7399944Y-9445889D02*
X7390420Y-9464936D01*
X7390420Y-9464936D02*
X7380896Y-9474460D01*
X7380896Y-9474460D02*
X7361849Y-9483984D01*
X7361849Y-9483984D02*
X7333277Y-9483984D01*
X7457087Y-9350650D02*
X7533277Y-9350650D01*
X7485658Y-9283984D02*
X7485658Y-9455412D01*
X7485658Y-9455412D02*
X7495182Y-9474460D01*
X7495182Y-9474460D02*
X7514230Y-9483984D01*
X7514230Y-9483984D02*
X7533277Y-9483984D01*
X7752325Y-9350650D02*
X7752325Y-9550650D01*
X7752325Y-9360174D02*
X7771372Y-9350650D01*
X7771372Y-9350650D02*
X7809468Y-9350650D01*
X7809468Y-9350650D02*
X7828515Y-9360174D01*
X7828515Y-9360174D02*
X7838039Y-9369698D01*
X7838039Y-9369698D02*
X7847563Y-9388746D01*
X7847563Y-9388746D02*
X7847563Y-9445889D01*
X7847563Y-9445889D02*
X7838039Y-9464936D01*
X7838039Y-9464936D02*
X7828515Y-9474460D01*
X7828515Y-9474460D02*
X7809468Y-9483984D01*
X7809468Y-9483984D02*
X7771372Y-9483984D01*
X7771372Y-9483984D02*
X7752325Y-9474460D01*
X7961849Y-9483984D02*
X7942801Y-9474460D01*
X7942801Y-9474460D02*
X7933277Y-9455412D01*
X7933277Y-9455412D02*
X7933277Y-9283984D01*
X8123753Y-9483984D02*
X8123753Y-9379222D01*
X8123753Y-9379222D02*
X8114230Y-9360174D01*
X8114230Y-9360174D02*
X8095182Y-9350650D01*
X8095182Y-9350650D02*
X8057087Y-9350650D01*
X8057087Y-9350650D02*
X8038039Y-9360174D01*
X8123753Y-9474460D02*
X8104706Y-9483984D01*
X8104706Y-9483984D02*
X8057087Y-9483984D01*
X8057087Y-9483984D02*
X8038039Y-9474460D01*
X8038039Y-9474460D02*
X8028515Y-9455412D01*
X8028515Y-9455412D02*
X8028515Y-9436365D01*
X8028515Y-9436365D02*
X8038039Y-9417317D01*
X8038039Y-9417317D02*
X8057087Y-9407793D01*
X8057087Y-9407793D02*
X8104706Y-9407793D01*
X8104706Y-9407793D02*
X8123753Y-9398270D01*
X8190420Y-9350650D02*
X8266611Y-9350650D01*
X8218992Y-9283984D02*
X8218992Y-9455412D01*
X8218992Y-9455412D02*
X8228515Y-9474460D01*
X8228515Y-9474460D02*
X8247563Y-9483984D01*
X8247563Y-9483984D02*
X8266611Y-9483984D01*
X8409468Y-9474460D02*
X8390420Y-9483984D01*
X8390420Y-9483984D02*
X8352325Y-9483984D01*
X8352325Y-9483984D02*
X8333277Y-9474460D01*
X8333277Y-9474460D02*
X8323753Y-9455412D01*
X8323753Y-9455412D02*
X8323753Y-9379222D01*
X8323753Y-9379222D02*
X8333277Y-9360174D01*
X8333277Y-9360174D02*
X8352325Y-9350650D01*
X8352325Y-9350650D02*
X8390420Y-9350650D01*
X8390420Y-9350650D02*
X8409468Y-9360174D01*
X8409468Y-9360174D02*
X8418992Y-9379222D01*
X8418992Y-9379222D02*
X8418992Y-9398270D01*
X8418992Y-9398270D02*
X8323753Y-9417317D01*
X8590420Y-9483984D02*
X8590420Y-9283984D01*
X8590420Y-9474460D02*
X8571373Y-9483984D01*
X8571373Y-9483984D02*
X8533277Y-9483984D01*
X8533277Y-9483984D02*
X8514230Y-9474460D01*
X8514230Y-9474460D02*
X8504706Y-9464936D01*
X8504706Y-9464936D02*
X8495182Y-9445889D01*
X8495182Y-9445889D02*
X8495182Y-9388746D01*
X8495182Y-9388746D02*
X8504706Y-9369698D01*
X8504706Y-9369698D02*
X8514230Y-9360174D01*
X8514230Y-9360174D02*
X8533277Y-9350650D01*
X8533277Y-9350650D02*
X8571373Y-9350650D01*
X8571373Y-9350650D02*
X8590420Y-9360174D01*
X8666611Y-9560174D02*
X8676135Y-9550650D01*
X8676135Y-9550650D02*
X8695182Y-9522079D01*
X8695182Y-9522079D02*
X8704706Y-9503031D01*
X8704706Y-9503031D02*
X8714230Y-9474460D01*
X8714230Y-9474460D02*
X8723754Y-9426841D01*
X8723754Y-9426841D02*
X8723754Y-9388746D01*
X8723754Y-9388746D02*
X8714230Y-9341127D01*
X8714230Y-9341127D02*
X8704706Y-9312555D01*
X8704706Y-9312555D02*
X8695182Y-9293508D01*
X8695182Y-9293508D02*
X8676135Y-9264936D01*
X8676135Y-9264936D02*
X8666611Y-9255412D01*
M02*
