%TF.GenerationSoftware,KiCad,Pcbnew,9.0.6*%
%TF.CreationDate,2025-11-24T14:02:56+01:00*%
%TF.ProjectId,hex-dna,6865782d-646e-4612-9e6b-696361645f70,rev?*%
%TF.SameCoordinates,Original*%
%TF.FileFunction,Copper,L1,Top*%
%TF.FilePolarity,Positive*%
%FSLAX46Y46*%
G04 Gerber Fmt 4.6, Leading zero omitted, Abs format (unit mm)*
G04 Created by KiCad (PCBNEW 9.0.6) date 2025-11-24 14:02:56*
%MOMM*%
%LPD*%
G01*
G04 APERTURE LIST*
G04 Aperture macros list*
%AMRoundRect*
0 Rectangle with rounded corners*
0 $1 Rounding radius*
0 $2 $3 $4 $5 $6 $7 $8 $9 X,Y pos of 4 corners*
0 Add a 4 corners polygon primitive as box body*
4,1,4,$2,$3,$4,$5,$6,$7,$8,$9,$2,$3,0*
0 Add four circle primitives for the rounded corners*
1,1,$1+$1,$2,$3*
1,1,$1+$1,$4,$5*
1,1,$1+$1,$6,$7*
1,1,$1+$1,$8,$9*
0 Add four rect primitives between the rounded corners*
20,1,$1+$1,$2,$3,$4,$5,0*
20,1,$1+$1,$4,$5,$6,$7,0*
20,1,$1+$1,$6,$7,$8,$9,0*
20,1,$1+$1,$8,$9,$2,$3,0*%
%AMRotRect*
0 Rectangle, with rotation*
0 The origin of the aperture is its center*
0 $1 length*
0 $2 width*
0 $3 Rotation angle, in degrees counterclockwise*
0 Add horizontal line*
21,1,$1,$2,0,0,$3*%
%AMFreePoly0*
4,1,23,0.550000,-0.750000,0.000000,-0.750000,0.000000,-0.745722,-0.065263,-0.745722,-0.191342,-0.711940,-0.304381,-0.646677,-0.396677,-0.554381,-0.461940,-0.441342,-0.495722,-0.315263,-0.495722,-0.250000,-0.500000,-0.250000,-0.500000,0.250000,-0.495722,0.250000,-0.495722,0.315263,-0.461940,0.441342,-0.396677,0.554381,-0.304381,0.646677,-0.191342,0.711940,-0.065263,0.745722,0.000000,0.745722,
0.000000,0.750000,0.550000,0.750000,0.550000,-0.750000,0.550000,-0.750000,$1*%
%AMFreePoly1*
4,1,23,0.000000,0.745722,0.065263,0.745722,0.191342,0.711940,0.304381,0.646677,0.396677,0.554381,0.461940,0.441342,0.495722,0.315263,0.495722,0.250000,0.500000,0.250000,0.500000,-0.250000,0.495722,-0.250000,0.495722,-0.315263,0.461940,-0.441342,0.396677,-0.554381,0.304381,-0.646677,0.191342,-0.711940,0.065263,-0.745722,0.000000,-0.745722,0.000000,-0.750000,-0.550000,-0.750000,
-0.550000,0.750000,0.000000,0.750000,0.000000,0.745722,0.000000,0.745722,$1*%
G04 Aperture macros list end*
%TA.AperFunction,Conductor*%
%ADD10C,0.200000*%
%TD*%
%TA.AperFunction,ComponentPad*%
%ADD11R,1.700000X1.700000*%
%TD*%
%TA.AperFunction,ComponentPad*%
%ADD12C,1.700000*%
%TD*%
%TA.AperFunction,SMDPad,CuDef*%
%ADD13FreePoly0,180.000000*%
%TD*%
%TA.AperFunction,SMDPad,CuDef*%
%ADD14R,1.000000X1.500000*%
%TD*%
%TA.AperFunction,SMDPad,CuDef*%
%ADD15FreePoly1,180.000000*%
%TD*%
%TA.AperFunction,ComponentPad*%
%ADD16C,1.600000*%
%TD*%
%TA.AperFunction,ComponentPad*%
%ADD17R,1.800000X1.800000*%
%TD*%
%TA.AperFunction,ComponentPad*%
%ADD18C,1.800000*%
%TD*%
%TA.AperFunction,ComponentPad*%
%ADD19RotRect,1.700000X1.700000X30.000000*%
%TD*%
%TA.AperFunction,ComponentPad*%
%ADD20RoundRect,0.250000X0.550000X-0.550000X0.550000X0.550000X-0.550000X0.550000X-0.550000X-0.550000X0*%
%TD*%
%TA.AperFunction,ViaPad*%
%ADD21C,0.600000*%
%TD*%
%TA.AperFunction,Conductor*%
%ADD22C,0.300000*%
%TD*%
%TA.AperFunction,Conductor*%
%ADD23C,0.650000*%
%TD*%
G04 APERTURE END LIST*
D10*
%TO.N,Net-(J5-Pin_2)*%
X69500000Y-53000000D02*
X68000000Y-51000000D01*
X68000000Y-51000000D02*
X68000000Y-48000000D01*
X69500000Y-55000000D02*
X69500000Y-53000000D01*
%TD*%
D11*
%TO.P,J3,1,Pin_1*%
%TO.N,Net-(J3-Pin_1)*%
X55775001Y-35500000D03*
D12*
%TO.P,J3,2,Pin_2*%
%TO.N,GND*%
X53235001Y-35500000D03*
%TD*%
D11*
%TO.P,+3V3 GND +5V EN,1,Pin_1*%
%TO.N,Net-(J6-Pin_1)*%
X57000000Y-55000000D03*
D12*
%TO.P,+3V3 GND +5V EN,2,Pin_2*%
%TO.N,+5V*%
X54460000Y-55000000D03*
%TO.P,+3V3 GND +5V EN,3,Pin_3*%
%TO.N,GND*%
X51920000Y-55000000D03*
%TO.P,+3V3 GND +5V EN,4,Pin_4*%
%TO.N,+3V3*%
X49380000Y-55000000D03*
%TD*%
D13*
%TO.P,JP2,1,A*%
%TO.N,+3V3*%
X69300000Y-48000000D03*
D14*
%TO.P,JP2,2,C*%
%TO.N,Net-(J5-Pin_2)*%
X68000000Y-48000000D03*
D15*
%TO.P,JP2,3,B*%
%TO.N,GND*%
X66700000Y-48000000D03*
%TD*%
D16*
%TO.P,R6,1*%
%TO.N,Net-(J4-Pin_1)*%
X67500000Y-31000000D03*
%TO.P,R6,2*%
%TO.N,+3V_const*%
X67500000Y-20840000D03*
%TD*%
%TO.P,R1,1*%
%TO.N,Net-(J2-Pin_1)*%
X42450000Y-31000000D03*
%TO.P,R1,2*%
%TO.N,+3V_const*%
X42450000Y-20840000D03*
%TD*%
D13*
%TO.P,JP1,1,A*%
%TO.N,+5V*%
X54300000Y-48000000D03*
D14*
%TO.P,JP1,2,C*%
%TO.N,Net-(J6-Pin_1)*%
X53000000Y-48000000D03*
D15*
%TO.P,JP1,3,B*%
%TO.N,GND*%
X51700000Y-48000000D03*
%TD*%
D16*
%TO.P,R4,1*%
%TO.N,Net-(J3-Pin_1)*%
X56500000Y-31000000D03*
%TO.P,R4,2*%
%TO.N,+3V_const*%
X56500000Y-20840000D03*
%TD*%
D11*
%TO.P,J4,1,Pin_1*%
%TO.N,Net-(J4-Pin_1)*%
X67000000Y-35500000D03*
D12*
%TO.P,J4,2,Pin_2*%
%TO.N,GND*%
X64460000Y-35500000D03*
%TD*%
D17*
%TO.P,D1,1,K*%
%TO.N,GND*%
X43500000Y-82999999D03*
D18*
%TO.P,D1,2,A*%
%TO.N,Net-(D1-A)*%
X40960000Y-82999999D03*
%TD*%
D11*
%TO.P,+3V_CC GND CE +3V3,1,Pin_1*%
%TO.N,+3V3*%
X72000000Y-55000000D03*
D12*
%TO.P,+3V_CC GND CE +3V3,2,Pin_2*%
%TO.N,Net-(J5-Pin_2)*%
X69460000Y-55000000D03*
%TO.P,+3V_CC GND CE +3V3,3,Pin_3*%
%TO.N,GND*%
X66920000Y-55000000D03*
%TO.P,+3V_CC GND CE +3V3,4,Pin_4*%
%TO.N,+3V_const*%
X64380000Y-55000000D03*
%TD*%
D16*
%TO.P,R5,1*%
%TO.N,Net-(J4-Pin_1)*%
X63950000Y-31000000D03*
%TO.P,R5,2*%
%TO.N,+3V_const*%
X63950000Y-20840000D03*
%TD*%
%TO.P,R2,1*%
%TO.N,Net-(J2-Pin_1)*%
X46000000Y-31000000D03*
%TO.P,R2,2*%
%TO.N,+3V_const*%
X46000000Y-20840000D03*
%TD*%
D19*
%TO.P,J1,1,Pin_1*%
%TO.N,+5V*%
X30500000Y-63000000D03*
D12*
%TO.P,J1,2,Pin_2*%
%TO.N,GND*%
X31770000Y-65199705D03*
%TD*%
D16*
%TO.P,R7,1*%
%TO.N,Net-(J7-Pin_1)*%
X73950000Y-31000000D03*
%TO.P,R7,2*%
%TO.N,+3V_const*%
X73950000Y-20840000D03*
%TD*%
D11*
%TO.P,J7,1,Pin_1*%
%TO.N,Net-(J7-Pin_1)*%
X77040003Y-35500000D03*
D12*
%TO.P,J7,2,Pin_2*%
%TO.N,GND*%
X74500003Y-35500000D03*
%TD*%
D20*
%TO.P,C1,1*%
%TO.N,+5V*%
X40000000Y-68705113D03*
D16*
%TO.P,C1,2*%
%TO.N,GND*%
X40000000Y-66205113D03*
%TD*%
%TO.P,R9,1*%
%TO.N,+5V*%
X34000000Y-69500000D03*
%TO.P,R9,2*%
%TO.N,Net-(D1-A)*%
X39080000Y-78298817D03*
%TD*%
D11*
%TO.P,J2,1,Pin_1*%
%TO.N,Net-(J2-Pin_1)*%
X45500000Y-35500000D03*
D12*
%TO.P,J2,2,Pin_2*%
%TO.N,GND*%
X42960000Y-35500000D03*
%TD*%
D16*
%TO.P,R3,1*%
%TO.N,Net-(J3-Pin_1)*%
X52950000Y-31000000D03*
%TO.P,R3,2*%
%TO.N,+3V_const*%
X52950000Y-20840000D03*
%TD*%
%TO.P,R8,1*%
%TO.N,Net-(J7-Pin_1)*%
X77500000Y-31000000D03*
%TO.P,R8,2*%
%TO.N,+3V_const*%
X77500000Y-20840000D03*
%TD*%
D21*
%TO.N,GND*%
X49500000Y-33354415D03*
X66500000Y-44500000D03*
X28500000Y-59000000D03*
X42000000Y-73000000D03*
X43500000Y-79500000D03*
X84000000Y-41000000D03*
X61000000Y-55000000D03*
X78386018Y-83500000D03*
X49000000Y-48000000D03*
X84000000Y-30000000D03*
X46000000Y-55500000D03*
X40000000Y-30000000D03*
X47500000Y-43500000D03*
X37000000Y-44000000D03*
X95500000Y-52000000D03*
X45500000Y-24500000D03*
X74500000Y-44000000D03*
X92000000Y-60000000D03*
X78500000Y-59500000D03*
%TO.N,+3V3*%
X70000000Y-51500000D03*
X49380000Y-52000000D03*
%TD*%
D22*
%TO.N,GND*%
X66500000Y-47800000D02*
X66700000Y-48000000D01*
D10*
X66500000Y-52660000D02*
X66500000Y-52500000D01*
X49000000Y-48000000D02*
X49500000Y-48000000D01*
D22*
X51700000Y-48000000D02*
X49000000Y-48000000D01*
D23*
X31500000Y-65500000D02*
X32500000Y-65500000D01*
D22*
X66500000Y-44500000D02*
X66500000Y-47800000D01*
D23*
%TO.N,+5V*%
X43500000Y-67500000D02*
X42294887Y-68705113D01*
X54460000Y-50000000D02*
X48000000Y-50000000D01*
X42294887Y-68705113D02*
X40000000Y-68705113D01*
X43500000Y-54500000D02*
X43500000Y-67500000D01*
X33000000Y-62000000D02*
X31500000Y-62000000D01*
X37205113Y-68705113D02*
X35500000Y-67000000D01*
X35500000Y-67000000D02*
X35500000Y-64500000D01*
X36000000Y-69500000D02*
X34000000Y-69500000D01*
X48000000Y-50000000D02*
X43500000Y-54500000D01*
X54460000Y-50000000D02*
X54460000Y-48160000D01*
X40000000Y-68705113D02*
X37205113Y-68705113D01*
X36794887Y-68705113D02*
X36000000Y-69500000D01*
X31500000Y-62000000D02*
X30500000Y-63000000D01*
X35500000Y-64500000D02*
X33000000Y-62000000D01*
X54460000Y-55000000D02*
X54460000Y-50000000D01*
D10*
X54460000Y-48160000D02*
X54300000Y-48000000D01*
D23*
X37205113Y-68705113D02*
X36794887Y-68705113D01*
%TO.N,+3V3*%
X70000000Y-51500000D02*
X72000000Y-51500000D01*
X71000000Y-48000000D02*
X69300000Y-48000000D01*
X72000000Y-49000000D02*
X71000000Y-48000000D01*
X49380000Y-52000000D02*
X49380000Y-55000000D01*
X72000000Y-55000000D02*
X72000000Y-50500000D01*
X72000000Y-50500000D02*
X72000000Y-49000000D01*
D10*
%TO.N,Net-(J6-Pin_1)*%
X57000000Y-51000000D02*
X57000000Y-55000000D01*
X53000000Y-48000000D02*
X53000000Y-47000000D01*
X56000000Y-50000000D02*
X57000000Y-51000000D01*
X57500000Y-54500000D02*
X57000000Y-55000000D01*
X56000000Y-47500000D02*
X56000000Y-50000000D01*
X53000000Y-47000000D02*
X53500000Y-46500000D01*
X53500000Y-46500000D02*
X55000000Y-46500000D01*
X55000000Y-46500000D02*
X56000000Y-47500000D01*
D23*
%TO.N,+3V_const*%
X60000000Y-21000000D02*
X61000000Y-21000000D01*
X60000000Y-21000000D02*
X60000000Y-36500000D01*
X58840000Y-20840000D02*
X56500000Y-20840000D01*
X59000000Y-21000000D02*
X58840000Y-20840000D01*
X64500000Y-46000000D02*
X63000000Y-47500000D01*
X52950000Y-20840000D02*
X46000000Y-20840000D01*
X61160000Y-20840000D02*
X63950000Y-20840000D01*
X67500000Y-20840000D02*
X73950000Y-20840000D01*
X63000000Y-51240000D02*
X64380000Y-52620000D01*
X64380000Y-52620000D02*
X64380000Y-55000000D01*
X73950000Y-20840000D02*
X77500000Y-20840000D01*
X64500000Y-39500000D02*
X64500000Y-46000000D01*
X61000000Y-21000000D02*
X61160000Y-20840000D01*
X63950000Y-20840000D02*
X67500000Y-20840000D01*
X61500000Y-38000000D02*
X63000000Y-38000000D01*
X63000000Y-47500000D02*
X63000000Y-51240000D01*
X60000000Y-21000000D02*
X59000000Y-21000000D01*
X46000000Y-20840000D02*
X42450000Y-20840000D01*
X56500000Y-20840000D02*
X52950000Y-20840000D01*
X63000000Y-38000000D02*
X64500000Y-39500000D01*
X60000000Y-36500000D02*
X61500000Y-38000000D01*
D10*
%TO.N,Net-(J2-Pin_1)*%
X46000000Y-31000000D02*
X46000000Y-31500000D01*
X42725000Y-31275000D02*
X42450000Y-31000000D01*
X42450000Y-31000000D02*
X46000000Y-31000000D01*
X45500000Y-32000000D02*
X45500000Y-35500000D01*
X46000000Y-31500000D02*
X45500000Y-32000000D01*
%TO.N,Net-(J3-Pin_1)*%
X55775001Y-32224999D02*
X55775001Y-35500000D01*
X56500000Y-31000000D02*
X56500000Y-31500000D01*
X52950000Y-31000000D02*
X56500000Y-31000000D01*
X53500000Y-31550000D02*
X52950000Y-31000000D01*
X56500000Y-31500000D02*
X55775001Y-32224999D01*
%TO.N,Net-(J4-Pin_1)*%
X63950000Y-31000000D02*
X67500000Y-31000000D01*
X64500000Y-31550000D02*
X63950000Y-31000000D01*
X67000000Y-32000000D02*
X67000000Y-35500000D01*
X67500000Y-31500000D02*
X67000000Y-32000000D01*
X67500000Y-31000000D02*
X67500000Y-31500000D01*
%TO.N,Net-(J7-Pin_1)*%
X73950000Y-31000000D02*
X77500000Y-31000000D01*
X77500000Y-31500000D02*
X77040003Y-31959997D01*
X77040003Y-31959997D02*
X77040003Y-35500000D01*
X77500000Y-31000000D02*
X77500000Y-31500000D01*
X74500000Y-31550000D02*
X73950000Y-31000000D01*
%TO.N,Net-(D1-A)*%
X41000000Y-81000000D02*
X40959997Y-81040003D01*
X40959997Y-81040003D02*
X40959997Y-82999998D01*
X39079999Y-78298817D02*
X41000000Y-80218818D01*
X41000000Y-80218818D02*
X41000000Y-81000000D01*
%TD*%
%TA.AperFunction,Conductor*%
%TO.N,GND*%
G36*
X79957220Y-19020185D02*
G01*
X79997457Y-19062309D01*
X81603056Y-21831967D01*
X99635427Y-52937810D01*
X99652020Y-53005681D01*
X99635427Y-53062190D01*
X83008982Y-81742811D01*
X81472296Y-84393595D01*
X79997458Y-86937690D01*
X79946806Y-86985816D01*
X79890181Y-86999500D01*
X75624500Y-86999500D01*
X75557461Y-86979815D01*
X75511706Y-86927011D01*
X75500500Y-86875500D01*
X75500500Y-57434110D01*
X75500500Y-57434108D01*
X75466392Y-57306814D01*
X75400500Y-57192686D01*
X75307314Y-57099500D01*
X75250250Y-57066554D01*
X75193187Y-57033608D01*
X75129539Y-57016554D01*
X75065892Y-56999500D01*
X45565892Y-56999500D01*
X45434108Y-56999500D01*
X45306812Y-57033608D01*
X45192686Y-57099500D01*
X45192683Y-57099502D01*
X45099502Y-57192683D01*
X45099500Y-57192686D01*
X45033608Y-57306812D01*
X44999500Y-57434108D01*
X44999500Y-81693939D01*
X44979815Y-81760978D01*
X44927011Y-81806733D01*
X44857853Y-81816677D01*
X44794297Y-81787652D01*
X44776234Y-81768251D01*
X44757187Y-81742808D01*
X44642093Y-81656648D01*
X44642086Y-81656644D01*
X44507379Y-81606402D01*
X44507372Y-81606400D01*
X44447844Y-81599999D01*
X43750000Y-81599999D01*
X43750000Y-82624721D01*
X43673694Y-82580666D01*
X43559244Y-82549999D01*
X43440756Y-82549999D01*
X43326306Y-82580666D01*
X43250000Y-82624721D01*
X43250000Y-81599999D01*
X42552155Y-81599999D01*
X42492627Y-81606400D01*
X42492620Y-81606402D01*
X42357913Y-81656644D01*
X42357906Y-81656648D01*
X42242812Y-81742808D01*
X42242809Y-81742811D01*
X42156649Y-81857905D01*
X42156643Y-81857917D01*
X42126785Y-81937968D01*
X42084914Y-81993902D01*
X42019449Y-82018318D01*
X41951176Y-82003466D01*
X41922923Y-81982315D01*
X41872363Y-81931755D01*
X41872358Y-81931751D01*
X41694023Y-81802184D01*
X41628201Y-81768645D01*
X41577405Y-81720670D01*
X41560497Y-81658161D01*
X41560497Y-81244677D01*
X41564722Y-81212583D01*
X41589782Y-81119060D01*
X41600501Y-81079057D01*
X41600501Y-80920942D01*
X41600501Y-80913347D01*
X41600500Y-80913329D01*
X41600500Y-80139763D01*
X41600500Y-80139761D01*
X41559577Y-79987034D01*
X41559573Y-79987027D01*
X41480524Y-79850108D01*
X41480521Y-79850104D01*
X41480520Y-79850102D01*
X41368716Y-79738298D01*
X41368715Y-79738297D01*
X41364385Y-79733967D01*
X41364374Y-79733957D01*
X40374077Y-78743660D01*
X40340592Y-78682337D01*
X40343827Y-78617661D01*
X40348477Y-78603351D01*
X40380500Y-78401169D01*
X40380500Y-78196465D01*
X40348477Y-77994283D01*
X40285220Y-77799598D01*
X40285218Y-77799595D01*
X40285218Y-77799593D01*
X40251503Y-77733424D01*
X40192287Y-77617207D01*
X40184556Y-77606566D01*
X40071971Y-77451603D01*
X39927213Y-77306845D01*
X39761613Y-77186532D01*
X39761612Y-77186531D01*
X39761610Y-77186530D01*
X39704653Y-77157508D01*
X39579223Y-77093598D01*
X39384534Y-77030339D01*
X39209995Y-77002695D01*
X39182352Y-76998317D01*
X38977648Y-76998317D01*
X38953329Y-77002168D01*
X38775465Y-77030339D01*
X38580776Y-77093598D01*
X38398386Y-77186532D01*
X38232786Y-77306845D01*
X38088028Y-77451603D01*
X37967715Y-77617203D01*
X37874781Y-77799593D01*
X37811522Y-77994282D01*
X37779500Y-78196465D01*
X37779500Y-78401168D01*
X37811522Y-78603351D01*
X37874781Y-78798040D01*
X37967715Y-78980430D01*
X38088028Y-79146030D01*
X38232786Y-79290788D01*
X38387749Y-79403373D01*
X38398390Y-79411104D01*
X38514607Y-79470320D01*
X38580776Y-79504035D01*
X38580778Y-79504035D01*
X38580781Y-79504037D01*
X38685137Y-79537944D01*
X38775465Y-79567294D01*
X38876557Y-79583305D01*
X38977648Y-79599317D01*
X38977649Y-79599317D01*
X39182351Y-79599317D01*
X39182352Y-79599317D01*
X39384534Y-79567294D01*
X39398842Y-79562644D01*
X39468679Y-79560648D01*
X39524841Y-79592894D01*
X40363181Y-80431234D01*
X40396666Y-80492557D01*
X40399500Y-80518915D01*
X40399500Y-80795324D01*
X40395275Y-80827417D01*
X40359496Y-80960946D01*
X40359496Y-81129049D01*
X40359497Y-81129062D01*
X40359497Y-81658164D01*
X40339812Y-81725203D01*
X40291793Y-81768648D01*
X40225983Y-81802180D01*
X40225974Y-81802185D01*
X40047641Y-81931751D01*
X40047636Y-81931755D01*
X39891756Y-82087635D01*
X39891752Y-82087640D01*
X39762187Y-82265973D01*
X39662104Y-82462392D01*
X39662103Y-82462395D01*
X39593985Y-82672046D01*
X39559500Y-82889777D01*
X39559500Y-83110220D01*
X39593985Y-83327951D01*
X39662103Y-83537602D01*
X39662104Y-83537605D01*
X39762187Y-83734024D01*
X39891752Y-83912357D01*
X39891756Y-83912362D01*
X40047636Y-84068242D01*
X40047641Y-84068246D01*
X40203192Y-84181259D01*
X40225978Y-84197814D01*
X40292577Y-84231748D01*
X40422393Y-84297894D01*
X40422396Y-84297895D01*
X40527221Y-84331954D01*
X40632049Y-84366014D01*
X40849778Y-84400499D01*
X40849779Y-84400499D01*
X41070221Y-84400499D01*
X41070222Y-84400499D01*
X41287951Y-84366014D01*
X41497606Y-84297894D01*
X41694022Y-84197814D01*
X41872365Y-84068241D01*
X41922924Y-84017681D01*
X41984245Y-83984197D01*
X42053936Y-83989181D01*
X42109870Y-84031052D01*
X42126786Y-84062029D01*
X42156646Y-84142086D01*
X42156649Y-84142092D01*
X42242809Y-84257186D01*
X42242812Y-84257189D01*
X42357906Y-84343349D01*
X42357913Y-84343353D01*
X42492620Y-84393595D01*
X42492627Y-84393597D01*
X42552155Y-84399998D01*
X42552172Y-84399999D01*
X43250000Y-84399999D01*
X43250000Y-83375276D01*
X43326306Y-83419332D01*
X43440756Y-83449999D01*
X43559244Y-83449999D01*
X43673694Y-83419332D01*
X43750000Y-83375276D01*
X43750000Y-84399999D01*
X44447828Y-84399999D01*
X44447844Y-84399998D01*
X44507372Y-84393597D01*
X44507379Y-84393595D01*
X44642086Y-84343353D01*
X44642093Y-84343349D01*
X44757187Y-84257189D01*
X44757188Y-84257188D01*
X44776233Y-84231748D01*
X44832166Y-84189876D01*
X44901858Y-84184892D01*
X44963181Y-84218377D01*
X44996666Y-84279700D01*
X44999500Y-84306058D01*
X44999500Y-86875500D01*
X44979815Y-86942539D01*
X44927011Y-86988294D01*
X44875500Y-86999500D01*
X40611752Y-86999500D01*
X40544713Y-86979815D01*
X40504187Y-86937192D01*
X35523711Y-78253285D01*
X29267798Y-67345540D01*
X27721562Y-64649539D01*
X26635958Y-62756690D01*
X26635957Y-62756689D01*
X26603967Y-62700912D01*
X28833373Y-62700912D01*
X28833373Y-62700913D01*
X28857241Y-62842839D01*
X28881499Y-62897676D01*
X29779369Y-64452828D01*
X29779371Y-64452832D01*
X29804865Y-64487747D01*
X29814725Y-64501250D01*
X29925704Y-64592883D01*
X29925706Y-64592885D01*
X29985533Y-64618504D01*
X30058007Y-64649539D01*
X30200912Y-64666626D01*
X30200913Y-64666626D01*
X30248221Y-64658670D01*
X30342841Y-64642758D01*
X30397669Y-64618504D01*
X30406814Y-64613223D01*
X30474713Y-64596748D01*
X30500913Y-64600833D01*
X31416448Y-64846150D01*
X31369901Y-64892698D01*
X31304075Y-65006712D01*
X31270000Y-65133879D01*
X31270000Y-65265531D01*
X31287037Y-65329115D01*
X30656716Y-65160221D01*
X30420000Y-65096793D01*
X30420000Y-65305951D01*
X30453242Y-65515832D01*
X30453242Y-65515835D01*
X30518904Y-65717922D01*
X30615379Y-65907262D01*
X30740272Y-66079164D01*
X30740276Y-66079169D01*
X30890535Y-66229428D01*
X30890540Y-66229432D01*
X31062442Y-66354325D01*
X31185058Y-66416802D01*
X31416445Y-65553256D01*
X31462993Y-65599804D01*
X31577007Y-65665630D01*
X31704174Y-65699705D01*
X31835826Y-65699705D01*
X31899409Y-65682667D01*
X31667088Y-66549704D01*
X31667088Y-66549705D01*
X31876246Y-66549705D01*
X32086127Y-66516462D01*
X32086130Y-66516462D01*
X32288217Y-66450800D01*
X32477557Y-66354325D01*
X32649459Y-66229432D01*
X32649464Y-66229428D01*
X32799723Y-66079169D01*
X32799727Y-66079164D01*
X32924620Y-65907263D01*
X32987097Y-65784645D01*
X32123552Y-65553258D01*
X32170099Y-65506712D01*
X32235925Y-65392698D01*
X32270000Y-65265531D01*
X32270000Y-65133879D01*
X32252961Y-65070292D01*
X33119999Y-65302615D01*
X33120000Y-65302615D01*
X33120000Y-65093458D01*
X33086757Y-64883577D01*
X33086757Y-64883574D01*
X33021095Y-64681487D01*
X32924620Y-64492147D01*
X32799727Y-64320245D01*
X32799723Y-64320240D01*
X32649464Y-64169981D01*
X32649459Y-64169977D01*
X32477557Y-64045084D01*
X32354939Y-63982606D01*
X32123552Y-64846151D01*
X32077007Y-64799606D01*
X31962993Y-64733780D01*
X31835826Y-64699705D01*
X31704174Y-64699705D01*
X31640587Y-64716743D01*
X31885907Y-63801203D01*
X31922272Y-63741543D01*
X31943683Y-63725910D01*
X31952829Y-63720630D01*
X32001250Y-63685275D01*
X32092884Y-63574295D01*
X32149539Y-63441993D01*
X32166626Y-63299088D01*
X32142758Y-63157159D01*
X32118504Y-63102331D01*
X32118502Y-63102327D01*
X32118500Y-63102323D01*
X32066063Y-63011500D01*
X32049590Y-62943600D01*
X32072442Y-62877573D01*
X32127364Y-62834382D01*
X32173450Y-62825500D01*
X32606705Y-62825500D01*
X32673744Y-62845185D01*
X32694386Y-62861819D01*
X34638181Y-64805614D01*
X34671666Y-64866937D01*
X34674500Y-64893295D01*
X34674500Y-66918695D01*
X34674500Y-67081305D01*
X34674500Y-67081307D01*
X34674499Y-67081307D01*
X34706222Y-67240783D01*
X34706225Y-67240793D01*
X34768450Y-67391019D01*
X34768452Y-67391023D01*
X34858788Y-67526220D01*
X34858794Y-67526228D01*
X35744885Y-68412319D01*
X35749223Y-68420264D01*
X35756470Y-68425689D01*
X35765705Y-68450448D01*
X35778370Y-68473642D01*
X35777724Y-68482671D01*
X35780888Y-68491153D01*
X35775271Y-68516975D01*
X35773386Y-68543334D01*
X35767568Y-68552386D01*
X35766037Y-68559426D01*
X35744886Y-68587680D01*
X35694387Y-68638180D01*
X35633064Y-68671666D01*
X35606705Y-68674500D01*
X35065047Y-68674500D01*
X34998008Y-68654815D01*
X34977366Y-68638181D01*
X34847213Y-68508028D01*
X34681613Y-68387715D01*
X34681612Y-68387714D01*
X34681610Y-68387713D01*
X34624653Y-68358691D01*
X34499223Y-68294781D01*
X34304534Y-68231522D01*
X34129995Y-68203878D01*
X34102352Y-68199500D01*
X33897648Y-68199500D01*
X33873329Y-68203351D01*
X33695465Y-68231522D01*
X33500776Y-68294781D01*
X33318386Y-68387715D01*
X33152786Y-68508028D01*
X33008028Y-68652786D01*
X32887715Y-68818386D01*
X32794781Y-69000776D01*
X32731522Y-69195465D01*
X32699500Y-69397648D01*
X32699500Y-69602351D01*
X32731522Y-69804534D01*
X32794781Y-69999223D01*
X32887715Y-70181613D01*
X33008028Y-70347213D01*
X33152786Y-70491971D01*
X33307749Y-70604556D01*
X33318390Y-70612287D01*
X33434607Y-70671503D01*
X33500776Y-70705218D01*
X33500778Y-70705218D01*
X33500781Y-70705220D01*
X33605137Y-70739127D01*
X33695465Y-70768477D01*
X33796557Y-70784488D01*
X33897648Y-70800500D01*
X33897649Y-70800500D01*
X34102351Y-70800500D01*
X34102352Y-70800500D01*
X34304534Y-70768477D01*
X34499219Y-70705220D01*
X34681610Y-70612287D01*
X34774590Y-70544732D01*
X34847213Y-70491971D01*
X34847215Y-70491968D01*
X34847219Y-70491966D01*
X34977366Y-70361819D01*
X35038689Y-70328334D01*
X35065047Y-70325500D01*
X36081307Y-70325500D01*
X36188598Y-70304157D01*
X36240789Y-70293776D01*
X36391021Y-70231548D01*
X36391023Y-70231547D01*
X36465759Y-70181610D01*
X36526225Y-70141208D01*
X37100501Y-69566932D01*
X37161824Y-69533447D01*
X37188182Y-69530613D01*
X38668942Y-69530613D01*
X38735981Y-69550298D01*
X38774479Y-69589514D01*
X38857288Y-69723769D01*
X38981344Y-69847825D01*
X39130666Y-69939927D01*
X39297203Y-69995112D01*
X39399991Y-70005613D01*
X40600008Y-70005612D01*
X40702797Y-69995112D01*
X40869334Y-69939927D01*
X41018656Y-69847825D01*
X41142712Y-69723769D01*
X41225519Y-69589515D01*
X41277467Y-69542792D01*
X41331058Y-69530613D01*
X42376194Y-69530613D01*
X42483485Y-69509270D01*
X42535676Y-69498889D01*
X42685908Y-69436661D01*
X42685910Y-69436660D01*
X42753056Y-69391793D01*
X42821112Y-69346321D01*
X44141208Y-68026225D01*
X44231548Y-67891021D01*
X44293776Y-67740789D01*
X44325500Y-67581305D01*
X44325500Y-67418695D01*
X44325500Y-54893295D01*
X44331470Y-54872962D01*
X44331216Y-54871194D01*
X44333382Y-54866449D01*
X44334144Y-54863854D01*
X44340668Y-54833868D01*
X44344422Y-54828852D01*
X44345185Y-54826256D01*
X44361819Y-54805614D01*
X48305614Y-50861819D01*
X48366937Y-50828334D01*
X48393295Y-50825500D01*
X53510500Y-50825500D01*
X53577539Y-50845185D01*
X53623294Y-50897989D01*
X53634500Y-50949500D01*
X53634500Y-53867269D01*
X53614815Y-53934308D01*
X53583392Y-53967582D01*
X53580214Y-53969891D01*
X53580205Y-53969898D01*
X53429890Y-54120213D01*
X53304949Y-54292182D01*
X53300202Y-54301499D01*
X53252227Y-54352293D01*
X53184405Y-54369087D01*
X53118271Y-54346548D01*
X53079234Y-54301495D01*
X53074626Y-54292452D01*
X53035270Y-54238282D01*
X53035269Y-54238282D01*
X52402962Y-54870590D01*
X52385925Y-54807007D01*
X52320099Y-54692993D01*
X52227007Y-54599901D01*
X52112993Y-54534075D01*
X52049409Y-54517037D01*
X52681716Y-53884728D01*
X52627550Y-53845375D01*
X52438217Y-53748904D01*
X52236129Y-53683242D01*
X52026246Y-53650000D01*
X51813754Y-53650000D01*
X51603872Y-53683242D01*
X51603869Y-53683242D01*
X51401782Y-53748904D01*
X51212439Y-53845380D01*
X51158282Y-53884727D01*
X51158282Y-53884728D01*
X51790591Y-54517037D01*
X51727007Y-54534075D01*
X51612993Y-54599901D01*
X51519901Y-54692993D01*
X51454075Y-54807007D01*
X51437037Y-54870591D01*
X50804728Y-54238282D01*
X50804727Y-54238282D01*
X50765380Y-54292440D01*
X50765376Y-54292446D01*
X50760760Y-54301505D01*
X50712781Y-54352297D01*
X50644959Y-54369087D01*
X50578826Y-54346543D01*
X50539794Y-54301493D01*
X50535051Y-54292184D01*
X50535049Y-54292181D01*
X50535048Y-54292179D01*
X50410109Y-54120213D01*
X50310560Y-54020664D01*
X50259792Y-53969896D01*
X50249875Y-53962691D01*
X50243845Y-53956930D01*
X50230397Y-53933586D01*
X50213946Y-53912249D01*
X50211934Y-53901537D01*
X50208968Y-53896388D01*
X50209379Y-53887927D01*
X50205500Y-53867269D01*
X50205500Y-51918692D01*
X50173777Y-51759216D01*
X50173776Y-51759215D01*
X50173776Y-51759211D01*
X50120679Y-51631023D01*
X50111549Y-51608980D01*
X50111547Y-51608976D01*
X50021211Y-51473779D01*
X50021205Y-51473771D01*
X49906228Y-51358794D01*
X49906220Y-51358788D01*
X49771023Y-51268452D01*
X49771019Y-51268450D01*
X49620793Y-51206225D01*
X49620783Y-51206222D01*
X49461307Y-51174500D01*
X49461305Y-51174500D01*
X49298695Y-51174500D01*
X49298693Y-51174500D01*
X49139216Y-51206222D01*
X49139206Y-51206225D01*
X48988980Y-51268450D01*
X48988976Y-51268452D01*
X48853779Y-51358788D01*
X48853771Y-51358794D01*
X48738794Y-51473771D01*
X48738788Y-51473779D01*
X48648452Y-51608976D01*
X48648450Y-51608980D01*
X48586225Y-51759206D01*
X48586222Y-51759216D01*
X48554500Y-51918692D01*
X48554500Y-53867269D01*
X48534815Y-53934308D01*
X48503392Y-53967582D01*
X48500214Y-53969891D01*
X48500205Y-53969898D01*
X48349890Y-54120213D01*
X48224951Y-54292179D01*
X48128444Y-54481585D01*
X48062753Y-54683760D01*
X48029500Y-54893713D01*
X48029500Y-55106286D01*
X48062753Y-55316239D01*
X48128444Y-55518414D01*
X48224951Y-55707820D01*
X48349890Y-55879786D01*
X48500213Y-56030109D01*
X48672179Y-56155048D01*
X48672181Y-56155049D01*
X48672184Y-56155051D01*
X48861588Y-56251557D01*
X49063757Y-56317246D01*
X49273713Y-56350500D01*
X49273714Y-56350500D01*
X49486286Y-56350500D01*
X49486287Y-56350500D01*
X49696243Y-56317246D01*
X49898412Y-56251557D01*
X50087816Y-56155051D01*
X50174138Y-56092335D01*
X50259786Y-56030109D01*
X50259788Y-56030106D01*
X50259792Y-56030104D01*
X50410104Y-55879792D01*
X50410106Y-55879788D01*
X50410109Y-55879786D01*
X50495890Y-55761717D01*
X50535051Y-55707816D01*
X50539793Y-55698508D01*
X50587763Y-55647711D01*
X50655583Y-55630911D01*
X50721719Y-55653445D01*
X50760763Y-55698500D01*
X50765373Y-55707547D01*
X50804728Y-55761716D01*
X51437037Y-55129408D01*
X51454075Y-55192993D01*
X51519901Y-55307007D01*
X51612993Y-55400099D01*
X51727007Y-55465925D01*
X51790590Y-55482962D01*
X51158282Y-56115269D01*
X51158282Y-56115270D01*
X51212449Y-56154624D01*
X51401782Y-56251095D01*
X51603870Y-56316757D01*
X51813754Y-56350000D01*
X52026246Y-56350000D01*
X52236127Y-56316757D01*
X52236130Y-56316757D01*
X52438217Y-56251095D01*
X52627554Y-56154622D01*
X52681716Y-56115270D01*
X52681717Y-56115270D01*
X52049408Y-55482962D01*
X52112993Y-55465925D01*
X52227007Y-55400099D01*
X52320099Y-55307007D01*
X52385925Y-55192993D01*
X52402962Y-55129408D01*
X53035270Y-55761717D01*
X53035270Y-55761716D01*
X53074622Y-55707555D01*
X53079232Y-55698507D01*
X53127205Y-55647709D01*
X53195025Y-55630912D01*
X53261161Y-55653447D01*
X53300204Y-55698504D01*
X53304949Y-55707817D01*
X53429890Y-55879786D01*
X53580213Y-56030109D01*
X53752179Y-56155048D01*
X53752181Y-56155049D01*
X53752184Y-56155051D01*
X53941588Y-56251557D01*
X54143757Y-56317246D01*
X54353713Y-56350500D01*
X54353714Y-56350500D01*
X54566286Y-56350500D01*
X54566287Y-56350500D01*
X54776243Y-56317246D01*
X54978412Y-56251557D01*
X55167816Y-56155051D01*
X55339792Y-56030104D01*
X55453329Y-55916566D01*
X55514648Y-55883084D01*
X55584340Y-55888068D01*
X55640274Y-55929939D01*
X55657189Y-55960917D01*
X55706202Y-56092328D01*
X55706206Y-56092335D01*
X55792452Y-56207544D01*
X55792455Y-56207547D01*
X55907664Y-56293793D01*
X55907671Y-56293797D01*
X56042517Y-56344091D01*
X56042516Y-56344091D01*
X56049444Y-56344835D01*
X56102127Y-56350500D01*
X57897872Y-56350499D01*
X57957483Y-56344091D01*
X58092331Y-56293796D01*
X58207546Y-56207546D01*
X58293796Y-56092331D01*
X58344091Y-55957483D01*
X58350500Y-55897873D01*
X58350499Y-54102128D01*
X58344091Y-54042517D01*
X58342810Y-54039083D01*
X58293797Y-53907671D01*
X58293793Y-53907664D01*
X58207547Y-53792455D01*
X58207544Y-53792452D01*
X58092335Y-53706206D01*
X58092328Y-53706202D01*
X57957482Y-53655908D01*
X57957483Y-53655908D01*
X57897883Y-53649501D01*
X57897881Y-53649500D01*
X57897873Y-53649500D01*
X57897865Y-53649500D01*
X57724500Y-53649500D01*
X57657461Y-53629815D01*
X57611706Y-53577011D01*
X57600500Y-53525500D01*
X57600500Y-51089060D01*
X57600501Y-51089047D01*
X57600501Y-50920944D01*
X57583846Y-50858788D01*
X57559577Y-50768216D01*
X57499001Y-50663294D01*
X57480524Y-50631290D01*
X57480518Y-50631282D01*
X56636819Y-49787583D01*
X56603334Y-49726260D01*
X56600500Y-49699902D01*
X56600500Y-47589060D01*
X56600501Y-47589047D01*
X56600501Y-47420944D01*
X56600501Y-47420943D01*
X56559577Y-47268216D01*
X56546730Y-47245964D01*
X56480524Y-47131290D01*
X56480518Y-47131282D01*
X56044283Y-46695047D01*
X55487589Y-46138354D01*
X55487588Y-46138352D01*
X55368717Y-46019481D01*
X55368716Y-46019480D01*
X55281904Y-45969360D01*
X55281904Y-45969359D01*
X55281900Y-45969358D01*
X55231785Y-45940423D01*
X55079057Y-45899499D01*
X54920943Y-45899499D01*
X54913347Y-45899499D01*
X54913331Y-45899500D01*
X53586670Y-45899500D01*
X53586654Y-45899499D01*
X53579058Y-45899499D01*
X53420943Y-45899499D01*
X53349304Y-45918695D01*
X53268214Y-45940423D01*
X53268209Y-45940426D01*
X53131290Y-46019475D01*
X53131282Y-46019481D01*
X52624217Y-46526546D01*
X52624214Y-46526548D01*
X52624215Y-46526549D01*
X52519477Y-46631287D01*
X52482666Y-46695047D01*
X52432099Y-46743263D01*
X52399792Y-46752958D01*
X52400068Y-46754124D01*
X52392520Y-46755907D01*
X52257671Y-46806202D01*
X52257664Y-46806206D01*
X52142455Y-46892452D01*
X52142452Y-46892455D01*
X52056206Y-47007664D01*
X52056202Y-47007671D01*
X52005908Y-47142517D01*
X51999501Y-47202116D01*
X51999500Y-47202135D01*
X51999500Y-48797870D01*
X51999501Y-48797876D01*
X52005908Y-48857483D01*
X52059303Y-49000641D01*
X52057724Y-49001229D01*
X52070370Y-49059338D01*
X52045957Y-49124804D01*
X51990026Y-49166679D01*
X51946685Y-49174500D01*
X47918693Y-49174500D01*
X47759216Y-49206222D01*
X47759206Y-49206225D01*
X47608980Y-49268450D01*
X47608976Y-49268452D01*
X47473779Y-49358788D01*
X47473771Y-49358794D01*
X44095861Y-52736706D01*
X42973775Y-53858792D01*
X42944640Y-53887927D01*
X42858790Y-53973776D01*
X42858788Y-53973779D01*
X42768452Y-54108976D01*
X42768450Y-54108980D01*
X42706225Y-54259206D01*
X42706222Y-54259216D01*
X42674500Y-54418692D01*
X42674500Y-67106705D01*
X42654815Y-67173744D01*
X42638181Y-67194386D01*
X41989273Y-67843294D01*
X41927950Y-67876779D01*
X41901592Y-67879613D01*
X41331058Y-67879613D01*
X41264019Y-67859928D01*
X41225519Y-67820710D01*
X41142712Y-67686457D01*
X41018656Y-67562401D01*
X40869334Y-67470299D01*
X40807558Y-67449828D01*
X40750115Y-67410056D01*
X40723292Y-67345540D01*
X40722946Y-67322393D01*
X40725921Y-67284586D01*
X40046447Y-66605113D01*
X40052661Y-66605113D01*
X40154394Y-66577854D01*
X40245606Y-66525193D01*
X40320080Y-66450719D01*
X40372741Y-66359507D01*
X40400000Y-66257774D01*
X40400000Y-66251560D01*
X41079474Y-66931034D01*
X41111859Y-66886462D01*
X41204755Y-66704144D01*
X41267990Y-66509530D01*
X41300000Y-66307430D01*
X41300000Y-66102795D01*
X41267990Y-65900695D01*
X41204755Y-65706081D01*
X41111859Y-65523763D01*
X41079474Y-65479190D01*
X41079474Y-65479189D01*
X40400000Y-66158664D01*
X40400000Y-66152452D01*
X40372741Y-66050719D01*
X40320080Y-65959507D01*
X40245606Y-65885033D01*
X40154394Y-65832372D01*
X40052661Y-65805113D01*
X40046446Y-65805113D01*
X40725922Y-65125637D01*
X40725921Y-65125636D01*
X40681359Y-65093260D01*
X40681350Y-65093254D01*
X40499031Y-65000357D01*
X40304417Y-64937122D01*
X40102317Y-64905113D01*
X39897683Y-64905113D01*
X39695582Y-64937122D01*
X39500968Y-65000357D01*
X39318644Y-65093256D01*
X39274077Y-65125636D01*
X39274077Y-65125637D01*
X39953554Y-65805113D01*
X39947339Y-65805113D01*
X39845606Y-65832372D01*
X39754394Y-65885033D01*
X39679920Y-65959507D01*
X39627259Y-66050719D01*
X39600000Y-66152452D01*
X39600000Y-66158666D01*
X38920524Y-65479190D01*
X38920523Y-65479190D01*
X38888143Y-65523757D01*
X38795244Y-65706081D01*
X38732009Y-65900695D01*
X38700000Y-66102795D01*
X38700000Y-66307430D01*
X38732009Y-66509530D01*
X38795244Y-66704144D01*
X38888141Y-66886463D01*
X38888147Y-66886472D01*
X38920523Y-66931034D01*
X38920524Y-66931035D01*
X39600000Y-66251559D01*
X39600000Y-66257774D01*
X39627259Y-66359507D01*
X39679920Y-66450719D01*
X39754394Y-66525193D01*
X39845606Y-66577854D01*
X39947339Y-66605113D01*
X39953553Y-66605113D01*
X39274076Y-67284587D01*
X39277052Y-67322395D01*
X39262687Y-67390772D01*
X39213636Y-67440528D01*
X39192440Y-67449828D01*
X39130672Y-67470297D01*
X39130663Y-67470300D01*
X38981342Y-67562402D01*
X38857289Y-67686455D01*
X38857288Y-67686457D01*
X38823774Y-67740793D01*
X38774481Y-67820710D01*
X38722533Y-67867434D01*
X38668942Y-67879613D01*
X37598408Y-67879613D01*
X37531369Y-67859928D01*
X37510727Y-67843294D01*
X36361819Y-66694386D01*
X36328334Y-66633063D01*
X36325500Y-66606705D01*
X36325500Y-64418692D01*
X36293777Y-64259216D01*
X36293776Y-64259215D01*
X36293776Y-64259211D01*
X36256816Y-64169981D01*
X36231549Y-64108980D01*
X36231547Y-64108976D01*
X36141211Y-63973779D01*
X36141209Y-63973776D01*
X36141208Y-63973775D01*
X36026225Y-63858792D01*
X34868345Y-62700912D01*
X33526228Y-61358794D01*
X33526220Y-61358788D01*
X33391023Y-61268452D01*
X33391019Y-61268450D01*
X33240793Y-61206225D01*
X33240783Y-61206222D01*
X33081307Y-61174500D01*
X33081305Y-61174500D01*
X31581306Y-61174500D01*
X31418695Y-61174500D01*
X31418693Y-61174500D01*
X31259216Y-61206222D01*
X31259206Y-61206225D01*
X31108982Y-61268450D01*
X31017632Y-61329487D01*
X30950954Y-61350364D01*
X30934021Y-61349507D01*
X30799088Y-61333373D01*
X30799086Y-61333373D01*
X30657160Y-61357241D01*
X30602323Y-61381499D01*
X29047171Y-62279369D01*
X29047167Y-62279371D01*
X28998751Y-62314724D01*
X28998747Y-62314728D01*
X28907116Y-62425704D01*
X28907114Y-62425706D01*
X28850461Y-62558005D01*
X28833373Y-62700912D01*
X26603967Y-62700912D01*
X21359800Y-53557236D01*
X21343523Y-53489288D01*
X21359042Y-53435195D01*
X21740808Y-52749974D01*
X28499500Y-52749974D01*
X28499500Y-53250025D01*
X28535173Y-53748796D01*
X28606337Y-54243760D01*
X28712627Y-54732365D01*
X28712630Y-54732375D01*
X28753911Y-54872962D01*
X28853510Y-55212164D01*
X28892328Y-55316239D01*
X29028260Y-55680690D01*
X29028262Y-55680693D01*
X29235978Y-56135530D01*
X29235982Y-56135537D01*
X29475630Y-56574420D01*
X29475638Y-56574433D01*
X29745964Y-56995069D01*
X29745980Y-56995093D01*
X30045637Y-57395389D01*
X30273619Y-57658493D01*
X30373106Y-57773307D01*
X30373115Y-57773316D01*
X30373127Y-57773329D01*
X30726670Y-58126872D01*
X30726683Y-58126884D01*
X30726693Y-58126894D01*
X30850923Y-58234540D01*
X31104610Y-58454362D01*
X31504906Y-58754019D01*
X31504930Y-58754035D01*
X31925566Y-59024361D01*
X31925579Y-59024369D01*
X32364462Y-59264017D01*
X32364469Y-59264021D01*
X32819306Y-59471737D01*
X32819309Y-59471739D01*
X32819316Y-59471741D01*
X32819317Y-59471742D01*
X33287836Y-59646490D01*
X33767624Y-59787369D01*
X33767634Y-59787372D01*
X34256239Y-59893662D01*
X34256246Y-59893663D01*
X34751204Y-59964827D01*
X35249977Y-60000500D01*
X35750023Y-60000500D01*
X36248796Y-59964827D01*
X36743754Y-59893663D01*
X36743755Y-59893662D01*
X36743760Y-59893662D01*
X37232365Y-59787372D01*
X37232368Y-59787371D01*
X37232373Y-59787370D01*
X37712164Y-59646490D01*
X38180683Y-59471742D01*
X38387437Y-59377320D01*
X38635530Y-59264021D01*
X38635534Y-59264018D01*
X38635542Y-59264015D01*
X39074423Y-59024368D01*
X39495089Y-58754022D01*
X39662528Y-58628679D01*
X39895389Y-58454362D01*
X39912131Y-58439854D01*
X40273307Y-58126894D01*
X40626894Y-57773307D01*
X40954355Y-57395397D01*
X40954354Y-57395397D01*
X40954362Y-57395389D01*
X41254019Y-56995093D01*
X41254035Y-56995069D01*
X41434504Y-56714254D01*
X41524368Y-56574423D01*
X41764015Y-56135542D01*
X41764018Y-56135534D01*
X41764021Y-56135530D01*
X41959349Y-55707820D01*
X41971742Y-55680683D01*
X42146490Y-55212164D01*
X42287370Y-54732373D01*
X42297946Y-54683757D01*
X42393662Y-54243760D01*
X42411426Y-54120208D01*
X42464827Y-53748796D01*
X42500500Y-53250023D01*
X42500500Y-52749977D01*
X42464827Y-52251204D01*
X42393663Y-51756246D01*
X42393662Y-51756239D01*
X42287372Y-51267634D01*
X42287369Y-51267624D01*
X42276845Y-51231784D01*
X42146490Y-50787836D01*
X41971742Y-50319317D01*
X41971741Y-50319316D01*
X41971739Y-50319309D01*
X41971737Y-50319306D01*
X41764021Y-49864469D01*
X41764017Y-49864462D01*
X41524369Y-49425579D01*
X41524361Y-49425566D01*
X41254035Y-49004930D01*
X41254019Y-49004906D01*
X40954362Y-48604610D01*
X40680442Y-48288491D01*
X40626894Y-48226693D01*
X40626884Y-48226683D01*
X40626872Y-48226670D01*
X40273329Y-47873127D01*
X40273316Y-47873115D01*
X40273307Y-47873106D01*
X40055268Y-47684174D01*
X39895389Y-47545637D01*
X39495093Y-47245980D01*
X39495069Y-47245964D01*
X39074433Y-46975638D01*
X39074420Y-46975630D01*
X38635537Y-46735982D01*
X38635530Y-46735978D01*
X38180693Y-46528262D01*
X38180690Y-46528260D01*
X37855858Y-46407105D01*
X37712164Y-46353510D01*
X37555274Y-46307442D01*
X37232375Y-46212630D01*
X37232365Y-46212627D01*
X36743760Y-46106337D01*
X36248796Y-46035173D01*
X35750025Y-45999500D01*
X35750023Y-45999500D01*
X35249977Y-45999500D01*
X35249974Y-45999500D01*
X34751203Y-46035173D01*
X34256239Y-46106337D01*
X33767634Y-46212627D01*
X33767624Y-46212630D01*
X33287853Y-46353505D01*
X33287836Y-46353510D01*
X33287826Y-46353513D01*
X33287825Y-46353514D01*
X32819309Y-46528260D01*
X32819306Y-46528262D01*
X32364469Y-46735978D01*
X32364462Y-46735982D01*
X31925579Y-46975630D01*
X31925566Y-46975638D01*
X31504930Y-47245964D01*
X31504906Y-47245980D01*
X31104610Y-47545637D01*
X30726696Y-47873103D01*
X30726670Y-47873127D01*
X30373127Y-48226670D01*
X30373103Y-48226696D01*
X30045637Y-48604610D01*
X29745980Y-49004906D01*
X29745964Y-49004930D01*
X29475638Y-49425566D01*
X29475630Y-49425579D01*
X29235982Y-49864462D01*
X29235978Y-49864469D01*
X29028262Y-50319306D01*
X29028260Y-50319309D01*
X28853514Y-50787825D01*
X28853505Y-50787853D01*
X28712630Y-51267624D01*
X28712627Y-51267634D01*
X28606337Y-51756239D01*
X28535173Y-52251203D01*
X28499500Y-52749974D01*
X21740808Y-52749974D01*
X26961940Y-43378711D01*
X58149500Y-43378711D01*
X58149500Y-43621288D01*
X58181161Y-43861785D01*
X58243947Y-44096104D01*
X58336773Y-44320205D01*
X58336776Y-44320212D01*
X58458064Y-44530289D01*
X58458066Y-44530292D01*
X58458067Y-44530293D01*
X58605733Y-44722736D01*
X58605739Y-44722743D01*
X58777256Y-44894260D01*
X58777262Y-44894265D01*
X58969711Y-45041936D01*
X59179788Y-45163224D01*
X59403900Y-45256054D01*
X59638211Y-45318838D01*
X59818586Y-45342584D01*
X59878711Y-45350500D01*
X59878712Y-45350500D01*
X60121289Y-45350500D01*
X60169388Y-45344167D01*
X60361789Y-45318838D01*
X60596100Y-45256054D01*
X60820212Y-45163224D01*
X61030289Y-45041936D01*
X61222738Y-44894265D01*
X61394265Y-44722738D01*
X61541936Y-44530289D01*
X61663224Y-44320212D01*
X61756054Y-44096100D01*
X61818838Y-43861789D01*
X61850500Y-43621288D01*
X61850500Y-43378712D01*
X61818838Y-43138211D01*
X61756054Y-42903900D01*
X61663224Y-42679788D01*
X61541936Y-42469711D01*
X61394265Y-42277262D01*
X61394260Y-42277256D01*
X61222743Y-42105739D01*
X61222736Y-42105733D01*
X61030293Y-41958067D01*
X61030292Y-41958066D01*
X61030289Y-41958064D01*
X60820212Y-41836776D01*
X60820205Y-41836773D01*
X60596104Y-41743947D01*
X60361785Y-41681161D01*
X60121289Y-41649500D01*
X60121288Y-41649500D01*
X59878712Y-41649500D01*
X59878711Y-41649500D01*
X59638214Y-41681161D01*
X59403895Y-41743947D01*
X59179794Y-41836773D01*
X59179785Y-41836777D01*
X58969706Y-41958067D01*
X58777263Y-42105733D01*
X58777256Y-42105739D01*
X58605739Y-42277256D01*
X58605733Y-42277263D01*
X58458067Y-42469706D01*
X58336777Y-42679785D01*
X58336773Y-42679794D01*
X58243947Y-42903895D01*
X58181161Y-43138214D01*
X58149500Y-43378711D01*
X26961940Y-43378711D01*
X33915675Y-30897648D01*
X41149500Y-30897648D01*
X41149500Y-31102351D01*
X41181522Y-31304534D01*
X41244781Y-31499223D01*
X41302447Y-31612396D01*
X41333320Y-31672989D01*
X41337715Y-31681613D01*
X41458028Y-31847213D01*
X41602786Y-31991971D01*
X41736401Y-32089046D01*
X41768390Y-32112287D01*
X41869912Y-32164015D01*
X41950776Y-32205218D01*
X41950778Y-32205218D01*
X41950781Y-32205220D01*
X42055137Y-32239127D01*
X42145465Y-32268477D01*
X42244893Y-32284225D01*
X42347648Y-32300500D01*
X42347649Y-32300500D01*
X42552351Y-32300500D01*
X42552352Y-32300500D01*
X42754534Y-32268477D01*
X42949219Y-32205220D01*
X43131610Y-32112287D01*
X43232407Y-32039054D01*
X43297213Y-31991971D01*
X43297215Y-31991968D01*
X43297219Y-31991966D01*
X43441966Y-31847219D01*
X43441968Y-31847215D01*
X43441971Y-31847213D01*
X43562284Y-31681614D01*
X43562285Y-31681613D01*
X43562287Y-31681610D01*
X43569117Y-31668204D01*
X43617091Y-31617409D01*
X43679602Y-31600500D01*
X44770398Y-31600500D01*
X44779005Y-31603027D01*
X44787883Y-31601739D01*
X44812008Y-31612718D01*
X44837437Y-31620185D01*
X44844989Y-31627727D01*
X44851477Y-31630680D01*
X44864186Y-31646898D01*
X44874625Y-31657323D01*
X44878029Y-31662605D01*
X44887713Y-31681610D01*
X44910441Y-31712894D01*
X44912318Y-31715805D01*
X44921264Y-31746127D01*
X44931889Y-31775906D01*
X44931414Y-31780526D01*
X44932091Y-31782819D01*
X44930684Y-31787632D01*
X44927866Y-31815075D01*
X44899499Y-31920943D01*
X44899499Y-32089046D01*
X44899500Y-32089059D01*
X44899500Y-34025500D01*
X44879815Y-34092539D01*
X44827011Y-34138294D01*
X44775501Y-34149500D01*
X44602130Y-34149500D01*
X44602123Y-34149501D01*
X44542516Y-34155908D01*
X44407671Y-34206202D01*
X44407664Y-34206206D01*
X44292455Y-34292452D01*
X44292452Y-34292455D01*
X44206206Y-34407664D01*
X44206202Y-34407671D01*
X44155908Y-34542517D01*
X44149501Y-34602116D01*
X44149501Y-34602123D01*
X44149500Y-34602135D01*
X44149500Y-34612690D01*
X44129815Y-34679729D01*
X44113181Y-34700371D01*
X43442962Y-35370590D01*
X43425925Y-35307007D01*
X43360099Y-35192993D01*
X43267007Y-35099901D01*
X43152993Y-35034075D01*
X43089409Y-35017037D01*
X43721716Y-34384728D01*
X43667550Y-34345375D01*
X43478217Y-34248904D01*
X43276129Y-34183242D01*
X43066246Y-34150000D01*
X42853754Y-34150000D01*
X42643872Y-34183242D01*
X42643869Y-34183242D01*
X42441782Y-34248904D01*
X42252439Y-34345380D01*
X42198282Y-34384727D01*
X42198282Y-34384728D01*
X42830591Y-35017037D01*
X42767007Y-35034075D01*
X42652993Y-35099901D01*
X42559901Y-35192993D01*
X42494075Y-35307007D01*
X42477037Y-35370591D01*
X41844728Y-34738282D01*
X41844727Y-34738282D01*
X41805380Y-34792439D01*
X41708904Y-34981782D01*
X41643242Y-35183869D01*
X41643242Y-35183872D01*
X41610000Y-35393753D01*
X41610000Y-35606246D01*
X41643242Y-35816127D01*
X41643242Y-35816130D01*
X41708904Y-36018217D01*
X41805375Y-36207550D01*
X41844728Y-36261716D01*
X42477037Y-35629408D01*
X42494075Y-35692993D01*
X42559901Y-35807007D01*
X42652993Y-35900099D01*
X42767007Y-35965925D01*
X42830590Y-35982962D01*
X42198282Y-36615269D01*
X42198282Y-36615270D01*
X42252449Y-36654624D01*
X42441782Y-36751095D01*
X42643870Y-36816757D01*
X42853754Y-36850000D01*
X43066246Y-36850000D01*
X43276127Y-36816757D01*
X43276130Y-36816757D01*
X43478217Y-36751095D01*
X43667554Y-36654622D01*
X43721716Y-36615270D01*
X43721717Y-36615270D01*
X43089408Y-35982962D01*
X43152993Y-35965925D01*
X43267007Y-35900099D01*
X43360099Y-35807007D01*
X43425925Y-35692993D01*
X43442962Y-35629409D01*
X44113181Y-36299628D01*
X44146666Y-36360951D01*
X44149500Y-36387300D01*
X44149500Y-36397865D01*
X44149501Y-36397876D01*
X44155908Y-36457483D01*
X44206202Y-36592328D01*
X44206206Y-36592335D01*
X44292452Y-36707544D01*
X44292455Y-36707547D01*
X44407664Y-36793793D01*
X44407671Y-36793797D01*
X44542517Y-36844091D01*
X44542516Y-36844091D01*
X44549444Y-36844835D01*
X44602127Y-36850500D01*
X46397872Y-36850499D01*
X46457483Y-36844091D01*
X46592331Y-36793796D01*
X46707546Y-36707546D01*
X46793796Y-36592331D01*
X46844091Y-36457483D01*
X46850500Y-36397873D01*
X46850499Y-34602128D01*
X46844091Y-34542517D01*
X46807617Y-34444726D01*
X46793798Y-34407673D01*
X46793793Y-34407664D01*
X46707547Y-34292455D01*
X46707544Y-34292452D01*
X46592335Y-34206206D01*
X46592328Y-34206202D01*
X46457482Y-34155908D01*
X46457483Y-34155908D01*
X46397883Y-34149501D01*
X46397881Y-34149500D01*
X46397873Y-34149500D01*
X46397865Y-34149500D01*
X46224500Y-34149500D01*
X46157461Y-34129815D01*
X46111706Y-34077011D01*
X46100500Y-34025500D01*
X46100500Y-32406698D01*
X46120185Y-32339659D01*
X46172989Y-32293904D01*
X46205098Y-32284226D01*
X46304534Y-32268477D01*
X46499219Y-32205220D01*
X46681610Y-32112287D01*
X46782407Y-32039054D01*
X46847213Y-31991971D01*
X46847215Y-31991968D01*
X46847219Y-31991966D01*
X46991966Y-31847219D01*
X46991968Y-31847215D01*
X46991971Y-31847213D01*
X47049365Y-31768215D01*
X47112287Y-31681610D01*
X47205220Y-31499219D01*
X47268477Y-31304534D01*
X47300500Y-31102352D01*
X47300500Y-30897648D01*
X51649500Y-30897648D01*
X51649500Y-31102351D01*
X51681522Y-31304534D01*
X51744781Y-31499223D01*
X51802447Y-31612396D01*
X51833320Y-31672989D01*
X51837715Y-31681613D01*
X51958028Y-31847213D01*
X52102786Y-31991971D01*
X52236401Y-32089046D01*
X52268390Y-32112287D01*
X52369912Y-32164015D01*
X52450776Y-32205218D01*
X52450778Y-32205218D01*
X52450781Y-32205220D01*
X52555137Y-32239127D01*
X52645465Y-32268477D01*
X52744893Y-32284225D01*
X52847648Y-32300500D01*
X52847649Y-32300500D01*
X53052351Y-32300500D01*
X53052352Y-32300500D01*
X53254534Y-32268477D01*
X53449219Y-32205220D01*
X53530088Y-32164014D01*
X53571333Y-32154112D01*
X53570998Y-32151561D01*
X53579054Y-32150500D01*
X53579057Y-32150500D01*
X53731784Y-32109576D01*
X53868716Y-32030519D01*
X53980519Y-31918716D01*
X54059576Y-31781784D01*
X54083526Y-31692403D01*
X54119891Y-31632745D01*
X54182738Y-31602217D01*
X54203300Y-31600500D01*
X55250902Y-31600500D01*
X55265125Y-31604676D01*
X55279930Y-31603946D01*
X55297972Y-31614321D01*
X55317941Y-31620185D01*
X55327646Y-31631386D01*
X55340499Y-31638777D01*
X55350068Y-31657262D01*
X55363696Y-31672989D01*
X55365805Y-31687659D01*
X55372621Y-31700825D01*
X55370677Y-31721546D01*
X55373640Y-31742147D01*
X55367370Y-31756822D01*
X55366098Y-31770390D01*
X55353213Y-31789960D01*
X55348503Y-31800985D01*
X55343880Y-31806883D01*
X55294481Y-31856283D01*
X55268953Y-31900500D01*
X55264575Y-31908082D01*
X55264574Y-31908084D01*
X55215424Y-31993213D01*
X55205428Y-32030519D01*
X55174500Y-32145942D01*
X55174500Y-32145944D01*
X55174500Y-32314045D01*
X55174501Y-32314058D01*
X55174501Y-34025500D01*
X55154816Y-34092539D01*
X55102012Y-34138294D01*
X55050502Y-34149500D01*
X54877131Y-34149500D01*
X54877124Y-34149501D01*
X54817517Y-34155908D01*
X54682672Y-34206202D01*
X54682665Y-34206206D01*
X54567456Y-34292452D01*
X54567453Y-34292455D01*
X54481207Y-34407664D01*
X54481203Y-34407671D01*
X54430909Y-34542517D01*
X54424502Y-34602116D01*
X54424502Y-34602123D01*
X54424501Y-34602135D01*
X54424501Y-34612690D01*
X54404816Y-34679729D01*
X54388182Y-34700371D01*
X53717963Y-35370590D01*
X53700926Y-35307007D01*
X53635100Y-35192993D01*
X53542008Y-35099901D01*
X53427994Y-35034075D01*
X53364410Y-35017037D01*
X53996717Y-34384728D01*
X53942551Y-34345375D01*
X53753218Y-34248904D01*
X53551130Y-34183242D01*
X53341247Y-34150000D01*
X53128755Y-34150000D01*
X52918873Y-34183242D01*
X52918870Y-34183242D01*
X52716783Y-34248904D01*
X52527440Y-34345380D01*
X52473283Y-34384727D01*
X52473283Y-34384728D01*
X53105592Y-35017037D01*
X53042008Y-35034075D01*
X52927994Y-35099901D01*
X52834902Y-35192993D01*
X52769076Y-35307007D01*
X52752038Y-35370591D01*
X52119729Y-34738282D01*
X52119728Y-34738282D01*
X52080381Y-34792439D01*
X51983905Y-34981782D01*
X51918243Y-35183869D01*
X51918243Y-35183872D01*
X51885001Y-35393753D01*
X51885001Y-35606246D01*
X51918243Y-35816127D01*
X51918243Y-35816130D01*
X51983905Y-36018217D01*
X52080376Y-36207550D01*
X52119729Y-36261716D01*
X52752038Y-35629408D01*
X52769076Y-35692993D01*
X52834902Y-35807007D01*
X52927994Y-35900099D01*
X53042008Y-35965925D01*
X53105591Y-35982962D01*
X52473283Y-36615269D01*
X52473283Y-36615270D01*
X52527450Y-36654624D01*
X52716783Y-36751095D01*
X52918871Y-36816757D01*
X53128755Y-36850000D01*
X53341247Y-36850000D01*
X53551128Y-36816757D01*
X53551131Y-36816757D01*
X53753218Y-36751095D01*
X53942555Y-36654622D01*
X53996717Y-36615270D01*
X53996718Y-36615270D01*
X53364409Y-35982962D01*
X53427994Y-35965925D01*
X53542008Y-35900099D01*
X53635100Y-35807007D01*
X53700926Y-35692993D01*
X53717963Y-35629408D01*
X54388182Y-36299628D01*
X54421667Y-36360951D01*
X54424501Y-36387300D01*
X54424501Y-36397865D01*
X54424502Y-36397876D01*
X54430909Y-36457483D01*
X54481203Y-36592328D01*
X54481207Y-36592335D01*
X54567453Y-36707544D01*
X54567456Y-36707547D01*
X54682665Y-36793793D01*
X54682672Y-36793797D01*
X54817518Y-36844091D01*
X54817517Y-36844091D01*
X54824445Y-36844835D01*
X54877128Y-36850500D01*
X56672873Y-36850499D01*
X56732484Y-36844091D01*
X56867332Y-36793796D01*
X56982547Y-36707546D01*
X57068797Y-36592331D01*
X57119092Y-36457483D01*
X57125501Y-36397873D01*
X57125500Y-34602128D01*
X57119092Y-34542517D01*
X57094028Y-34475318D01*
X57068798Y-34407671D01*
X57068794Y-34407664D01*
X56982548Y-34292455D01*
X56982545Y-34292452D01*
X56867336Y-34206206D01*
X56867329Y-34206202D01*
X56732483Y-34155908D01*
X56732484Y-34155908D01*
X56672884Y-34149501D01*
X56672882Y-34149500D01*
X56672874Y-34149500D01*
X56672866Y-34149500D01*
X56499501Y-34149500D01*
X56432462Y-34129815D01*
X56386707Y-34077011D01*
X56375501Y-34025500D01*
X56375501Y-32525096D01*
X56384145Y-32495655D01*
X56390669Y-32465669D01*
X56394423Y-32460653D01*
X56395186Y-32458057D01*
X56411820Y-32437415D01*
X56512416Y-32336819D01*
X56573739Y-32303334D01*
X56600097Y-32300500D01*
X56602351Y-32300500D01*
X56602352Y-32300500D01*
X56804534Y-32268477D01*
X56999219Y-32205220D01*
X57181610Y-32112287D01*
X57282407Y-32039054D01*
X57347213Y-31991971D01*
X57347215Y-31991968D01*
X57347219Y-31991966D01*
X57491966Y-31847219D01*
X57491968Y-31847215D01*
X57491971Y-31847213D01*
X57549365Y-31768215D01*
X57612287Y-31681610D01*
X57705220Y-31499219D01*
X57768477Y-31304534D01*
X57800500Y-31102352D01*
X57800500Y-30897648D01*
X57768477Y-30695466D01*
X57705220Y-30500781D01*
X57705218Y-30500778D01*
X57705218Y-30500776D01*
X57671503Y-30434607D01*
X57612287Y-30318390D01*
X57604556Y-30307749D01*
X57491971Y-30152786D01*
X57347213Y-30008028D01*
X57181613Y-29887715D01*
X57181612Y-29887714D01*
X57181610Y-29887713D01*
X57124653Y-29858691D01*
X56999223Y-29794781D01*
X56804534Y-29731522D01*
X56629995Y-29703878D01*
X56602352Y-29699500D01*
X56397648Y-29699500D01*
X56373329Y-29703351D01*
X56195465Y-29731522D01*
X56000776Y-29794781D01*
X55818386Y-29887715D01*
X55652786Y-30008028D01*
X55508028Y-30152786D01*
X55387715Y-30318385D01*
X55380883Y-30331795D01*
X55332909Y-30382591D01*
X55270398Y-30399500D01*
X54179602Y-30399500D01*
X54112563Y-30379815D01*
X54069117Y-30331795D01*
X54062284Y-30318385D01*
X53941971Y-30152786D01*
X53797213Y-30008028D01*
X53631613Y-29887715D01*
X53631612Y-29887714D01*
X53631610Y-29887713D01*
X53574653Y-29858691D01*
X53449223Y-29794781D01*
X53254534Y-29731522D01*
X53079995Y-29703878D01*
X53052352Y-29699500D01*
X52847648Y-29699500D01*
X52823329Y-29703351D01*
X52645465Y-29731522D01*
X52450776Y-29794781D01*
X52268386Y-29887715D01*
X52102786Y-30008028D01*
X51958028Y-30152786D01*
X51837715Y-30318386D01*
X51744781Y-30500776D01*
X51681522Y-30695465D01*
X51649500Y-30897648D01*
X47300500Y-30897648D01*
X47268477Y-30695466D01*
X47205220Y-30500781D01*
X47205218Y-30500778D01*
X47205218Y-30500776D01*
X47171503Y-30434607D01*
X47112287Y-30318390D01*
X47104556Y-30307749D01*
X46991971Y-30152786D01*
X46847213Y-30008028D01*
X46681613Y-29887715D01*
X46681612Y-29887714D01*
X46681610Y-29887713D01*
X46624653Y-29858691D01*
X46499223Y-29794781D01*
X46304534Y-29731522D01*
X46129995Y-29703878D01*
X46102352Y-29699500D01*
X45897648Y-29699500D01*
X45873329Y-29703351D01*
X45695465Y-29731522D01*
X45500776Y-29794781D01*
X45318386Y-29887715D01*
X45152786Y-30008028D01*
X45008028Y-30152786D01*
X44887715Y-30318385D01*
X44880883Y-30331795D01*
X44832909Y-30382591D01*
X44770398Y-30399500D01*
X43679602Y-30399500D01*
X43612563Y-30379815D01*
X43569117Y-30331795D01*
X43562284Y-30318385D01*
X43441971Y-30152786D01*
X43297213Y-30008028D01*
X43131613Y-29887715D01*
X43131612Y-29887714D01*
X43131610Y-29887713D01*
X43074653Y-29858691D01*
X42949223Y-29794781D01*
X42754534Y-29731522D01*
X42579995Y-29703878D01*
X42552352Y-29699500D01*
X42347648Y-29699500D01*
X42323329Y-29703351D01*
X42145465Y-29731522D01*
X41950776Y-29794781D01*
X41768386Y-29887715D01*
X41602786Y-30008028D01*
X41458028Y-30152786D01*
X41337715Y-30318386D01*
X41244781Y-30500776D01*
X41181522Y-30695465D01*
X41149500Y-30897648D01*
X33915675Y-30897648D01*
X39576247Y-20737648D01*
X41149500Y-20737648D01*
X41149500Y-20942351D01*
X41181522Y-21144534D01*
X41244781Y-21339223D01*
X41337715Y-21521613D01*
X41458028Y-21687213D01*
X41602786Y-21831971D01*
X41757749Y-21944556D01*
X41768390Y-21952287D01*
X41884607Y-22011503D01*
X41950776Y-22045218D01*
X41950778Y-22045218D01*
X41950781Y-22045220D01*
X42055137Y-22079127D01*
X42145465Y-22108477D01*
X42246557Y-22124488D01*
X42347648Y-22140500D01*
X42347649Y-22140500D01*
X42552351Y-22140500D01*
X42552352Y-22140500D01*
X42754534Y-22108477D01*
X42949219Y-22045220D01*
X43131610Y-21952287D01*
X43227718Y-21882461D01*
X43297213Y-21831971D01*
X43297215Y-21831968D01*
X43297219Y-21831966D01*
X43427366Y-21701819D01*
X43488689Y-21668334D01*
X43515047Y-21665500D01*
X44934953Y-21665500D01*
X45001992Y-21685185D01*
X45022634Y-21701819D01*
X45152786Y-21831971D01*
X45307749Y-21944556D01*
X45318390Y-21952287D01*
X45434607Y-22011503D01*
X45500776Y-22045218D01*
X45500778Y-22045218D01*
X45500781Y-22045220D01*
X45605137Y-22079127D01*
X45695465Y-22108477D01*
X45796557Y-22124488D01*
X45897648Y-22140500D01*
X45897649Y-22140500D01*
X46102351Y-22140500D01*
X46102352Y-22140500D01*
X46304534Y-22108477D01*
X46499219Y-22045220D01*
X46681610Y-21952287D01*
X46777718Y-21882461D01*
X46847213Y-21831971D01*
X46847215Y-21831968D01*
X46847219Y-21831966D01*
X46977366Y-21701819D01*
X47038689Y-21668334D01*
X47065047Y-21665500D01*
X51884953Y-21665500D01*
X51951992Y-21685185D01*
X51972634Y-21701819D01*
X52102786Y-21831971D01*
X52257749Y-21944556D01*
X52268390Y-21952287D01*
X52384607Y-22011503D01*
X52450776Y-22045218D01*
X52450778Y-22045218D01*
X52450781Y-22045220D01*
X52555137Y-22079127D01*
X52645465Y-22108477D01*
X52746557Y-22124488D01*
X52847648Y-22140500D01*
X52847649Y-22140500D01*
X53052351Y-22140500D01*
X53052352Y-22140500D01*
X53254534Y-22108477D01*
X53449219Y-22045220D01*
X53631610Y-21952287D01*
X53727718Y-21882461D01*
X53797213Y-21831971D01*
X53797215Y-21831968D01*
X53797219Y-21831966D01*
X53927366Y-21701819D01*
X53988689Y-21668334D01*
X54015047Y-21665500D01*
X55434953Y-21665500D01*
X55501992Y-21685185D01*
X55522634Y-21701819D01*
X55652786Y-21831971D01*
X55807749Y-21944556D01*
X55818390Y-21952287D01*
X55934607Y-22011503D01*
X56000776Y-22045218D01*
X56000778Y-22045218D01*
X56000781Y-22045220D01*
X56105137Y-22079127D01*
X56195465Y-22108477D01*
X56296557Y-22124488D01*
X56397648Y-22140500D01*
X56397649Y-22140500D01*
X56602351Y-22140500D01*
X56602352Y-22140500D01*
X56804534Y-22108477D01*
X56999219Y-22045220D01*
X57181610Y-21952287D01*
X57277718Y-21882461D01*
X57347213Y-21831971D01*
X57347215Y-21831968D01*
X57347219Y-21831966D01*
X57477366Y-21701819D01*
X57538689Y-21668334D01*
X57565047Y-21665500D01*
X58472516Y-21665500D01*
X58539555Y-21685185D01*
X58541407Y-21686398D01*
X58608972Y-21731544D01*
X58608985Y-21731551D01*
X58759206Y-21793774D01*
X58759211Y-21793776D01*
X58759215Y-21793776D01*
X58759216Y-21793777D01*
X58918692Y-21825500D01*
X58918695Y-21825500D01*
X59050500Y-21825500D01*
X59117539Y-21845185D01*
X59163294Y-21897989D01*
X59174500Y-21949500D01*
X59174500Y-36418695D01*
X59174500Y-36581305D01*
X59174500Y-36581307D01*
X59174499Y-36581307D01*
X59206222Y-36740783D01*
X59206225Y-36740793D01*
X59268450Y-36891019D01*
X59268452Y-36891023D01*
X59358788Y-37026220D01*
X59358794Y-37026228D01*
X60973768Y-38641203D01*
X60973775Y-38641209D01*
X61108976Y-38731547D01*
X61108980Y-38731549D01*
X61259206Y-38793774D01*
X61259211Y-38793776D01*
X61259215Y-38793776D01*
X61259216Y-38793777D01*
X61418691Y-38825500D01*
X61418694Y-38825500D01*
X61418695Y-38825500D01*
X62606705Y-38825500D01*
X62673744Y-38845185D01*
X62694386Y-38861819D01*
X63638181Y-39805614D01*
X63671666Y-39866937D01*
X63674500Y-39893295D01*
X63674500Y-45606704D01*
X63654815Y-45673743D01*
X63638180Y-45694385D01*
X62473775Y-46858792D01*
X62440115Y-46892452D01*
X62358790Y-46973776D01*
X62358788Y-46973779D01*
X62268452Y-47108976D01*
X62268450Y-47108980D01*
X62206225Y-47259206D01*
X62206222Y-47259216D01*
X62174500Y-47418692D01*
X62174500Y-47418695D01*
X62174500Y-51158695D01*
X62174500Y-51321305D01*
X62174500Y-51321307D01*
X62174499Y-51321307D01*
X62206222Y-51480783D01*
X62206225Y-51480793D01*
X62268450Y-51631019D01*
X62268452Y-51631023D01*
X62358788Y-51766220D01*
X62358794Y-51766228D01*
X63518181Y-52925614D01*
X63551666Y-52986937D01*
X63554500Y-53013295D01*
X63554500Y-53867269D01*
X63534815Y-53934308D01*
X63503392Y-53967582D01*
X63500214Y-53969891D01*
X63500205Y-53969898D01*
X63349890Y-54120213D01*
X63224951Y-54292179D01*
X63128444Y-54481585D01*
X63062753Y-54683760D01*
X63029500Y-54893713D01*
X63029500Y-55106286D01*
X63062753Y-55316239D01*
X63128444Y-55518414D01*
X63224951Y-55707820D01*
X63349890Y-55879786D01*
X63500213Y-56030109D01*
X63672179Y-56155048D01*
X63672181Y-56155049D01*
X63672184Y-56155051D01*
X63861588Y-56251557D01*
X64063757Y-56317246D01*
X64273713Y-56350500D01*
X64273714Y-56350500D01*
X64486286Y-56350500D01*
X64486287Y-56350500D01*
X64696243Y-56317246D01*
X64898412Y-56251557D01*
X65087816Y-56155051D01*
X65174138Y-56092335D01*
X65259786Y-56030109D01*
X65259788Y-56030106D01*
X65259792Y-56030104D01*
X65410104Y-55879792D01*
X65410106Y-55879788D01*
X65410109Y-55879786D01*
X65495890Y-55761717D01*
X65535051Y-55707816D01*
X65539793Y-55698508D01*
X65587763Y-55647711D01*
X65655583Y-55630911D01*
X65721719Y-55653445D01*
X65760763Y-55698500D01*
X65765373Y-55707547D01*
X65804728Y-55761716D01*
X66437037Y-55129408D01*
X66454075Y-55192993D01*
X66519901Y-55307007D01*
X66612993Y-55400099D01*
X66727007Y-55465925D01*
X66790590Y-55482962D01*
X66158282Y-56115269D01*
X66158282Y-56115270D01*
X66212449Y-56154624D01*
X66401782Y-56251095D01*
X66603870Y-56316757D01*
X66813754Y-56350000D01*
X67026246Y-56350000D01*
X67236127Y-56316757D01*
X67236130Y-56316757D01*
X67438217Y-56251095D01*
X67627554Y-56154622D01*
X67681716Y-56115270D01*
X67681717Y-56115270D01*
X67049408Y-55482962D01*
X67112993Y-55465925D01*
X67227007Y-55400099D01*
X67320099Y-55307007D01*
X67385925Y-55192993D01*
X67402962Y-55129408D01*
X68035270Y-55761717D01*
X68035270Y-55761716D01*
X68074622Y-55707555D01*
X68079232Y-55698507D01*
X68127205Y-55647709D01*
X68195025Y-55630912D01*
X68261161Y-55653447D01*
X68300204Y-55698504D01*
X68304949Y-55707817D01*
X68429890Y-55879786D01*
X68580213Y-56030109D01*
X68752179Y-56155048D01*
X68752181Y-56155049D01*
X68752184Y-56155051D01*
X68941588Y-56251557D01*
X69143757Y-56317246D01*
X69353713Y-56350500D01*
X69353714Y-56350500D01*
X69566286Y-56350500D01*
X69566287Y-56350500D01*
X69776243Y-56317246D01*
X69978412Y-56251557D01*
X70167816Y-56155051D01*
X70339792Y-56030104D01*
X70453329Y-55916566D01*
X70514648Y-55883084D01*
X70584340Y-55888068D01*
X70640274Y-55929939D01*
X70657189Y-55960917D01*
X70706202Y-56092328D01*
X70706206Y-56092335D01*
X70792452Y-56207544D01*
X70792455Y-56207547D01*
X70907664Y-56293793D01*
X70907671Y-56293797D01*
X71042517Y-56344091D01*
X71042516Y-56344091D01*
X71049444Y-56344835D01*
X71102127Y-56350500D01*
X72897872Y-56350499D01*
X72957483Y-56344091D01*
X73092331Y-56293796D01*
X73207546Y-56207546D01*
X73293796Y-56092331D01*
X73344091Y-55957483D01*
X73350500Y-55897873D01*
X73350499Y-54102128D01*
X73344091Y-54042517D01*
X73342810Y-54039083D01*
X73293797Y-53907671D01*
X73293793Y-53907664D01*
X73207547Y-53792455D01*
X73207544Y-53792452D01*
X73092335Y-53706206D01*
X73092328Y-53706202D01*
X72957483Y-53655908D01*
X72936243Y-53653625D01*
X72871692Y-53626886D01*
X72831845Y-53569493D01*
X72825500Y-53530336D01*
X72825500Y-52749974D01*
X78499500Y-52749974D01*
X78499500Y-53250025D01*
X78535173Y-53748796D01*
X78606337Y-54243760D01*
X78712627Y-54732365D01*
X78712630Y-54732375D01*
X78753911Y-54872962D01*
X78853510Y-55212164D01*
X78892328Y-55316239D01*
X79028260Y-55680690D01*
X79028262Y-55680693D01*
X79235978Y-56135530D01*
X79235982Y-56135537D01*
X79475630Y-56574420D01*
X79475638Y-56574433D01*
X79745964Y-56995069D01*
X79745980Y-56995093D01*
X80045637Y-57395389D01*
X80273619Y-57658493D01*
X80373106Y-57773307D01*
X80373115Y-57773316D01*
X80373127Y-57773329D01*
X80726670Y-58126872D01*
X80726683Y-58126884D01*
X80726693Y-58126894D01*
X80850923Y-58234540D01*
X81104610Y-58454362D01*
X81504906Y-58754019D01*
X81504930Y-58754035D01*
X81925566Y-59024361D01*
X81925579Y-59024369D01*
X82364462Y-59264017D01*
X82364469Y-59264021D01*
X82819306Y-59471737D01*
X82819309Y-59471739D01*
X82819316Y-59471741D01*
X82819317Y-59471742D01*
X83287836Y-59646490D01*
X83767624Y-59787369D01*
X83767634Y-59787372D01*
X84256239Y-59893662D01*
X84256246Y-59893663D01*
X84751204Y-59964827D01*
X85249977Y-60000500D01*
X85750023Y-60000500D01*
X86248796Y-59964827D01*
X86743754Y-59893663D01*
X86743755Y-59893662D01*
X86743760Y-59893662D01*
X87232365Y-59787372D01*
X87232368Y-59787371D01*
X87232373Y-59787370D01*
X87712164Y-59646490D01*
X88180683Y-59471742D01*
X88387437Y-59377320D01*
X88635530Y-59264021D01*
X88635534Y-59264018D01*
X88635542Y-59264015D01*
X89074423Y-59024368D01*
X89495089Y-58754022D01*
X89662528Y-58628679D01*
X89895389Y-58454362D01*
X89912131Y-58439854D01*
X90273307Y-58126894D01*
X90626894Y-57773307D01*
X90954355Y-57395397D01*
X90954354Y-57395397D01*
X90954362Y-57395389D01*
X91254019Y-56995093D01*
X91254035Y-56995069D01*
X91434504Y-56714254D01*
X91524368Y-56574423D01*
X91764015Y-56135542D01*
X91764018Y-56135534D01*
X91764021Y-56135530D01*
X91959349Y-55707820D01*
X91971742Y-55680683D01*
X92146490Y-55212164D01*
X92287370Y-54732373D01*
X92297946Y-54683757D01*
X92393662Y-54243760D01*
X92411426Y-54120208D01*
X92464827Y-53748796D01*
X92500500Y-53250023D01*
X92500500Y-52749977D01*
X92464827Y-52251204D01*
X92393663Y-51756246D01*
X92393662Y-51756239D01*
X92287372Y-51267634D01*
X92287369Y-51267624D01*
X92276845Y-51231784D01*
X92146490Y-50787836D01*
X91971742Y-50319317D01*
X91971741Y-50319316D01*
X91971739Y-50319309D01*
X91971737Y-50319306D01*
X91764021Y-49864469D01*
X91764017Y-49864462D01*
X91524369Y-49425579D01*
X91524361Y-49425566D01*
X91254035Y-49004930D01*
X91254019Y-49004906D01*
X90954362Y-48604610D01*
X90680442Y-48288491D01*
X90626894Y-48226693D01*
X90626884Y-48226683D01*
X90626872Y-48226670D01*
X90273329Y-47873127D01*
X90273316Y-47873115D01*
X90273307Y-47873106D01*
X90055268Y-47684174D01*
X89895389Y-47545637D01*
X89495093Y-47245980D01*
X89495069Y-47245964D01*
X89074433Y-46975638D01*
X89074420Y-46975630D01*
X88635537Y-46735982D01*
X88635530Y-46735978D01*
X88180693Y-46528262D01*
X88180690Y-46528260D01*
X87855858Y-46407105D01*
X87712164Y-46353510D01*
X87555274Y-46307442D01*
X87232375Y-46212630D01*
X87232365Y-46212627D01*
X86743760Y-46106337D01*
X86248796Y-46035173D01*
X85750025Y-45999500D01*
X85750023Y-45999500D01*
X85249977Y-45999500D01*
X85249974Y-45999500D01*
X84751203Y-46035173D01*
X84256239Y-46106337D01*
X83767634Y-46212627D01*
X83767624Y-46212630D01*
X83287853Y-46353505D01*
X83287836Y-46353510D01*
X83287826Y-46353513D01*
X83287825Y-46353514D01*
X82819309Y-46528260D01*
X82819306Y-46528262D01*
X82364469Y-46735978D01*
X82364462Y-46735982D01*
X81925579Y-46975630D01*
X81925566Y-46975638D01*
X81504930Y-47245964D01*
X81504906Y-47245980D01*
X81104610Y-47545637D01*
X80726696Y-47873103D01*
X80726670Y-47873127D01*
X80373127Y-48226670D01*
X80373103Y-48226696D01*
X80045637Y-48604610D01*
X79745980Y-49004906D01*
X79745964Y-49004930D01*
X79475638Y-49425566D01*
X79475630Y-49425579D01*
X79235982Y-49864462D01*
X79235978Y-49864469D01*
X79028262Y-50319306D01*
X79028260Y-50319309D01*
X78853514Y-50787825D01*
X78853505Y-50787853D01*
X78712630Y-51267624D01*
X78712627Y-51267634D01*
X78606337Y-51756239D01*
X78535173Y-52251203D01*
X78499500Y-52749974D01*
X72825500Y-52749974D01*
X72825500Y-48918692D01*
X72793777Y-48759216D01*
X72793776Y-48759215D01*
X72793776Y-48759211D01*
X72793774Y-48759206D01*
X72731549Y-48608980D01*
X72731547Y-48608976D01*
X72641211Y-48473779D01*
X72641209Y-48473776D01*
X72614095Y-48446662D01*
X72526225Y-48358792D01*
X72040536Y-47873103D01*
X71526228Y-47358794D01*
X71526220Y-47358788D01*
X71391023Y-47268452D01*
X71391019Y-47268450D01*
X71240793Y-47206225D01*
X71240783Y-47206222D01*
X71081307Y-47174500D01*
X71081305Y-47174500D01*
X70186944Y-47174500D01*
X70119905Y-47154815D01*
X70088569Y-47125987D01*
X70057544Y-47085555D01*
X70057541Y-47085551D01*
X69964449Y-46992459D01*
X69942520Y-46975632D01*
X69859767Y-46912132D01*
X69859749Y-46912120D01*
X69745751Y-46846303D01*
X69745750Y-46846302D01*
X69623829Y-46795800D01*
X69496662Y-46761725D01*
X69496661Y-46761724D01*
X69496658Y-46761724D01*
X69365833Y-46744500D01*
X69365826Y-46744500D01*
X68750000Y-46744500D01*
X68749997Y-46744500D01*
X68678057Y-46749645D01*
X68666267Y-46753107D01*
X68615439Y-46754468D01*
X68615196Y-46756738D01*
X68547883Y-46749501D01*
X68547881Y-46749500D01*
X68547873Y-46749500D01*
X68547864Y-46749500D01*
X67452129Y-46749500D01*
X67452123Y-46749501D01*
X67392516Y-46755908D01*
X67257671Y-46806202D01*
X67257664Y-46806206D01*
X67142455Y-46892452D01*
X67142452Y-46892455D01*
X67056206Y-47007664D01*
X67056202Y-47007671D01*
X67005908Y-47142517D01*
X66999501Y-47202116D01*
X66999500Y-47202135D01*
X66999500Y-48797870D01*
X66999501Y-48797876D01*
X67005908Y-48857483D01*
X67056202Y-48992328D01*
X67056206Y-48992335D01*
X67142452Y-49107544D01*
X67142455Y-49107547D01*
X67257664Y-49193793D01*
X67257669Y-49193796D01*
X67318833Y-49216608D01*
X67374766Y-49258478D01*
X67399184Y-49323942D01*
X67399500Y-49332790D01*
X67399500Y-50957317D01*
X67394354Y-50993339D01*
X67399500Y-51036049D01*
X67399500Y-51079057D01*
X67406635Y-51105687D01*
X67409968Y-51122940D01*
X67413267Y-51150318D01*
X67426517Y-51183329D01*
X67429292Y-51190242D01*
X67440423Y-51231784D01*
X67458611Y-51263287D01*
X67461894Y-51271467D01*
X67472162Y-51297047D01*
X67472168Y-51297057D01*
X67493502Y-51325502D01*
X67501690Y-51337903D01*
X67513750Y-51358792D01*
X67519479Y-51368714D01*
X67519481Y-51368717D01*
X67538975Y-51388211D01*
X67550494Y-51401492D01*
X68222354Y-52297306D01*
X68796017Y-53062190D01*
X68874700Y-53167100D01*
X68899176Y-53232542D01*
X68899500Y-53241500D01*
X68899500Y-53693899D01*
X68879815Y-53760938D01*
X68831796Y-53804383D01*
X68752182Y-53844949D01*
X68580213Y-53969890D01*
X68429890Y-54120213D01*
X68304949Y-54292182D01*
X68300202Y-54301499D01*
X68252227Y-54352293D01*
X68184405Y-54369087D01*
X68118271Y-54346548D01*
X68079234Y-54301495D01*
X68074626Y-54292452D01*
X68035270Y-54238282D01*
X68035269Y-54238282D01*
X67402962Y-54870590D01*
X67385925Y-54807007D01*
X67320099Y-54692993D01*
X67227007Y-54599901D01*
X67112993Y-54534075D01*
X67049409Y-54517037D01*
X67681716Y-53884728D01*
X67627550Y-53845375D01*
X67438217Y-53748904D01*
X67236129Y-53683242D01*
X67026246Y-53650000D01*
X66813754Y-53650000D01*
X66603872Y-53683242D01*
X66603869Y-53683242D01*
X66401782Y-53748904D01*
X66212439Y-53845380D01*
X66158282Y-53884727D01*
X66158282Y-53884728D01*
X66790591Y-54517037D01*
X66727007Y-54534075D01*
X66612993Y-54599901D01*
X66519901Y-54692993D01*
X66454075Y-54807007D01*
X66437037Y-54870591D01*
X65804728Y-54238282D01*
X65804727Y-54238282D01*
X65765380Y-54292440D01*
X65765376Y-54292446D01*
X65760760Y-54301505D01*
X65712781Y-54352297D01*
X65644959Y-54369087D01*
X65578826Y-54346543D01*
X65539794Y-54301493D01*
X65535051Y-54292184D01*
X65535049Y-54292181D01*
X65535048Y-54292179D01*
X65410109Y-54120213D01*
X65310560Y-54020664D01*
X65259792Y-53969896D01*
X65249875Y-53962691D01*
X65243845Y-53956930D01*
X65230397Y-53933586D01*
X65213946Y-53912249D01*
X65211934Y-53901537D01*
X65208968Y-53896388D01*
X65209379Y-53887927D01*
X65205500Y-53867269D01*
X65205500Y-52538692D01*
X65173777Y-52379216D01*
X65173776Y-52379215D01*
X65173776Y-52379211D01*
X65159682Y-52345185D01*
X65111549Y-52228980D01*
X65111547Y-52228976D01*
X65021211Y-52093779D01*
X65021209Y-52093776D01*
X65021208Y-52093775D01*
X64906225Y-51978792D01*
X63861819Y-50934386D01*
X63828334Y-50873063D01*
X63825500Y-50846705D01*
X63825500Y-47893295D01*
X63845185Y-47826256D01*
X63861819Y-47805614D01*
X64556309Y-47111125D01*
X65141203Y-46526231D01*
X65141203Y-46526230D01*
X65141208Y-46526226D01*
X65231548Y-46391021D01*
X65293776Y-46240789D01*
X65315558Y-46131286D01*
X65325500Y-46081308D01*
X65325500Y-39418692D01*
X65293777Y-39259216D01*
X65293776Y-39259215D01*
X65293776Y-39259211D01*
X65293774Y-39259206D01*
X65231549Y-39108980D01*
X65231547Y-39108976D01*
X65141209Y-38973775D01*
X65141203Y-38973768D01*
X63526228Y-37358794D01*
X63526220Y-37358788D01*
X63391023Y-37268452D01*
X63391019Y-37268450D01*
X63240793Y-37206225D01*
X63240783Y-37206222D01*
X63081307Y-37174500D01*
X63081305Y-37174500D01*
X61893296Y-37174500D01*
X61826257Y-37154815D01*
X61805615Y-37138181D01*
X60861819Y-36194385D01*
X60828334Y-36133062D01*
X60825500Y-36106704D01*
X60825500Y-30897648D01*
X62649500Y-30897648D01*
X62649500Y-31102351D01*
X62681522Y-31304534D01*
X62744781Y-31499223D01*
X62802447Y-31612396D01*
X62833320Y-31672989D01*
X62837715Y-31681613D01*
X62958028Y-31847213D01*
X63102786Y-31991971D01*
X63236401Y-32089046D01*
X63268390Y-32112287D01*
X63369912Y-32164015D01*
X63450776Y-32205218D01*
X63450778Y-32205218D01*
X63450781Y-32205220D01*
X63555137Y-32239127D01*
X63645465Y-32268477D01*
X63744893Y-32284225D01*
X63847648Y-32300500D01*
X63847649Y-32300500D01*
X64052351Y-32300500D01*
X64052352Y-32300500D01*
X64254534Y-32268477D01*
X64449219Y-32205220D01*
X64530088Y-32164014D01*
X64571333Y-32154112D01*
X64570998Y-32151561D01*
X64579054Y-32150500D01*
X64579057Y-32150500D01*
X64731784Y-32109576D01*
X64868716Y-32030519D01*
X64980519Y-31918716D01*
X65059576Y-31781784D01*
X65083526Y-31692403D01*
X65119891Y-31632745D01*
X65182738Y-31602217D01*
X65203300Y-31600500D01*
X66270398Y-31600500D01*
X66279005Y-31603027D01*
X66287883Y-31601739D01*
X66312008Y-31612718D01*
X66337437Y-31620185D01*
X66344989Y-31627727D01*
X66351477Y-31630680D01*
X66364186Y-31646898D01*
X66374625Y-31657323D01*
X66378029Y-31662605D01*
X66387713Y-31681610D01*
X66410441Y-31712894D01*
X66412318Y-31715805D01*
X66421264Y-31746127D01*
X66431889Y-31775906D01*
X66431414Y-31780526D01*
X66432091Y-31782819D01*
X66430684Y-31787632D01*
X66427866Y-31815075D01*
X66399499Y-31920943D01*
X66399499Y-32089046D01*
X66399500Y-32089059D01*
X66399500Y-34025500D01*
X66379815Y-34092539D01*
X66327011Y-34138294D01*
X66275501Y-34149500D01*
X66102130Y-34149500D01*
X66102123Y-34149501D01*
X66042516Y-34155908D01*
X65907671Y-34206202D01*
X65907664Y-34206206D01*
X65792455Y-34292452D01*
X65792452Y-34292455D01*
X65706206Y-34407664D01*
X65706202Y-34407671D01*
X65655908Y-34542517D01*
X65649501Y-34602116D01*
X65649501Y-34602123D01*
X65649500Y-34602135D01*
X65649500Y-34612690D01*
X65629815Y-34679729D01*
X65613181Y-34700371D01*
X64942962Y-35370590D01*
X64925925Y-35307007D01*
X64860099Y-35192993D01*
X64767007Y-35099901D01*
X64652993Y-35034075D01*
X64589409Y-35017037D01*
X65221716Y-34384728D01*
X65167550Y-34345375D01*
X64978217Y-34248904D01*
X64776129Y-34183242D01*
X64566246Y-34150000D01*
X64353754Y-34150000D01*
X64143872Y-34183242D01*
X64143869Y-34183242D01*
X63941782Y-34248904D01*
X63752439Y-34345380D01*
X63698282Y-34384727D01*
X63698282Y-34384728D01*
X64330591Y-35017037D01*
X64267007Y-35034075D01*
X64152993Y-35099901D01*
X64059901Y-35192993D01*
X63994075Y-35307007D01*
X63977037Y-35370591D01*
X63344728Y-34738282D01*
X63344727Y-34738282D01*
X63305380Y-34792439D01*
X63208904Y-34981782D01*
X63143242Y-35183869D01*
X63143242Y-35183872D01*
X63110000Y-35393753D01*
X63110000Y-35606246D01*
X63143242Y-35816127D01*
X63143242Y-35816130D01*
X63208904Y-36018217D01*
X63305375Y-36207550D01*
X63344728Y-36261716D01*
X63977037Y-35629408D01*
X63994075Y-35692993D01*
X64059901Y-35807007D01*
X64152993Y-35900099D01*
X64267007Y-35965925D01*
X64330590Y-35982962D01*
X63698282Y-36615269D01*
X63698282Y-36615270D01*
X63752449Y-36654624D01*
X63941782Y-36751095D01*
X64143870Y-36816757D01*
X64353754Y-36850000D01*
X64566246Y-36850000D01*
X64776127Y-36816757D01*
X64776130Y-36816757D01*
X64978217Y-36751095D01*
X65167554Y-36654622D01*
X65221716Y-36615270D01*
X65221717Y-36615270D01*
X64589408Y-35982962D01*
X64652993Y-35965925D01*
X64767007Y-35900099D01*
X64860099Y-35807007D01*
X64925925Y-35692993D01*
X64942962Y-35629408D01*
X65613181Y-36299628D01*
X65646666Y-36360951D01*
X65649500Y-36387300D01*
X65649500Y-36397865D01*
X65649501Y-36397876D01*
X65655908Y-36457483D01*
X65706202Y-36592328D01*
X65706206Y-36592335D01*
X65792452Y-36707544D01*
X65792455Y-36707547D01*
X65907664Y-36793793D01*
X65907671Y-36793797D01*
X66042517Y-36844091D01*
X66042516Y-36844091D01*
X66049444Y-36844835D01*
X66102127Y-36850500D01*
X67897872Y-36850499D01*
X67957483Y-36844091D01*
X68092331Y-36793796D01*
X68207546Y-36707546D01*
X68293796Y-36592331D01*
X68344091Y-36457483D01*
X68350500Y-36397873D01*
X68350499Y-34602128D01*
X68344091Y-34542517D01*
X68307617Y-34444726D01*
X68293798Y-34407673D01*
X68293793Y-34407664D01*
X68207547Y-34292455D01*
X68207544Y-34292452D01*
X68092335Y-34206206D01*
X68092328Y-34206202D01*
X67957482Y-34155908D01*
X67957483Y-34155908D01*
X67897883Y-34149501D01*
X67897881Y-34149500D01*
X67897873Y-34149500D01*
X67897865Y-34149500D01*
X67724500Y-34149500D01*
X67657461Y-34129815D01*
X67611706Y-34077011D01*
X67600500Y-34025500D01*
X67600500Y-32406698D01*
X67620185Y-32339659D01*
X67672989Y-32293904D01*
X67705098Y-32284226D01*
X67804534Y-32268477D01*
X67999219Y-32205220D01*
X68181610Y-32112287D01*
X68282407Y-32039054D01*
X68347213Y-31991971D01*
X68347215Y-31991968D01*
X68347219Y-31991966D01*
X68491966Y-31847219D01*
X68491968Y-31847215D01*
X68491971Y-31847213D01*
X68549365Y-31768215D01*
X68612287Y-31681610D01*
X68705220Y-31499219D01*
X68768477Y-31304534D01*
X68800500Y-31102352D01*
X68800500Y-30897648D01*
X72649500Y-30897648D01*
X72649500Y-31102351D01*
X72681522Y-31304534D01*
X72744781Y-31499223D01*
X72802447Y-31612396D01*
X72833320Y-31672989D01*
X72837715Y-31681613D01*
X72958028Y-31847213D01*
X73102786Y-31991971D01*
X73236401Y-32089046D01*
X73268390Y-32112287D01*
X73369912Y-32164015D01*
X73450776Y-32205218D01*
X73450778Y-32205218D01*
X73450781Y-32205220D01*
X73555137Y-32239127D01*
X73645465Y-32268477D01*
X73744893Y-32284225D01*
X73847648Y-32300500D01*
X73847649Y-32300500D01*
X74052351Y-32300500D01*
X74052352Y-32300500D01*
X74254534Y-32268477D01*
X74449219Y-32205220D01*
X74530088Y-32164014D01*
X74571333Y-32154112D01*
X74570998Y-32151561D01*
X74579054Y-32150500D01*
X74579057Y-32150500D01*
X74731784Y-32109576D01*
X74868716Y-32030519D01*
X74980519Y-31918716D01*
X75059576Y-31781784D01*
X75083526Y-31692403D01*
X75119891Y-31632745D01*
X75182738Y-31602217D01*
X75203300Y-31600500D01*
X76270398Y-31600500D01*
X76277856Y-31602689D01*
X76285528Y-31601426D01*
X76310911Y-31612396D01*
X76337437Y-31620185D01*
X76344148Y-31626760D01*
X76349664Y-31629144D01*
X76360785Y-31643059D01*
X76373319Y-31655338D01*
X76377486Y-31661540D01*
X76387713Y-31681610D01*
X76431146Y-31741391D01*
X76432406Y-31743266D01*
X76442278Y-31774506D01*
X76453283Y-31805349D01*
X76452974Y-31808354D01*
X76453459Y-31809888D01*
X76452426Y-31813692D01*
X76449260Y-31844519D01*
X76439502Y-31880935D01*
X76439502Y-32049043D01*
X76439503Y-32049056D01*
X76439503Y-34025500D01*
X76419818Y-34092539D01*
X76367014Y-34138294D01*
X76315504Y-34149500D01*
X76142133Y-34149500D01*
X76142126Y-34149501D01*
X76082519Y-34155908D01*
X75947674Y-34206202D01*
X75947667Y-34206206D01*
X75832458Y-34292452D01*
X75832455Y-34292455D01*
X75746209Y-34407664D01*
X75746205Y-34407671D01*
X75695911Y-34542517D01*
X75689504Y-34602116D01*
X75689504Y-34602123D01*
X75689503Y-34602135D01*
X75689503Y-34612690D01*
X75669818Y-34679729D01*
X75653184Y-34700371D01*
X74982965Y-35370590D01*
X74965928Y-35307007D01*
X74900102Y-35192993D01*
X74807010Y-35099901D01*
X74692996Y-35034075D01*
X74629412Y-35017037D01*
X75261719Y-34384728D01*
X75207553Y-34345375D01*
X75018220Y-34248904D01*
X74816132Y-34183242D01*
X74606249Y-34150000D01*
X74393757Y-34150000D01*
X74183875Y-34183242D01*
X74183872Y-34183242D01*
X73981785Y-34248904D01*
X73792442Y-34345380D01*
X73738285Y-34384727D01*
X73738285Y-34384728D01*
X74370594Y-35017037D01*
X74307010Y-35034075D01*
X74192996Y-35099901D01*
X74099904Y-35192993D01*
X74034078Y-35307007D01*
X74017040Y-35370591D01*
X73384731Y-34738282D01*
X73384730Y-34738282D01*
X73345383Y-34792439D01*
X73248907Y-34981782D01*
X73183245Y-35183869D01*
X73183245Y-35183872D01*
X73150003Y-35393753D01*
X73150003Y-35606246D01*
X73183245Y-35816127D01*
X73183245Y-35816130D01*
X73248907Y-36018217D01*
X73345378Y-36207550D01*
X73384731Y-36261716D01*
X74017040Y-35629408D01*
X74034078Y-35692993D01*
X74099904Y-35807007D01*
X74192996Y-35900099D01*
X74307010Y-35965925D01*
X74370593Y-35982962D01*
X73738285Y-36615269D01*
X73738285Y-36615270D01*
X73792452Y-36654624D01*
X73981785Y-36751095D01*
X74183873Y-36816757D01*
X74393757Y-36850000D01*
X74606249Y-36850000D01*
X74816130Y-36816757D01*
X74816133Y-36816757D01*
X75018220Y-36751095D01*
X75207557Y-36654622D01*
X75261719Y-36615270D01*
X75261720Y-36615270D01*
X74629411Y-35982962D01*
X74692996Y-35965925D01*
X74807010Y-35900099D01*
X74900102Y-35807007D01*
X74965928Y-35692993D01*
X74982965Y-35629408D01*
X75653184Y-36299628D01*
X75686669Y-36360951D01*
X75689503Y-36387300D01*
X75689503Y-36397865D01*
X75689504Y-36397876D01*
X75695911Y-36457483D01*
X75746205Y-36592328D01*
X75746209Y-36592335D01*
X75832455Y-36707544D01*
X75832458Y-36707547D01*
X75947667Y-36793793D01*
X75947674Y-36793797D01*
X76082520Y-36844091D01*
X76082519Y-36844091D01*
X76089447Y-36844835D01*
X76142130Y-36850500D01*
X77937875Y-36850499D01*
X77997486Y-36844091D01*
X78132334Y-36793796D01*
X78247549Y-36707546D01*
X78333799Y-36592331D01*
X78384094Y-36457483D01*
X78390503Y-36397873D01*
X78390502Y-34602128D01*
X78384094Y-34542517D01*
X78359030Y-34475318D01*
X78333800Y-34407671D01*
X78333796Y-34407664D01*
X78247550Y-34292455D01*
X78247547Y-34292452D01*
X78132338Y-34206206D01*
X78132331Y-34206202D01*
X77997485Y-34155908D01*
X77997486Y-34155908D01*
X77937886Y-34149501D01*
X77937884Y-34149500D01*
X77937876Y-34149500D01*
X77937868Y-34149500D01*
X77764503Y-34149500D01*
X77697464Y-34129815D01*
X77651709Y-34077011D01*
X77640503Y-34025500D01*
X77640503Y-32400362D01*
X77660188Y-32333323D01*
X77712992Y-32287568D01*
X77745097Y-32277890D01*
X77804534Y-32268477D01*
X77999219Y-32205220D01*
X78181610Y-32112287D01*
X78282407Y-32039054D01*
X78347213Y-31991971D01*
X78347215Y-31991968D01*
X78347219Y-31991966D01*
X78491966Y-31847219D01*
X78491968Y-31847215D01*
X78491971Y-31847213D01*
X78549365Y-31768215D01*
X78612287Y-31681610D01*
X78705220Y-31499219D01*
X78768477Y-31304534D01*
X78800500Y-31102352D01*
X78800500Y-30897648D01*
X78768477Y-30695466D01*
X78705220Y-30500781D01*
X78705218Y-30500778D01*
X78705218Y-30500776D01*
X78671503Y-30434607D01*
X78612287Y-30318390D01*
X78604556Y-30307749D01*
X78491971Y-30152786D01*
X78347213Y-30008028D01*
X78181613Y-29887715D01*
X78181612Y-29887714D01*
X78181610Y-29887713D01*
X78124653Y-29858691D01*
X77999223Y-29794781D01*
X77804534Y-29731522D01*
X77629995Y-29703878D01*
X77602352Y-29699500D01*
X77397648Y-29699500D01*
X77373329Y-29703351D01*
X77195465Y-29731522D01*
X77000776Y-29794781D01*
X76818386Y-29887715D01*
X76652786Y-30008028D01*
X76508028Y-30152786D01*
X76387715Y-30318385D01*
X76380883Y-30331795D01*
X76332909Y-30382591D01*
X76270398Y-30399500D01*
X75179602Y-30399500D01*
X75112563Y-30379815D01*
X75069117Y-30331795D01*
X75062284Y-30318385D01*
X74941971Y-30152786D01*
X74797213Y-30008028D01*
X74631613Y-29887715D01*
X74631612Y-29887714D01*
X74631610Y-29887713D01*
X74574653Y-29858691D01*
X74449223Y-29794781D01*
X74254534Y-29731522D01*
X74079995Y-29703878D01*
X74052352Y-29699500D01*
X73847648Y-29699500D01*
X73823329Y-29703351D01*
X73645465Y-29731522D01*
X73450776Y-29794781D01*
X73268386Y-29887715D01*
X73102786Y-30008028D01*
X72958028Y-30152786D01*
X72837715Y-30318386D01*
X72744781Y-30500776D01*
X72681522Y-30695465D01*
X72649500Y-30897648D01*
X68800500Y-30897648D01*
X68768477Y-30695466D01*
X68705220Y-30500781D01*
X68705218Y-30500778D01*
X68705218Y-30500776D01*
X68671503Y-30434607D01*
X68612287Y-30318390D01*
X68604556Y-30307749D01*
X68491971Y-30152786D01*
X68347213Y-30008028D01*
X68181613Y-29887715D01*
X68181612Y-29887714D01*
X68181610Y-29887713D01*
X68124653Y-29858691D01*
X67999223Y-29794781D01*
X67804534Y-29731522D01*
X67629995Y-29703878D01*
X67602352Y-29699500D01*
X67397648Y-29699500D01*
X67373329Y-29703351D01*
X67195465Y-29731522D01*
X67000776Y-29794781D01*
X66818386Y-29887715D01*
X66652786Y-30008028D01*
X66508028Y-30152786D01*
X66387715Y-30318385D01*
X66380883Y-30331795D01*
X66332909Y-30382591D01*
X66270398Y-30399500D01*
X65179602Y-30399500D01*
X65112563Y-30379815D01*
X65069117Y-30331795D01*
X65062284Y-30318385D01*
X64941971Y-30152786D01*
X64797213Y-30008028D01*
X64631613Y-29887715D01*
X64631612Y-29887714D01*
X64631610Y-29887713D01*
X64574653Y-29858691D01*
X64449223Y-29794781D01*
X64254534Y-29731522D01*
X64079995Y-29703878D01*
X64052352Y-29699500D01*
X63847648Y-29699500D01*
X63823329Y-29703351D01*
X63645465Y-29731522D01*
X63450776Y-29794781D01*
X63268386Y-29887715D01*
X63102786Y-30008028D01*
X62958028Y-30152786D01*
X62837715Y-30318386D01*
X62744781Y-30500776D01*
X62681522Y-30695465D01*
X62649500Y-30897648D01*
X60825500Y-30897648D01*
X60825500Y-21949500D01*
X60845185Y-21882461D01*
X60897989Y-21836706D01*
X60949500Y-21825500D01*
X61081307Y-21825500D01*
X61188598Y-21804157D01*
X61240789Y-21793776D01*
X61391021Y-21731548D01*
X61458593Y-21686398D01*
X61525270Y-21665520D01*
X61527484Y-21665500D01*
X62884953Y-21665500D01*
X62951992Y-21685185D01*
X62972634Y-21701819D01*
X63102786Y-21831971D01*
X63257749Y-21944556D01*
X63268390Y-21952287D01*
X63384607Y-22011503D01*
X63450776Y-22045218D01*
X63450778Y-22045218D01*
X63450781Y-22045220D01*
X63555137Y-22079127D01*
X63645465Y-22108477D01*
X63746557Y-22124488D01*
X63847648Y-22140500D01*
X63847649Y-22140500D01*
X64052351Y-22140500D01*
X64052352Y-22140500D01*
X64254534Y-22108477D01*
X64449219Y-22045220D01*
X64631610Y-21952287D01*
X64727718Y-21882461D01*
X64797213Y-21831971D01*
X64797215Y-21831968D01*
X64797219Y-21831966D01*
X64927366Y-21701819D01*
X64988689Y-21668334D01*
X65015047Y-21665500D01*
X66434953Y-21665500D01*
X66501992Y-21685185D01*
X66522634Y-21701819D01*
X66652786Y-21831971D01*
X66807749Y-21944556D01*
X66818390Y-21952287D01*
X66934607Y-22011503D01*
X67000776Y-22045218D01*
X67000778Y-22045218D01*
X67000781Y-22045220D01*
X67105137Y-22079127D01*
X67195465Y-22108477D01*
X67296557Y-22124488D01*
X67397648Y-22140500D01*
X67397649Y-22140500D01*
X67602351Y-22140500D01*
X67602352Y-22140500D01*
X67804534Y-22108477D01*
X67999219Y-22045220D01*
X68181610Y-21952287D01*
X68277718Y-21882461D01*
X68347213Y-21831971D01*
X68347215Y-21831968D01*
X68347219Y-21831966D01*
X68477366Y-21701819D01*
X68538689Y-21668334D01*
X68565047Y-21665500D01*
X72884953Y-21665500D01*
X72951992Y-21685185D01*
X72972634Y-21701819D01*
X73102786Y-21831971D01*
X73257749Y-21944556D01*
X73268390Y-21952287D01*
X73384607Y-22011503D01*
X73450776Y-22045218D01*
X73450778Y-22045218D01*
X73450781Y-22045220D01*
X73555137Y-22079127D01*
X73645465Y-22108477D01*
X73746557Y-22124488D01*
X73847648Y-22140500D01*
X73847649Y-22140500D01*
X74052351Y-22140500D01*
X74052352Y-22140500D01*
X74254534Y-22108477D01*
X74449219Y-22045220D01*
X74631610Y-21952287D01*
X74727718Y-21882461D01*
X74797213Y-21831971D01*
X74797215Y-21831968D01*
X74797219Y-21831966D01*
X74927366Y-21701819D01*
X74988689Y-21668334D01*
X75015047Y-21665500D01*
X76434953Y-21665500D01*
X76501992Y-21685185D01*
X76522634Y-21701819D01*
X76652786Y-21831971D01*
X76807749Y-21944556D01*
X76818390Y-21952287D01*
X76934607Y-22011503D01*
X77000776Y-22045218D01*
X77000778Y-22045218D01*
X77000781Y-22045220D01*
X77105137Y-22079127D01*
X77195465Y-22108477D01*
X77296557Y-22124488D01*
X77397648Y-22140500D01*
X77397649Y-22140500D01*
X77602351Y-22140500D01*
X77602352Y-22140500D01*
X77804534Y-22108477D01*
X77999219Y-22045220D01*
X78181610Y-21952287D01*
X78277718Y-21882461D01*
X78347213Y-21831971D01*
X78347215Y-21831968D01*
X78347219Y-21831966D01*
X78491966Y-21687219D01*
X78491968Y-21687215D01*
X78491971Y-21687213D01*
X78544732Y-21614590D01*
X78612287Y-21521610D01*
X78705220Y-21339219D01*
X78768477Y-21144534D01*
X78800500Y-20942352D01*
X78800500Y-20737648D01*
X78768477Y-20535466D01*
X78705220Y-20340781D01*
X78705218Y-20340778D01*
X78705218Y-20340776D01*
X78620495Y-20174500D01*
X78612287Y-20158390D01*
X78604556Y-20147749D01*
X78491971Y-19992786D01*
X78347213Y-19848028D01*
X78181613Y-19727715D01*
X78181612Y-19727714D01*
X78181610Y-19727713D01*
X78124653Y-19698691D01*
X77999223Y-19634781D01*
X77804534Y-19571522D01*
X77629995Y-19543878D01*
X77602352Y-19539500D01*
X77397648Y-19539500D01*
X77373329Y-19543351D01*
X77195465Y-19571522D01*
X77000776Y-19634781D01*
X76818386Y-19727715D01*
X76652786Y-19848028D01*
X76652782Y-19848032D01*
X76522634Y-19978181D01*
X76461311Y-20011666D01*
X76434953Y-20014500D01*
X75015047Y-20014500D01*
X74948008Y-19994815D01*
X74927366Y-19978181D01*
X74797213Y-19848028D01*
X74631613Y-19727715D01*
X74631612Y-19727714D01*
X74631610Y-19727713D01*
X74574653Y-19698691D01*
X74449223Y-19634781D01*
X74254534Y-19571522D01*
X74079995Y-19543878D01*
X74052352Y-19539500D01*
X73847648Y-19539500D01*
X73823329Y-19543351D01*
X73645465Y-19571522D01*
X73450776Y-19634781D01*
X73268386Y-19727715D01*
X73102786Y-19848028D01*
X73102782Y-19848032D01*
X72972634Y-19978181D01*
X72911311Y-20011666D01*
X72884953Y-20014500D01*
X68565047Y-20014500D01*
X68498008Y-19994815D01*
X68477366Y-19978181D01*
X68347213Y-19848028D01*
X68181613Y-19727715D01*
X68181612Y-19727714D01*
X68181610Y-19727713D01*
X68124653Y-19698691D01*
X67999223Y-19634781D01*
X67804534Y-19571522D01*
X67629995Y-19543878D01*
X67602352Y-19539500D01*
X67397648Y-19539500D01*
X67373329Y-19543351D01*
X67195465Y-19571522D01*
X67000776Y-19634781D01*
X66818386Y-19727715D01*
X66652786Y-19848028D01*
X66652782Y-19848032D01*
X66522634Y-19978181D01*
X66461311Y-20011666D01*
X66434953Y-20014500D01*
X65015047Y-20014500D01*
X64948008Y-19994815D01*
X64927366Y-19978181D01*
X64797213Y-19848028D01*
X64631613Y-19727715D01*
X64631612Y-19727714D01*
X64631610Y-19727713D01*
X64574653Y-19698691D01*
X64449223Y-19634781D01*
X64254534Y-19571522D01*
X64079995Y-19543878D01*
X64052352Y-19539500D01*
X63847648Y-19539500D01*
X63823329Y-19543351D01*
X63645465Y-19571522D01*
X63450776Y-19634781D01*
X63268386Y-19727715D01*
X63102786Y-19848028D01*
X63102782Y-19848032D01*
X62972634Y-19978181D01*
X62911311Y-20011666D01*
X62884953Y-20014500D01*
X61078693Y-20014500D01*
X60919216Y-20046222D01*
X60919206Y-20046225D01*
X60768985Y-20108448D01*
X60768972Y-20108455D01*
X60701407Y-20153602D01*
X60634730Y-20174480D01*
X60632516Y-20174500D01*
X59367484Y-20174500D01*
X59300445Y-20154815D01*
X59298593Y-20153602D01*
X59231027Y-20108455D01*
X59231014Y-20108448D01*
X59080793Y-20046225D01*
X59080783Y-20046222D01*
X58921307Y-20014500D01*
X58921305Y-20014500D01*
X57565047Y-20014500D01*
X57498008Y-19994815D01*
X57477366Y-19978181D01*
X57347213Y-19848028D01*
X57181613Y-19727715D01*
X57181612Y-19727714D01*
X57181610Y-19727713D01*
X57124653Y-19698691D01*
X56999223Y-19634781D01*
X56804534Y-19571522D01*
X56629995Y-19543878D01*
X56602352Y-19539500D01*
X56397648Y-19539500D01*
X56373329Y-19543351D01*
X56195465Y-19571522D01*
X56000776Y-19634781D01*
X55818386Y-19727715D01*
X55652786Y-19848028D01*
X55652782Y-19848032D01*
X55522634Y-19978181D01*
X55461311Y-20011666D01*
X55434953Y-20014500D01*
X54015047Y-20014500D01*
X53948008Y-19994815D01*
X53927366Y-19978181D01*
X53797213Y-19848028D01*
X53631613Y-19727715D01*
X53631612Y-19727714D01*
X53631610Y-19727713D01*
X53574653Y-19698691D01*
X53449223Y-19634781D01*
X53254534Y-19571522D01*
X53079995Y-19543878D01*
X53052352Y-19539500D01*
X52847648Y-19539500D01*
X52823329Y-19543351D01*
X52645465Y-19571522D01*
X52450776Y-19634781D01*
X52268386Y-19727715D01*
X52102786Y-19848028D01*
X52102782Y-19848032D01*
X51972634Y-19978181D01*
X51911311Y-20011666D01*
X51884953Y-20014500D01*
X47065047Y-20014500D01*
X46998008Y-19994815D01*
X46977366Y-19978181D01*
X46847213Y-19848028D01*
X46681613Y-19727715D01*
X46681612Y-19727714D01*
X46681610Y-19727713D01*
X46624653Y-19698691D01*
X46499223Y-19634781D01*
X46304534Y-19571522D01*
X46129995Y-19543878D01*
X46102352Y-19539500D01*
X45897648Y-19539500D01*
X45873329Y-19543351D01*
X45695465Y-19571522D01*
X45500776Y-19634781D01*
X45318386Y-19727715D01*
X45152786Y-19848028D01*
X45152782Y-19848032D01*
X45022634Y-19978181D01*
X44961311Y-20011666D01*
X44934953Y-20014500D01*
X43515047Y-20014500D01*
X43448008Y-19994815D01*
X43427366Y-19978181D01*
X43297213Y-19848028D01*
X43131613Y-19727715D01*
X43131612Y-19727714D01*
X43131610Y-19727713D01*
X43074653Y-19698691D01*
X42949223Y-19634781D01*
X42754534Y-19571522D01*
X42579995Y-19543878D01*
X42552352Y-19539500D01*
X42347648Y-19539500D01*
X42323329Y-19543351D01*
X42145465Y-19571522D01*
X41950776Y-19634781D01*
X41768386Y-19727715D01*
X41602786Y-19848028D01*
X41458028Y-19992786D01*
X41337715Y-20158386D01*
X41244781Y-20340776D01*
X41181522Y-20535465D01*
X41149500Y-20737648D01*
X39576247Y-20737648D01*
X40508626Y-19064148D01*
X40558450Y-19015166D01*
X40616948Y-19000500D01*
X79890181Y-19000500D01*
X79957220Y-19020185D01*
G37*
%TD.AperFunction*%
%TD*%
M02*
