%TF.GenerationSoftware,KiCad,Pcbnew,9.0.6*%
%TF.CreationDate,2025-11-24T14:02:56+01:00*%
%TF.ProjectId,hex-dna,6865782d-646e-4612-9e6b-696361645f70,rev?*%
%TF.SameCoordinates,Original*%
%TF.FileFunction,Soldermask,Bot*%
%TF.FilePolarity,Negative*%
%FSLAX46Y46*%
G04 Gerber Fmt 4.6, Leading zero omitted, Abs format (unit mm)*
G04 Created by KiCad (PCBNEW 9.0.6) date 2025-11-24 14:02:56*
%MOMM*%
%LPD*%
G01*
G04 APERTURE LIST*
G04 Aperture macros list*
%AMRoundRect*
0 Rectangle with rounded corners*
0 $1 Rounding radius*
0 $2 $3 $4 $5 $6 $7 $8 $9 X,Y pos of 4 corners*
0 Add a 4 corners polygon primitive as box body*
4,1,4,$2,$3,$4,$5,$6,$7,$8,$9,$2,$3,0*
0 Add four circle primitives for the rounded corners*
1,1,$1+$1,$2,$3*
1,1,$1+$1,$4,$5*
1,1,$1+$1,$6,$7*
1,1,$1+$1,$8,$9*
0 Add four rect primitives between the rounded corners*
20,1,$1+$1,$2,$3,$4,$5,0*
20,1,$1+$1,$4,$5,$6,$7,0*
20,1,$1+$1,$6,$7,$8,$9,0*
20,1,$1+$1,$8,$9,$2,$3,0*%
%AMRotRect*
0 Rectangle, with rotation*
0 The origin of the aperture is its center*
0 $1 length*
0 $2 width*
0 $3 Rotation angle, in degrees counterclockwise*
0 Add horizontal line*
21,1,$1,$2,0,0,$3*%
G04 Aperture macros list end*
%ADD10R,1.700000X1.700000*%
%ADD11C,1.700000*%
%ADD12C,1.600000*%
%ADD13R,1.800000X1.800000*%
%ADD14C,1.800000*%
%ADD15C,3.200000*%
%ADD16RotRect,1.700000X1.700000X30.000000*%
%ADD17RoundRect,0.250000X0.550000X-0.550000X0.550000X0.550000X-0.550000X0.550000X-0.550000X-0.550000X0*%
G04 APERTURE END LIST*
D10*
%TO.C,J3*%
X55775001Y-35500000D03*
D11*
X53235001Y-35500000D03*
%TD*%
D10*
%TO.C,+3V3 GND +5V EN*%
X57000000Y-55000000D03*
D11*
X54460000Y-55000000D03*
X51920000Y-55000000D03*
X49380000Y-55000000D03*
%TD*%
D12*
%TO.C,R6*%
X67500000Y-31000000D03*
X67500000Y-20840000D03*
%TD*%
%TO.C,R1*%
X42450000Y-31000000D03*
X42450000Y-20840000D03*
%TD*%
%TO.C,R4*%
X56500000Y-31000000D03*
X56500000Y-20840000D03*
%TD*%
D10*
%TO.C,J4*%
X67000000Y-35500000D03*
D11*
X64460000Y-35500000D03*
%TD*%
D13*
%TO.C,D1*%
X43500000Y-82999999D03*
D14*
X40960000Y-82999999D03*
%TD*%
D10*
%TO.C,+3V_CC GND CE +3V3*%
X72000000Y-55000000D03*
D11*
X69460000Y-55000000D03*
X66920000Y-55000000D03*
X64380000Y-55000000D03*
%TD*%
D12*
%TO.C,R5*%
X63950000Y-31000000D03*
X63950000Y-20840000D03*
%TD*%
%TO.C,R2*%
X46000000Y-31000000D03*
X46000000Y-20840000D03*
%TD*%
D15*
%TO.C,H1*%
X60000000Y-43500000D03*
%TD*%
D16*
%TO.C,J1*%
X30500000Y-63000000D03*
D11*
X31770000Y-65199705D03*
%TD*%
D12*
%TO.C,R7*%
X73950000Y-31000000D03*
X73950000Y-20840000D03*
%TD*%
D10*
%TO.C,J7*%
X77040003Y-35500000D03*
D11*
X74500003Y-35500000D03*
%TD*%
D17*
%TO.C,C1*%
X40000000Y-68705113D03*
D12*
X40000000Y-66205113D03*
%TD*%
%TO.C,R9*%
X34000000Y-69500000D03*
X39080000Y-78298817D03*
%TD*%
D10*
%TO.C,J2*%
X45500000Y-35500000D03*
D11*
X42960000Y-35500000D03*
%TD*%
D12*
%TO.C,R3*%
X52950000Y-31000000D03*
X52950000Y-20840000D03*
%TD*%
%TO.C,R8*%
X77500000Y-31000000D03*
X77500000Y-20840000D03*
%TD*%
M02*
