%TF.GenerationSoftware,KiCad,Pcbnew,9.0.6*%
%TF.CreationDate,2025-11-13T19:17:57+01:00*%
%TF.ProjectId,hex-dna,6865782d-646e-4612-9e6b-696361645f70,rev?*%
%TF.SameCoordinates,Original*%
%TF.FileFunction,Drillmap*%
%TF.FilePolarity,Positive*%
%FSLAX45Y45*%
G04 Gerber Fmt 4.5, Leading zero omitted, Abs format (unit mm)*
G04 Created by KiCad (PCBNEW 9.0.6) date 2025-11-13 19:17:57*
%MOMM*%
%LPD*%
G01*
G04 APERTURE LIST*
%ADD10C,0.050000*%
%ADD11C,0.200000*%
%ADD12C,0.100000*%
G04 APERTURE END LIST*
D10*
X10025000Y-5300000D02*
X8025000Y-8750000D01*
X4550000Y-5750000D02*
X4550000Y-8750000D01*
X4550000Y-8750000D02*
X4025000Y-8750000D01*
X7500000Y-8750000D02*
X7500000Y-5750000D01*
X2075000Y-5350000D02*
X4025000Y-1850000D01*
X7500000Y-5750000D02*
X4550000Y-5750000D01*
X4025000Y-1850000D02*
X8025000Y-1850000D01*
X4025000Y-8750000D02*
X2075000Y-5350000D01*
X4200000Y-5300000D02*
G75*
G02*
X2900000Y-5300000I-650000J0D01*
G01*
X2900000Y-5300000D02*
G75*
G02*
X4200000Y-5300000I650000J0D01*
G01*
X8025000Y-1850000D02*
X10025000Y-5300000D01*
X9200000Y-5300000D02*
G75*
G02*
X7900000Y-5300000I-650000J0D01*
G01*
X7900000Y-5300000D02*
G75*
G02*
X9200000Y-5300000I650000J0D01*
G01*
X8025000Y-8750000D02*
X7500000Y-8750000D01*
D11*
D12*
X2835000Y-5885000D02*
X2865000Y-5915000D01*
X2865000Y-5885000D02*
X2835000Y-5915000D01*
X3685000Y-4385000D02*
X3715000Y-4415000D01*
X3715000Y-4385000D02*
X3685000Y-4415000D01*
X3985000Y-2985000D02*
X4015000Y-3015000D01*
X4015000Y-2985000D02*
X3985000Y-3015000D01*
X4185000Y-7285000D02*
X4215000Y-7315000D01*
X4215000Y-7285000D02*
X4185000Y-7315000D01*
X4335000Y-7935000D02*
X4365000Y-7965000D01*
X4365000Y-7935000D02*
X4335000Y-7965000D01*
X4535000Y-2435000D02*
X4565000Y-2465000D01*
X4565000Y-2435000D02*
X4535000Y-2465000D01*
X4585000Y-5535000D02*
X4615000Y-5565000D01*
X4615000Y-5535000D02*
X4585000Y-5565000D01*
X4735000Y-4335000D02*
X4765000Y-4365000D01*
X4765000Y-4335000D02*
X4735000Y-4365000D01*
X4885000Y-4785000D02*
X4915000Y-4815000D01*
X4915000Y-4785000D02*
X4885000Y-4815000D01*
X4923000Y-5185000D02*
X4953000Y-5215000D01*
X4953000Y-5185000D02*
X4923000Y-5215000D01*
X4935000Y-3320441D02*
X4965000Y-3350441D01*
X4965000Y-3320441D02*
X4935000Y-3350441D01*
X6085000Y-5485000D02*
X6115000Y-5515000D01*
X6115000Y-5485000D02*
X6085000Y-5515000D01*
X6635000Y-4435000D02*
X6665000Y-4465000D01*
X6665000Y-4435000D02*
X6635000Y-4465000D01*
X6985000Y-5135000D02*
X7015000Y-5165000D01*
X7015000Y-5135000D02*
X6985000Y-5165000D01*
X7435000Y-4385000D02*
X7465000Y-4415000D01*
X7465000Y-4385000D02*
X7435000Y-4415000D01*
X7823602Y-8335000D02*
X7853602Y-8365000D01*
X7853602Y-8335000D02*
X7823602Y-8365000D01*
X7835000Y-5935000D02*
X7865000Y-5965000D01*
X7865000Y-5935000D02*
X7835000Y-5965000D01*
X8385000Y-2985000D02*
X8415000Y-3015000D01*
X8415000Y-2985000D02*
X8385000Y-3015000D01*
X8385000Y-4085000D02*
X8415000Y-4115000D01*
X8415000Y-4085000D02*
X8385000Y-4115000D01*
X9185000Y-5985000D02*
X9215000Y-6015000D01*
X9215000Y-5985000D02*
X9185000Y-6015000D01*
X9535000Y-5185000D02*
X9565000Y-5215000D01*
X9565000Y-5185000D02*
X9535000Y-5215000D01*
X3440000Y-6950000D02*
G75*
G02*
X3360000Y-6950000I-40000J0D01*
G01*
X3360000Y-6950000D02*
G75*
G02*
X3440000Y-6950000I40000J0D01*
G01*
X3948000Y-7829882D02*
G75*
G02*
X3868000Y-7829882I-40000J0D01*
G01*
X3868000Y-7829882D02*
G75*
G02*
X3948000Y-7829882I40000J0D01*
G01*
X4040000Y-6620511D02*
G75*
G02*
X3960000Y-6620511I-40000J0D01*
G01*
X3960000Y-6620511D02*
G75*
G02*
X4040000Y-6620511I40000J0D01*
G01*
X4040000Y-6870511D02*
G75*
G02*
X3960000Y-6870511I-40000J0D01*
G01*
X3960000Y-6870511D02*
G75*
G02*
X4040000Y-6870511I40000J0D01*
G01*
X4285000Y-2084000D02*
G75*
G02*
X4205000Y-2084000I-40000J0D01*
G01*
X4205000Y-2084000D02*
G75*
G02*
X4285000Y-2084000I40000J0D01*
G01*
X4285000Y-3100000D02*
G75*
G02*
X4205000Y-3100000I-40000J0D01*
G01*
X4205000Y-3100000D02*
G75*
G02*
X4285000Y-3100000I40000J0D01*
G01*
X4640000Y-2084000D02*
G75*
G02*
X4560000Y-2084000I-40000J0D01*
G01*
X4560000Y-2084000D02*
G75*
G02*
X4640000Y-2084000I40000J0D01*
G01*
X4640000Y-3100000D02*
G75*
G02*
X4560000Y-3100000I-40000J0D01*
G01*
X4560000Y-3100000D02*
G75*
G02*
X4640000Y-3100000I40000J0D01*
G01*
X5335000Y-2084000D02*
G75*
G02*
X5255000Y-2084000I-40000J0D01*
G01*
X5255000Y-2084000D02*
G75*
G02*
X5335000Y-2084000I40000J0D01*
G01*
X5335000Y-3100000D02*
G75*
G02*
X5255000Y-3100000I-40000J0D01*
G01*
X5255000Y-3100000D02*
G75*
G02*
X5335000Y-3100000I40000J0D01*
G01*
X5690000Y-2084000D02*
G75*
G02*
X5610000Y-2084000I-40000J0D01*
G01*
X5610000Y-2084000D02*
G75*
G02*
X5690000Y-2084000I40000J0D01*
G01*
X5690000Y-3100000D02*
G75*
G02*
X5610000Y-3100000I-40000J0D01*
G01*
X5610000Y-3100000D02*
G75*
G02*
X5690000Y-3100000I40000J0D01*
G01*
X6435000Y-2084000D02*
G75*
G02*
X6355000Y-2084000I-40000J0D01*
G01*
X6355000Y-2084000D02*
G75*
G02*
X6435000Y-2084000I40000J0D01*
G01*
X6435000Y-3100000D02*
G75*
G02*
X6355000Y-3100000I-40000J0D01*
G01*
X6355000Y-3100000D02*
G75*
G02*
X6435000Y-3100000I40000J0D01*
G01*
X6790000Y-2084000D02*
G75*
G02*
X6710000Y-2084000I-40000J0D01*
G01*
X6710000Y-2084000D02*
G75*
G02*
X6790000Y-2084000I40000J0D01*
G01*
X6790000Y-3100000D02*
G75*
G02*
X6710000Y-3100000I-40000J0D01*
G01*
X6710000Y-3100000D02*
G75*
G02*
X6790000Y-3100000I40000J0D01*
G01*
X7435000Y-2084000D02*
G75*
G02*
X7355000Y-2084000I-40000J0D01*
G01*
X7355000Y-2084000D02*
G75*
G02*
X7435000Y-2084000I40000J0D01*
G01*
X7435000Y-3100000D02*
G75*
G02*
X7355000Y-3100000I-40000J0D01*
G01*
X7355000Y-3100000D02*
G75*
G02*
X7435000Y-3100000I40000J0D01*
G01*
X7790000Y-2084000D02*
G75*
G02*
X7710000Y-2084000I-40000J0D01*
G01*
X7710000Y-2084000D02*
G75*
G02*
X7790000Y-2084000I40000J0D01*
G01*
X7790000Y-3100000D02*
G75*
G02*
X7710000Y-3100000I-40000J0D01*
G01*
X7710000Y-3100000D02*
G75*
G02*
X7790000Y-3100000I40000J0D01*
G01*
X4096000Y-8255000D02*
X4096000Y-8345000D01*
X4051000Y-8300000D02*
X4141000Y-8300000D01*
X4350000Y-8255000D02*
X4350000Y-8345000D01*
X4305000Y-8300000D02*
X4395000Y-8300000D01*
X3085356Y-6335356D02*
X3085356Y-6264644D01*
X3014644Y-6264644D01*
X3014644Y-6335356D01*
X3085356Y-6335356D01*
X3212356Y-6555326D02*
X3212356Y-6484615D01*
X3141644Y-6484615D01*
X3141644Y-6555326D01*
X3212356Y-6555326D01*
X4331356Y-3585356D02*
X4331356Y-3514644D01*
X4260644Y-3514644D01*
X4260644Y-3585356D01*
X4331356Y-3585356D01*
X4585356Y-3585356D02*
X4585356Y-3514644D01*
X4514644Y-3514644D01*
X4514644Y-3585356D01*
X4585356Y-3585356D01*
X4973356Y-5535356D02*
X4973356Y-5464644D01*
X4902644Y-5464644D01*
X4902644Y-5535356D01*
X4973356Y-5535356D01*
X5227356Y-5535356D02*
X5227356Y-5464644D01*
X5156644Y-5464644D01*
X5156644Y-5535356D01*
X5227356Y-5535356D01*
X5358856Y-3585356D02*
X5358856Y-3514644D01*
X5288144Y-3514644D01*
X5288144Y-3585356D01*
X5358856Y-3585356D01*
X5481356Y-5535356D02*
X5481356Y-5464644D01*
X5410644Y-5464644D01*
X5410644Y-5535356D01*
X5481356Y-5535356D01*
X5612856Y-3585356D02*
X5612856Y-3514644D01*
X5542144Y-3514644D01*
X5542144Y-3585356D01*
X5612856Y-3585356D01*
X5735356Y-5535356D02*
X5735356Y-5464644D01*
X5664644Y-5464644D01*
X5664644Y-5535356D01*
X5735356Y-5535356D01*
X6473356Y-5535356D02*
X6473356Y-5464644D01*
X6402644Y-5464644D01*
X6402644Y-5535356D01*
X6473356Y-5535356D01*
X6481356Y-3585356D02*
X6481356Y-3514644D01*
X6410644Y-3514644D01*
X6410644Y-3585356D01*
X6481356Y-3585356D01*
X6727356Y-5535356D02*
X6727356Y-5464644D01*
X6656644Y-5464644D01*
X6656644Y-5535356D01*
X6727356Y-5535356D01*
X6735356Y-3585356D02*
X6735356Y-3514644D01*
X6664644Y-3514644D01*
X6664644Y-3585356D01*
X6735356Y-3585356D01*
X6981356Y-5535356D02*
X6981356Y-5464644D01*
X6910644Y-5464644D01*
X6910644Y-5535356D01*
X6981356Y-5535356D01*
X7235356Y-5535356D02*
X7235356Y-5464644D01*
X7164644Y-5464644D01*
X7164644Y-5535356D01*
X7235356Y-5535356D01*
X7485356Y-3585356D02*
X7485356Y-3514644D01*
X7414645Y-3514644D01*
X7414645Y-3585356D01*
X7485356Y-3585356D01*
X7739356Y-3585356D02*
X7739356Y-3514644D01*
X7668645Y-3514644D01*
X7668645Y-3585356D01*
X7739356Y-3585356D01*
D11*
X2333277Y-9063984D02*
X2333277Y-8863984D01*
X2333277Y-8863984D02*
X2380896Y-8863984D01*
X2380896Y-8863984D02*
X2409467Y-8873508D01*
X2409467Y-8873508D02*
X2428515Y-8892555D01*
X2428515Y-8892555D02*
X2438039Y-8911603D01*
X2438039Y-8911603D02*
X2447563Y-8949698D01*
X2447563Y-8949698D02*
X2447563Y-8978270D01*
X2447563Y-8978270D02*
X2438039Y-9016365D01*
X2438039Y-9016365D02*
X2428515Y-9035412D01*
X2428515Y-9035412D02*
X2409467Y-9054460D01*
X2409467Y-9054460D02*
X2380896Y-9063984D01*
X2380896Y-9063984D02*
X2333277Y-9063984D01*
X2533277Y-9063984D02*
X2533277Y-8930650D01*
X2533277Y-8968746D02*
X2542801Y-8949698D01*
X2542801Y-8949698D02*
X2552324Y-8940174D01*
X2552324Y-8940174D02*
X2571372Y-8930650D01*
X2571372Y-8930650D02*
X2590420Y-8930650D01*
X2657086Y-9063984D02*
X2657086Y-8930650D01*
X2657086Y-8863984D02*
X2647563Y-8873508D01*
X2647563Y-8873508D02*
X2657086Y-8883031D01*
X2657086Y-8883031D02*
X2666610Y-8873508D01*
X2666610Y-8873508D02*
X2657086Y-8863984D01*
X2657086Y-8863984D02*
X2657086Y-8883031D01*
X2780896Y-9063984D02*
X2761848Y-9054460D01*
X2761848Y-9054460D02*
X2752324Y-9035412D01*
X2752324Y-9035412D02*
X2752324Y-8863984D01*
X2885658Y-9063984D02*
X2866610Y-9054460D01*
X2866610Y-9054460D02*
X2857086Y-9035412D01*
X2857086Y-9035412D02*
X2857086Y-8863984D01*
X3114229Y-9063984D02*
X3114229Y-8863984D01*
X3114229Y-8863984D02*
X3180896Y-9006841D01*
X3180896Y-9006841D02*
X3247562Y-8863984D01*
X3247562Y-8863984D02*
X3247562Y-9063984D01*
X3428515Y-9063984D02*
X3428515Y-8959222D01*
X3428515Y-8959222D02*
X3418991Y-8940174D01*
X3418991Y-8940174D02*
X3399943Y-8930650D01*
X3399943Y-8930650D02*
X3361848Y-8930650D01*
X3361848Y-8930650D02*
X3342801Y-8940174D01*
X3428515Y-9054460D02*
X3409467Y-9063984D01*
X3409467Y-9063984D02*
X3361848Y-9063984D01*
X3361848Y-9063984D02*
X3342801Y-9054460D01*
X3342801Y-9054460D02*
X3333277Y-9035412D01*
X3333277Y-9035412D02*
X3333277Y-9016365D01*
X3333277Y-9016365D02*
X3342801Y-8997317D01*
X3342801Y-8997317D02*
X3361848Y-8987793D01*
X3361848Y-8987793D02*
X3409467Y-8987793D01*
X3409467Y-8987793D02*
X3428515Y-8978270D01*
X3523753Y-8930650D02*
X3523753Y-9130650D01*
X3523753Y-8940174D02*
X3542801Y-8930650D01*
X3542801Y-8930650D02*
X3580896Y-8930650D01*
X3580896Y-8930650D02*
X3599943Y-8940174D01*
X3599943Y-8940174D02*
X3609467Y-8949698D01*
X3609467Y-8949698D02*
X3618991Y-8968746D01*
X3618991Y-8968746D02*
X3618991Y-9025889D01*
X3618991Y-9025889D02*
X3609467Y-9044936D01*
X3609467Y-9044936D02*
X3599943Y-9054460D01*
X3599943Y-9054460D02*
X3580896Y-9063984D01*
X3580896Y-9063984D02*
X3542801Y-9063984D01*
X3542801Y-9063984D02*
X3523753Y-9054460D01*
X3704705Y-9044936D02*
X3714229Y-9054460D01*
X3714229Y-9054460D02*
X3704705Y-9063984D01*
X3704705Y-9063984D02*
X3695182Y-9054460D01*
X3695182Y-9054460D02*
X3704705Y-9044936D01*
X3704705Y-9044936D02*
X3704705Y-9063984D01*
X3704705Y-8940174D02*
X3714229Y-8949698D01*
X3714229Y-8949698D02*
X3704705Y-8959222D01*
X3704705Y-8959222D02*
X3695182Y-8949698D01*
X3695182Y-8949698D02*
X3704705Y-8940174D01*
X3704705Y-8940174D02*
X3704705Y-8959222D01*
D12*
X2042500Y-9377500D02*
X2072500Y-9407500D01*
X2072500Y-9377500D02*
X2042500Y-9407500D01*
D11*
X2371372Y-9283984D02*
X2390420Y-9283984D01*
X2390420Y-9283984D02*
X2409467Y-9293508D01*
X2409467Y-9293508D02*
X2418991Y-9303031D01*
X2418991Y-9303031D02*
X2428515Y-9322079D01*
X2428515Y-9322079D02*
X2438039Y-9360174D01*
X2438039Y-9360174D02*
X2438039Y-9407793D01*
X2438039Y-9407793D02*
X2428515Y-9445889D01*
X2428515Y-9445889D02*
X2418991Y-9464936D01*
X2418991Y-9464936D02*
X2409467Y-9474460D01*
X2409467Y-9474460D02*
X2390420Y-9483984D01*
X2390420Y-9483984D02*
X2371372Y-9483984D01*
X2371372Y-9483984D02*
X2352324Y-9474460D01*
X2352324Y-9474460D02*
X2342801Y-9464936D01*
X2342801Y-9464936D02*
X2333277Y-9445889D01*
X2333277Y-9445889D02*
X2323753Y-9407793D01*
X2323753Y-9407793D02*
X2323753Y-9360174D01*
X2323753Y-9360174D02*
X2333277Y-9322079D01*
X2333277Y-9322079D02*
X2342801Y-9303031D01*
X2342801Y-9303031D02*
X2352324Y-9293508D01*
X2352324Y-9293508D02*
X2371372Y-9283984D01*
X2523753Y-9464936D02*
X2533277Y-9474460D01*
X2533277Y-9474460D02*
X2523753Y-9483984D01*
X2523753Y-9483984D02*
X2514229Y-9474460D01*
X2514229Y-9474460D02*
X2523753Y-9464936D01*
X2523753Y-9464936D02*
X2523753Y-9483984D01*
X2599944Y-9283984D02*
X2723753Y-9283984D01*
X2723753Y-9283984D02*
X2657086Y-9360174D01*
X2657086Y-9360174D02*
X2685658Y-9360174D01*
X2685658Y-9360174D02*
X2704705Y-9369698D01*
X2704705Y-9369698D02*
X2714229Y-9379222D01*
X2714229Y-9379222D02*
X2723753Y-9398270D01*
X2723753Y-9398270D02*
X2723753Y-9445889D01*
X2723753Y-9445889D02*
X2714229Y-9464936D01*
X2714229Y-9464936D02*
X2704705Y-9474460D01*
X2704705Y-9474460D02*
X2685658Y-9483984D01*
X2685658Y-9483984D02*
X2628515Y-9483984D01*
X2628515Y-9483984D02*
X2609467Y-9474460D01*
X2609467Y-9474460D02*
X2599944Y-9464936D01*
X2847562Y-9283984D02*
X2866610Y-9283984D01*
X2866610Y-9283984D02*
X2885658Y-9293508D01*
X2885658Y-9293508D02*
X2895182Y-9303031D01*
X2895182Y-9303031D02*
X2904705Y-9322079D01*
X2904705Y-9322079D02*
X2914229Y-9360174D01*
X2914229Y-9360174D02*
X2914229Y-9407793D01*
X2914229Y-9407793D02*
X2904705Y-9445889D01*
X2904705Y-9445889D02*
X2895182Y-9464936D01*
X2895182Y-9464936D02*
X2885658Y-9474460D01*
X2885658Y-9474460D02*
X2866610Y-9483984D01*
X2866610Y-9483984D02*
X2847562Y-9483984D01*
X2847562Y-9483984D02*
X2828515Y-9474460D01*
X2828515Y-9474460D02*
X2818991Y-9464936D01*
X2818991Y-9464936D02*
X2809467Y-9445889D01*
X2809467Y-9445889D02*
X2799943Y-9407793D01*
X2799943Y-9407793D02*
X2799943Y-9360174D01*
X2799943Y-9360174D02*
X2809467Y-9322079D01*
X2809467Y-9322079D02*
X2818991Y-9303031D01*
X2818991Y-9303031D02*
X2828515Y-9293508D01*
X2828515Y-9293508D02*
X2847562Y-9283984D01*
X3038039Y-9283984D02*
X3057086Y-9283984D01*
X3057086Y-9283984D02*
X3076134Y-9293508D01*
X3076134Y-9293508D02*
X3085658Y-9303031D01*
X3085658Y-9303031D02*
X3095182Y-9322079D01*
X3095182Y-9322079D02*
X3104705Y-9360174D01*
X3104705Y-9360174D02*
X3104705Y-9407793D01*
X3104705Y-9407793D02*
X3095182Y-9445889D01*
X3095182Y-9445889D02*
X3085658Y-9464936D01*
X3085658Y-9464936D02*
X3076134Y-9474460D01*
X3076134Y-9474460D02*
X3057086Y-9483984D01*
X3057086Y-9483984D02*
X3038039Y-9483984D01*
X3038039Y-9483984D02*
X3018991Y-9474460D01*
X3018991Y-9474460D02*
X3009467Y-9464936D01*
X3009467Y-9464936D02*
X2999943Y-9445889D01*
X2999943Y-9445889D02*
X2990420Y-9407793D01*
X2990420Y-9407793D02*
X2990420Y-9360174D01*
X2990420Y-9360174D02*
X2999943Y-9322079D01*
X2999943Y-9322079D02*
X3009467Y-9303031D01*
X3009467Y-9303031D02*
X3018991Y-9293508D01*
X3018991Y-9293508D02*
X3038039Y-9283984D01*
X3190420Y-9483984D02*
X3190420Y-9350650D01*
X3190420Y-9369698D02*
X3199943Y-9360174D01*
X3199943Y-9360174D02*
X3218991Y-9350650D01*
X3218991Y-9350650D02*
X3247563Y-9350650D01*
X3247563Y-9350650D02*
X3266610Y-9360174D01*
X3266610Y-9360174D02*
X3276134Y-9379222D01*
X3276134Y-9379222D02*
X3276134Y-9483984D01*
X3276134Y-9379222D02*
X3285658Y-9360174D01*
X3285658Y-9360174D02*
X3304705Y-9350650D01*
X3304705Y-9350650D02*
X3333277Y-9350650D01*
X3333277Y-9350650D02*
X3352324Y-9360174D01*
X3352324Y-9360174D02*
X3361848Y-9379222D01*
X3361848Y-9379222D02*
X3361848Y-9483984D01*
X3457086Y-9483984D02*
X3457086Y-9350650D01*
X3457086Y-9369698D02*
X3466610Y-9360174D01*
X3466610Y-9360174D02*
X3485658Y-9350650D01*
X3485658Y-9350650D02*
X3514229Y-9350650D01*
X3514229Y-9350650D02*
X3533277Y-9360174D01*
X3533277Y-9360174D02*
X3542801Y-9379222D01*
X3542801Y-9379222D02*
X3542801Y-9483984D01*
X3542801Y-9379222D02*
X3552324Y-9360174D01*
X3552324Y-9360174D02*
X3571372Y-9350650D01*
X3571372Y-9350650D02*
X3599943Y-9350650D01*
X3599943Y-9350650D02*
X3618991Y-9360174D01*
X3618991Y-9360174D02*
X3628515Y-9379222D01*
X3628515Y-9379222D02*
X3628515Y-9483984D01*
X4018991Y-9274460D02*
X3847563Y-9531603D01*
X4276134Y-9283984D02*
X4295182Y-9283984D01*
X4295182Y-9283984D02*
X4314229Y-9293508D01*
X4314229Y-9293508D02*
X4323753Y-9303031D01*
X4323753Y-9303031D02*
X4333277Y-9322079D01*
X4333277Y-9322079D02*
X4342801Y-9360174D01*
X4342801Y-9360174D02*
X4342801Y-9407793D01*
X4342801Y-9407793D02*
X4333277Y-9445889D01*
X4333277Y-9445889D02*
X4323753Y-9464936D01*
X4323753Y-9464936D02*
X4314229Y-9474460D01*
X4314229Y-9474460D02*
X4295182Y-9483984D01*
X4295182Y-9483984D02*
X4276134Y-9483984D01*
X4276134Y-9483984D02*
X4257087Y-9474460D01*
X4257087Y-9474460D02*
X4247563Y-9464936D01*
X4247563Y-9464936D02*
X4238039Y-9445889D01*
X4238039Y-9445889D02*
X4228515Y-9407793D01*
X4228515Y-9407793D02*
X4228515Y-9360174D01*
X4228515Y-9360174D02*
X4238039Y-9322079D01*
X4238039Y-9322079D02*
X4247563Y-9303031D01*
X4247563Y-9303031D02*
X4257087Y-9293508D01*
X4257087Y-9293508D02*
X4276134Y-9283984D01*
X4428515Y-9464936D02*
X4438039Y-9474460D01*
X4438039Y-9474460D02*
X4428515Y-9483984D01*
X4428515Y-9483984D02*
X4418991Y-9474460D01*
X4418991Y-9474460D02*
X4428515Y-9464936D01*
X4428515Y-9464936D02*
X4428515Y-9483984D01*
X4561848Y-9283984D02*
X4580896Y-9283984D01*
X4580896Y-9283984D02*
X4599944Y-9293508D01*
X4599944Y-9293508D02*
X4609468Y-9303031D01*
X4609468Y-9303031D02*
X4618991Y-9322079D01*
X4618991Y-9322079D02*
X4628515Y-9360174D01*
X4628515Y-9360174D02*
X4628515Y-9407793D01*
X4628515Y-9407793D02*
X4618991Y-9445889D01*
X4618991Y-9445889D02*
X4609468Y-9464936D01*
X4609468Y-9464936D02*
X4599944Y-9474460D01*
X4599944Y-9474460D02*
X4580896Y-9483984D01*
X4580896Y-9483984D02*
X4561848Y-9483984D01*
X4561848Y-9483984D02*
X4542801Y-9474460D01*
X4542801Y-9474460D02*
X4533277Y-9464936D01*
X4533277Y-9464936D02*
X4523753Y-9445889D01*
X4523753Y-9445889D02*
X4514229Y-9407793D01*
X4514229Y-9407793D02*
X4514229Y-9360174D01*
X4514229Y-9360174D02*
X4523753Y-9322079D01*
X4523753Y-9322079D02*
X4533277Y-9303031D01*
X4533277Y-9303031D02*
X4542801Y-9293508D01*
X4542801Y-9293508D02*
X4561848Y-9283984D01*
X4818991Y-9483984D02*
X4704706Y-9483984D01*
X4761848Y-9483984D02*
X4761848Y-9283984D01*
X4761848Y-9283984D02*
X4742801Y-9312555D01*
X4742801Y-9312555D02*
X4723753Y-9331603D01*
X4723753Y-9331603D02*
X4704706Y-9341127D01*
X5009468Y-9483984D02*
X4895182Y-9483984D01*
X4952325Y-9483984D02*
X4952325Y-9283984D01*
X4952325Y-9283984D02*
X4933277Y-9312555D01*
X4933277Y-9312555D02*
X4914229Y-9331603D01*
X4914229Y-9331603D02*
X4895182Y-9341127D01*
X5123753Y-9369698D02*
X5104706Y-9360174D01*
X5104706Y-9360174D02*
X5095182Y-9350650D01*
X5095182Y-9350650D02*
X5085658Y-9331603D01*
X5085658Y-9331603D02*
X5085658Y-9322079D01*
X5085658Y-9322079D02*
X5095182Y-9303031D01*
X5095182Y-9303031D02*
X5104706Y-9293508D01*
X5104706Y-9293508D02*
X5123753Y-9283984D01*
X5123753Y-9283984D02*
X5161849Y-9283984D01*
X5161849Y-9283984D02*
X5180896Y-9293508D01*
X5180896Y-9293508D02*
X5190420Y-9303031D01*
X5190420Y-9303031D02*
X5199944Y-9322079D01*
X5199944Y-9322079D02*
X5199944Y-9331603D01*
X5199944Y-9331603D02*
X5190420Y-9350650D01*
X5190420Y-9350650D02*
X5180896Y-9360174D01*
X5180896Y-9360174D02*
X5161849Y-9369698D01*
X5161849Y-9369698D02*
X5123753Y-9369698D01*
X5123753Y-9369698D02*
X5104706Y-9379222D01*
X5104706Y-9379222D02*
X5095182Y-9388746D01*
X5095182Y-9388746D02*
X5085658Y-9407793D01*
X5085658Y-9407793D02*
X5085658Y-9445889D01*
X5085658Y-9445889D02*
X5095182Y-9464936D01*
X5095182Y-9464936D02*
X5104706Y-9474460D01*
X5104706Y-9474460D02*
X5123753Y-9483984D01*
X5123753Y-9483984D02*
X5161849Y-9483984D01*
X5161849Y-9483984D02*
X5180896Y-9474460D01*
X5180896Y-9474460D02*
X5190420Y-9464936D01*
X5190420Y-9464936D02*
X5199944Y-9445889D01*
X5199944Y-9445889D02*
X5199944Y-9407793D01*
X5199944Y-9407793D02*
X5190420Y-9388746D01*
X5190420Y-9388746D02*
X5180896Y-9379222D01*
X5180896Y-9379222D02*
X5161849Y-9369698D01*
X5276134Y-9283984D02*
X5276134Y-9322079D01*
X5352325Y-9283984D02*
X5352325Y-9322079D01*
X5647563Y-9560174D02*
X5638039Y-9550650D01*
X5638039Y-9550650D02*
X5618991Y-9522079D01*
X5618991Y-9522079D02*
X5609468Y-9503031D01*
X5609468Y-9503031D02*
X5599944Y-9474460D01*
X5599944Y-9474460D02*
X5590420Y-9426841D01*
X5590420Y-9426841D02*
X5590420Y-9388746D01*
X5590420Y-9388746D02*
X5599944Y-9341127D01*
X5599944Y-9341127D02*
X5609468Y-9312555D01*
X5609468Y-9312555D02*
X5618991Y-9293508D01*
X5618991Y-9293508D02*
X5638039Y-9264936D01*
X5638039Y-9264936D02*
X5647563Y-9255412D01*
X5714229Y-9303031D02*
X5723753Y-9293508D01*
X5723753Y-9293508D02*
X5742801Y-9283984D01*
X5742801Y-9283984D02*
X5790420Y-9283984D01*
X5790420Y-9283984D02*
X5809468Y-9293508D01*
X5809468Y-9293508D02*
X5818991Y-9303031D01*
X5818991Y-9303031D02*
X5828515Y-9322079D01*
X5828515Y-9322079D02*
X5828515Y-9341127D01*
X5828515Y-9341127D02*
X5818991Y-9369698D01*
X5818991Y-9369698D02*
X5704706Y-9483984D01*
X5704706Y-9483984D02*
X5828515Y-9483984D01*
X6018991Y-9483984D02*
X5904706Y-9483984D01*
X5961848Y-9483984D02*
X5961848Y-9283984D01*
X5961848Y-9283984D02*
X5942801Y-9312555D01*
X5942801Y-9312555D02*
X5923753Y-9331603D01*
X5923753Y-9331603D02*
X5904706Y-9341127D01*
X6257087Y-9483984D02*
X6257087Y-9283984D01*
X6342801Y-9483984D02*
X6342801Y-9379222D01*
X6342801Y-9379222D02*
X6333277Y-9360174D01*
X6333277Y-9360174D02*
X6314230Y-9350650D01*
X6314230Y-9350650D02*
X6285658Y-9350650D01*
X6285658Y-9350650D02*
X6266610Y-9360174D01*
X6266610Y-9360174D02*
X6257087Y-9369698D01*
X6466610Y-9483984D02*
X6447563Y-9474460D01*
X6447563Y-9474460D02*
X6438039Y-9464936D01*
X6438039Y-9464936D02*
X6428515Y-9445889D01*
X6428515Y-9445889D02*
X6428515Y-9388746D01*
X6428515Y-9388746D02*
X6438039Y-9369698D01*
X6438039Y-9369698D02*
X6447563Y-9360174D01*
X6447563Y-9360174D02*
X6466610Y-9350650D01*
X6466610Y-9350650D02*
X6495182Y-9350650D01*
X6495182Y-9350650D02*
X6514230Y-9360174D01*
X6514230Y-9360174D02*
X6523753Y-9369698D01*
X6523753Y-9369698D02*
X6533277Y-9388746D01*
X6533277Y-9388746D02*
X6533277Y-9445889D01*
X6533277Y-9445889D02*
X6523753Y-9464936D01*
X6523753Y-9464936D02*
X6514230Y-9474460D01*
X6514230Y-9474460D02*
X6495182Y-9483984D01*
X6495182Y-9483984D02*
X6466610Y-9483984D01*
X6647563Y-9483984D02*
X6628515Y-9474460D01*
X6628515Y-9474460D02*
X6618991Y-9455412D01*
X6618991Y-9455412D02*
X6618991Y-9283984D01*
X6799944Y-9474460D02*
X6780896Y-9483984D01*
X6780896Y-9483984D02*
X6742801Y-9483984D01*
X6742801Y-9483984D02*
X6723753Y-9474460D01*
X6723753Y-9474460D02*
X6714230Y-9455412D01*
X6714230Y-9455412D02*
X6714230Y-9379222D01*
X6714230Y-9379222D02*
X6723753Y-9360174D01*
X6723753Y-9360174D02*
X6742801Y-9350650D01*
X6742801Y-9350650D02*
X6780896Y-9350650D01*
X6780896Y-9350650D02*
X6799944Y-9360174D01*
X6799944Y-9360174D02*
X6809468Y-9379222D01*
X6809468Y-9379222D02*
X6809468Y-9398270D01*
X6809468Y-9398270D02*
X6714230Y-9417317D01*
X6885658Y-9474460D02*
X6904706Y-9483984D01*
X6904706Y-9483984D02*
X6942801Y-9483984D01*
X6942801Y-9483984D02*
X6961849Y-9474460D01*
X6961849Y-9474460D02*
X6971372Y-9455412D01*
X6971372Y-9455412D02*
X6971372Y-9445889D01*
X6971372Y-9445889D02*
X6961849Y-9426841D01*
X6961849Y-9426841D02*
X6942801Y-9417317D01*
X6942801Y-9417317D02*
X6914230Y-9417317D01*
X6914230Y-9417317D02*
X6895182Y-9407793D01*
X6895182Y-9407793D02*
X6885658Y-9388746D01*
X6885658Y-9388746D02*
X6885658Y-9379222D01*
X6885658Y-9379222D02*
X6895182Y-9360174D01*
X6895182Y-9360174D02*
X6914230Y-9350650D01*
X6914230Y-9350650D02*
X6942801Y-9350650D01*
X6942801Y-9350650D02*
X6961849Y-9360174D01*
X7038039Y-9560174D02*
X7047563Y-9550650D01*
X7047563Y-9550650D02*
X7066611Y-9522079D01*
X7066611Y-9522079D02*
X7076134Y-9503031D01*
X7076134Y-9503031D02*
X7085658Y-9474460D01*
X7085658Y-9474460D02*
X7095182Y-9426841D01*
X7095182Y-9426841D02*
X7095182Y-9388746D01*
X7095182Y-9388746D02*
X7085658Y-9341127D01*
X7085658Y-9341127D02*
X7076134Y-9312555D01*
X7076134Y-9312555D02*
X7066611Y-9293508D01*
X7066611Y-9293508D02*
X7047563Y-9264936D01*
X7047563Y-9264936D02*
X7038039Y-9255412D01*
D12*
X2072500Y-9656500D02*
G75*
G02*
X1992500Y-9656500I-40000J0D01*
G01*
X1992500Y-9656500D02*
G75*
G02*
X2072500Y-9656500I40000J0D01*
G01*
D11*
X2371372Y-9547984D02*
X2390420Y-9547984D01*
X2390420Y-9547984D02*
X2409467Y-9557508D01*
X2409467Y-9557508D02*
X2418991Y-9567031D01*
X2418991Y-9567031D02*
X2428515Y-9586079D01*
X2428515Y-9586079D02*
X2438039Y-9624174D01*
X2438039Y-9624174D02*
X2438039Y-9671793D01*
X2438039Y-9671793D02*
X2428515Y-9709889D01*
X2428515Y-9709889D02*
X2418991Y-9728936D01*
X2418991Y-9728936D02*
X2409467Y-9738460D01*
X2409467Y-9738460D02*
X2390420Y-9747984D01*
X2390420Y-9747984D02*
X2371372Y-9747984D01*
X2371372Y-9747984D02*
X2352324Y-9738460D01*
X2352324Y-9738460D02*
X2342801Y-9728936D01*
X2342801Y-9728936D02*
X2333277Y-9709889D01*
X2333277Y-9709889D02*
X2323753Y-9671793D01*
X2323753Y-9671793D02*
X2323753Y-9624174D01*
X2323753Y-9624174D02*
X2333277Y-9586079D01*
X2333277Y-9586079D02*
X2342801Y-9567031D01*
X2342801Y-9567031D02*
X2352324Y-9557508D01*
X2352324Y-9557508D02*
X2371372Y-9547984D01*
X2523753Y-9728936D02*
X2533277Y-9738460D01*
X2533277Y-9738460D02*
X2523753Y-9747984D01*
X2523753Y-9747984D02*
X2514229Y-9738460D01*
X2514229Y-9738460D02*
X2523753Y-9728936D01*
X2523753Y-9728936D02*
X2523753Y-9747984D01*
X2647563Y-9633698D02*
X2628515Y-9624174D01*
X2628515Y-9624174D02*
X2618991Y-9614650D01*
X2618991Y-9614650D02*
X2609467Y-9595603D01*
X2609467Y-9595603D02*
X2609467Y-9586079D01*
X2609467Y-9586079D02*
X2618991Y-9567031D01*
X2618991Y-9567031D02*
X2628515Y-9557508D01*
X2628515Y-9557508D02*
X2647563Y-9547984D01*
X2647563Y-9547984D02*
X2685658Y-9547984D01*
X2685658Y-9547984D02*
X2704705Y-9557508D01*
X2704705Y-9557508D02*
X2714229Y-9567031D01*
X2714229Y-9567031D02*
X2723753Y-9586079D01*
X2723753Y-9586079D02*
X2723753Y-9595603D01*
X2723753Y-9595603D02*
X2714229Y-9614650D01*
X2714229Y-9614650D02*
X2704705Y-9624174D01*
X2704705Y-9624174D02*
X2685658Y-9633698D01*
X2685658Y-9633698D02*
X2647563Y-9633698D01*
X2647563Y-9633698D02*
X2628515Y-9643222D01*
X2628515Y-9643222D02*
X2618991Y-9652746D01*
X2618991Y-9652746D02*
X2609467Y-9671793D01*
X2609467Y-9671793D02*
X2609467Y-9709889D01*
X2609467Y-9709889D02*
X2618991Y-9728936D01*
X2618991Y-9728936D02*
X2628515Y-9738460D01*
X2628515Y-9738460D02*
X2647563Y-9747984D01*
X2647563Y-9747984D02*
X2685658Y-9747984D01*
X2685658Y-9747984D02*
X2704705Y-9738460D01*
X2704705Y-9738460D02*
X2714229Y-9728936D01*
X2714229Y-9728936D02*
X2723753Y-9709889D01*
X2723753Y-9709889D02*
X2723753Y-9671793D01*
X2723753Y-9671793D02*
X2714229Y-9652746D01*
X2714229Y-9652746D02*
X2704705Y-9643222D01*
X2704705Y-9643222D02*
X2685658Y-9633698D01*
X2847562Y-9547984D02*
X2866610Y-9547984D01*
X2866610Y-9547984D02*
X2885658Y-9557508D01*
X2885658Y-9557508D02*
X2895182Y-9567031D01*
X2895182Y-9567031D02*
X2904705Y-9586079D01*
X2904705Y-9586079D02*
X2914229Y-9624174D01*
X2914229Y-9624174D02*
X2914229Y-9671793D01*
X2914229Y-9671793D02*
X2904705Y-9709889D01*
X2904705Y-9709889D02*
X2895182Y-9728936D01*
X2895182Y-9728936D02*
X2885658Y-9738460D01*
X2885658Y-9738460D02*
X2866610Y-9747984D01*
X2866610Y-9747984D02*
X2847562Y-9747984D01*
X2847562Y-9747984D02*
X2828515Y-9738460D01*
X2828515Y-9738460D02*
X2818991Y-9728936D01*
X2818991Y-9728936D02*
X2809467Y-9709889D01*
X2809467Y-9709889D02*
X2799943Y-9671793D01*
X2799943Y-9671793D02*
X2799943Y-9624174D01*
X2799943Y-9624174D02*
X2809467Y-9586079D01*
X2809467Y-9586079D02*
X2818991Y-9567031D01*
X2818991Y-9567031D02*
X2828515Y-9557508D01*
X2828515Y-9557508D02*
X2847562Y-9547984D01*
X3038039Y-9547984D02*
X3057086Y-9547984D01*
X3057086Y-9547984D02*
X3076134Y-9557508D01*
X3076134Y-9557508D02*
X3085658Y-9567031D01*
X3085658Y-9567031D02*
X3095182Y-9586079D01*
X3095182Y-9586079D02*
X3104705Y-9624174D01*
X3104705Y-9624174D02*
X3104705Y-9671793D01*
X3104705Y-9671793D02*
X3095182Y-9709889D01*
X3095182Y-9709889D02*
X3085658Y-9728936D01*
X3085658Y-9728936D02*
X3076134Y-9738460D01*
X3076134Y-9738460D02*
X3057086Y-9747984D01*
X3057086Y-9747984D02*
X3038039Y-9747984D01*
X3038039Y-9747984D02*
X3018991Y-9738460D01*
X3018991Y-9738460D02*
X3009467Y-9728936D01*
X3009467Y-9728936D02*
X2999943Y-9709889D01*
X2999943Y-9709889D02*
X2990420Y-9671793D01*
X2990420Y-9671793D02*
X2990420Y-9624174D01*
X2990420Y-9624174D02*
X2999943Y-9586079D01*
X2999943Y-9586079D02*
X3009467Y-9567031D01*
X3009467Y-9567031D02*
X3018991Y-9557508D01*
X3018991Y-9557508D02*
X3038039Y-9547984D01*
X3190420Y-9747984D02*
X3190420Y-9614650D01*
X3190420Y-9633698D02*
X3199943Y-9624174D01*
X3199943Y-9624174D02*
X3218991Y-9614650D01*
X3218991Y-9614650D02*
X3247563Y-9614650D01*
X3247563Y-9614650D02*
X3266610Y-9624174D01*
X3266610Y-9624174D02*
X3276134Y-9643222D01*
X3276134Y-9643222D02*
X3276134Y-9747984D01*
X3276134Y-9643222D02*
X3285658Y-9624174D01*
X3285658Y-9624174D02*
X3304705Y-9614650D01*
X3304705Y-9614650D02*
X3333277Y-9614650D01*
X3333277Y-9614650D02*
X3352324Y-9624174D01*
X3352324Y-9624174D02*
X3361848Y-9643222D01*
X3361848Y-9643222D02*
X3361848Y-9747984D01*
X3457086Y-9747984D02*
X3457086Y-9614650D01*
X3457086Y-9633698D02*
X3466610Y-9624174D01*
X3466610Y-9624174D02*
X3485658Y-9614650D01*
X3485658Y-9614650D02*
X3514229Y-9614650D01*
X3514229Y-9614650D02*
X3533277Y-9624174D01*
X3533277Y-9624174D02*
X3542801Y-9643222D01*
X3542801Y-9643222D02*
X3542801Y-9747984D01*
X3542801Y-9643222D02*
X3552324Y-9624174D01*
X3552324Y-9624174D02*
X3571372Y-9614650D01*
X3571372Y-9614650D02*
X3599943Y-9614650D01*
X3599943Y-9614650D02*
X3618991Y-9624174D01*
X3618991Y-9624174D02*
X3628515Y-9643222D01*
X3628515Y-9643222D02*
X3628515Y-9747984D01*
X4018991Y-9538460D02*
X3847563Y-9795603D01*
X4276134Y-9547984D02*
X4295182Y-9547984D01*
X4295182Y-9547984D02*
X4314229Y-9557508D01*
X4314229Y-9557508D02*
X4323753Y-9567031D01*
X4323753Y-9567031D02*
X4333277Y-9586079D01*
X4333277Y-9586079D02*
X4342801Y-9624174D01*
X4342801Y-9624174D02*
X4342801Y-9671793D01*
X4342801Y-9671793D02*
X4333277Y-9709889D01*
X4333277Y-9709889D02*
X4323753Y-9728936D01*
X4323753Y-9728936D02*
X4314229Y-9738460D01*
X4314229Y-9738460D02*
X4295182Y-9747984D01*
X4295182Y-9747984D02*
X4276134Y-9747984D01*
X4276134Y-9747984D02*
X4257087Y-9738460D01*
X4257087Y-9738460D02*
X4247563Y-9728936D01*
X4247563Y-9728936D02*
X4238039Y-9709889D01*
X4238039Y-9709889D02*
X4228515Y-9671793D01*
X4228515Y-9671793D02*
X4228515Y-9624174D01*
X4228515Y-9624174D02*
X4238039Y-9586079D01*
X4238039Y-9586079D02*
X4247563Y-9567031D01*
X4247563Y-9567031D02*
X4257087Y-9557508D01*
X4257087Y-9557508D02*
X4276134Y-9547984D01*
X4428515Y-9728936D02*
X4438039Y-9738460D01*
X4438039Y-9738460D02*
X4428515Y-9747984D01*
X4428515Y-9747984D02*
X4418991Y-9738460D01*
X4418991Y-9738460D02*
X4428515Y-9728936D01*
X4428515Y-9728936D02*
X4428515Y-9747984D01*
X4561848Y-9547984D02*
X4580896Y-9547984D01*
X4580896Y-9547984D02*
X4599944Y-9557508D01*
X4599944Y-9557508D02*
X4609468Y-9567031D01*
X4609468Y-9567031D02*
X4618991Y-9586079D01*
X4618991Y-9586079D02*
X4628515Y-9624174D01*
X4628515Y-9624174D02*
X4628515Y-9671793D01*
X4628515Y-9671793D02*
X4618991Y-9709889D01*
X4618991Y-9709889D02*
X4609468Y-9728936D01*
X4609468Y-9728936D02*
X4599944Y-9738460D01*
X4599944Y-9738460D02*
X4580896Y-9747984D01*
X4580896Y-9747984D02*
X4561848Y-9747984D01*
X4561848Y-9747984D02*
X4542801Y-9738460D01*
X4542801Y-9738460D02*
X4533277Y-9728936D01*
X4533277Y-9728936D02*
X4523753Y-9709889D01*
X4523753Y-9709889D02*
X4514229Y-9671793D01*
X4514229Y-9671793D02*
X4514229Y-9624174D01*
X4514229Y-9624174D02*
X4523753Y-9586079D01*
X4523753Y-9586079D02*
X4533277Y-9567031D01*
X4533277Y-9567031D02*
X4542801Y-9557508D01*
X4542801Y-9557508D02*
X4561848Y-9547984D01*
X4695182Y-9547984D02*
X4818991Y-9547984D01*
X4818991Y-9547984D02*
X4752325Y-9624174D01*
X4752325Y-9624174D02*
X4780896Y-9624174D01*
X4780896Y-9624174D02*
X4799944Y-9633698D01*
X4799944Y-9633698D02*
X4809468Y-9643222D01*
X4809468Y-9643222D02*
X4818991Y-9662270D01*
X4818991Y-9662270D02*
X4818991Y-9709889D01*
X4818991Y-9709889D02*
X4809468Y-9728936D01*
X4809468Y-9728936D02*
X4799944Y-9738460D01*
X4799944Y-9738460D02*
X4780896Y-9747984D01*
X4780896Y-9747984D02*
X4723753Y-9747984D01*
X4723753Y-9747984D02*
X4704706Y-9738460D01*
X4704706Y-9738460D02*
X4695182Y-9728936D01*
X5009468Y-9747984D02*
X4895182Y-9747984D01*
X4952325Y-9747984D02*
X4952325Y-9547984D01*
X4952325Y-9547984D02*
X4933277Y-9576555D01*
X4933277Y-9576555D02*
X4914229Y-9595603D01*
X4914229Y-9595603D02*
X4895182Y-9605127D01*
X5190420Y-9547984D02*
X5095182Y-9547984D01*
X5095182Y-9547984D02*
X5085658Y-9643222D01*
X5085658Y-9643222D02*
X5095182Y-9633698D01*
X5095182Y-9633698D02*
X5114229Y-9624174D01*
X5114229Y-9624174D02*
X5161849Y-9624174D01*
X5161849Y-9624174D02*
X5180896Y-9633698D01*
X5180896Y-9633698D02*
X5190420Y-9643222D01*
X5190420Y-9643222D02*
X5199944Y-9662270D01*
X5199944Y-9662270D02*
X5199944Y-9709889D01*
X5199944Y-9709889D02*
X5190420Y-9728936D01*
X5190420Y-9728936D02*
X5180896Y-9738460D01*
X5180896Y-9738460D02*
X5161849Y-9747984D01*
X5161849Y-9747984D02*
X5114229Y-9747984D01*
X5114229Y-9747984D02*
X5095182Y-9738460D01*
X5095182Y-9738460D02*
X5085658Y-9728936D01*
X5276134Y-9547984D02*
X5276134Y-9586079D01*
X5352325Y-9547984D02*
X5352325Y-9586079D01*
X5647563Y-9824174D02*
X5638039Y-9814650D01*
X5638039Y-9814650D02*
X5618991Y-9786079D01*
X5618991Y-9786079D02*
X5609468Y-9767031D01*
X5609468Y-9767031D02*
X5599944Y-9738460D01*
X5599944Y-9738460D02*
X5590420Y-9690841D01*
X5590420Y-9690841D02*
X5590420Y-9652746D01*
X5590420Y-9652746D02*
X5599944Y-9605127D01*
X5599944Y-9605127D02*
X5609468Y-9576555D01*
X5609468Y-9576555D02*
X5618991Y-9557508D01*
X5618991Y-9557508D02*
X5638039Y-9528936D01*
X5638039Y-9528936D02*
X5647563Y-9519412D01*
X5714229Y-9567031D02*
X5723753Y-9557508D01*
X5723753Y-9557508D02*
X5742801Y-9547984D01*
X5742801Y-9547984D02*
X5790420Y-9547984D01*
X5790420Y-9547984D02*
X5809468Y-9557508D01*
X5809468Y-9557508D02*
X5818991Y-9567031D01*
X5818991Y-9567031D02*
X5828515Y-9586079D01*
X5828515Y-9586079D02*
X5828515Y-9605127D01*
X5828515Y-9605127D02*
X5818991Y-9633698D01*
X5818991Y-9633698D02*
X5704706Y-9747984D01*
X5704706Y-9747984D02*
X5828515Y-9747984D01*
X5952325Y-9547984D02*
X5971372Y-9547984D01*
X5971372Y-9547984D02*
X5990420Y-9557508D01*
X5990420Y-9557508D02*
X5999944Y-9567031D01*
X5999944Y-9567031D02*
X6009468Y-9586079D01*
X6009468Y-9586079D02*
X6018991Y-9624174D01*
X6018991Y-9624174D02*
X6018991Y-9671793D01*
X6018991Y-9671793D02*
X6009468Y-9709889D01*
X6009468Y-9709889D02*
X5999944Y-9728936D01*
X5999944Y-9728936D02*
X5990420Y-9738460D01*
X5990420Y-9738460D02*
X5971372Y-9747984D01*
X5971372Y-9747984D02*
X5952325Y-9747984D01*
X5952325Y-9747984D02*
X5933277Y-9738460D01*
X5933277Y-9738460D02*
X5923753Y-9728936D01*
X5923753Y-9728936D02*
X5914229Y-9709889D01*
X5914229Y-9709889D02*
X5904706Y-9671793D01*
X5904706Y-9671793D02*
X5904706Y-9624174D01*
X5904706Y-9624174D02*
X5914229Y-9586079D01*
X5914229Y-9586079D02*
X5923753Y-9567031D01*
X5923753Y-9567031D02*
X5933277Y-9557508D01*
X5933277Y-9557508D02*
X5952325Y-9547984D01*
X6257087Y-9747984D02*
X6257087Y-9547984D01*
X6342801Y-9747984D02*
X6342801Y-9643222D01*
X6342801Y-9643222D02*
X6333277Y-9624174D01*
X6333277Y-9624174D02*
X6314230Y-9614650D01*
X6314230Y-9614650D02*
X6285658Y-9614650D01*
X6285658Y-9614650D02*
X6266610Y-9624174D01*
X6266610Y-9624174D02*
X6257087Y-9633698D01*
X6466610Y-9747984D02*
X6447563Y-9738460D01*
X6447563Y-9738460D02*
X6438039Y-9728936D01*
X6438039Y-9728936D02*
X6428515Y-9709889D01*
X6428515Y-9709889D02*
X6428515Y-9652746D01*
X6428515Y-9652746D02*
X6438039Y-9633698D01*
X6438039Y-9633698D02*
X6447563Y-9624174D01*
X6447563Y-9624174D02*
X6466610Y-9614650D01*
X6466610Y-9614650D02*
X6495182Y-9614650D01*
X6495182Y-9614650D02*
X6514230Y-9624174D01*
X6514230Y-9624174D02*
X6523753Y-9633698D01*
X6523753Y-9633698D02*
X6533277Y-9652746D01*
X6533277Y-9652746D02*
X6533277Y-9709889D01*
X6533277Y-9709889D02*
X6523753Y-9728936D01*
X6523753Y-9728936D02*
X6514230Y-9738460D01*
X6514230Y-9738460D02*
X6495182Y-9747984D01*
X6495182Y-9747984D02*
X6466610Y-9747984D01*
X6647563Y-9747984D02*
X6628515Y-9738460D01*
X6628515Y-9738460D02*
X6618991Y-9719412D01*
X6618991Y-9719412D02*
X6618991Y-9547984D01*
X6799944Y-9738460D02*
X6780896Y-9747984D01*
X6780896Y-9747984D02*
X6742801Y-9747984D01*
X6742801Y-9747984D02*
X6723753Y-9738460D01*
X6723753Y-9738460D02*
X6714230Y-9719412D01*
X6714230Y-9719412D02*
X6714230Y-9643222D01*
X6714230Y-9643222D02*
X6723753Y-9624174D01*
X6723753Y-9624174D02*
X6742801Y-9614650D01*
X6742801Y-9614650D02*
X6780896Y-9614650D01*
X6780896Y-9614650D02*
X6799944Y-9624174D01*
X6799944Y-9624174D02*
X6809468Y-9643222D01*
X6809468Y-9643222D02*
X6809468Y-9662270D01*
X6809468Y-9662270D02*
X6714230Y-9681317D01*
X6885658Y-9738460D02*
X6904706Y-9747984D01*
X6904706Y-9747984D02*
X6942801Y-9747984D01*
X6942801Y-9747984D02*
X6961849Y-9738460D01*
X6961849Y-9738460D02*
X6971372Y-9719412D01*
X6971372Y-9719412D02*
X6971372Y-9709889D01*
X6971372Y-9709889D02*
X6961849Y-9690841D01*
X6961849Y-9690841D02*
X6942801Y-9681317D01*
X6942801Y-9681317D02*
X6914230Y-9681317D01*
X6914230Y-9681317D02*
X6895182Y-9671793D01*
X6895182Y-9671793D02*
X6885658Y-9652746D01*
X6885658Y-9652746D02*
X6885658Y-9643222D01*
X6885658Y-9643222D02*
X6895182Y-9624174D01*
X6895182Y-9624174D02*
X6914230Y-9614650D01*
X6914230Y-9614650D02*
X6942801Y-9614650D01*
X6942801Y-9614650D02*
X6961849Y-9624174D01*
X7038039Y-9824174D02*
X7047563Y-9814650D01*
X7047563Y-9814650D02*
X7066611Y-9786079D01*
X7066611Y-9786079D02*
X7076134Y-9767031D01*
X7076134Y-9767031D02*
X7085658Y-9738460D01*
X7085658Y-9738460D02*
X7095182Y-9690841D01*
X7095182Y-9690841D02*
X7095182Y-9652746D01*
X7095182Y-9652746D02*
X7085658Y-9605127D01*
X7085658Y-9605127D02*
X7076134Y-9576555D01*
X7076134Y-9576555D02*
X7066611Y-9557508D01*
X7066611Y-9557508D02*
X7047563Y-9528936D01*
X7047563Y-9528936D02*
X7038039Y-9519412D01*
D12*
X2027500Y-9875500D02*
X2027500Y-9965500D01*
X1982500Y-9920500D02*
X2072500Y-9920500D01*
D11*
X2371372Y-9811984D02*
X2390420Y-9811984D01*
X2390420Y-9811984D02*
X2409467Y-9821508D01*
X2409467Y-9821508D02*
X2418991Y-9831031D01*
X2418991Y-9831031D02*
X2428515Y-9850079D01*
X2428515Y-9850079D02*
X2438039Y-9888174D01*
X2438039Y-9888174D02*
X2438039Y-9935793D01*
X2438039Y-9935793D02*
X2428515Y-9973889D01*
X2428515Y-9973889D02*
X2418991Y-9992936D01*
X2418991Y-9992936D02*
X2409467Y-10002460D01*
X2409467Y-10002460D02*
X2390420Y-10011984D01*
X2390420Y-10011984D02*
X2371372Y-10011984D01*
X2371372Y-10011984D02*
X2352324Y-10002460D01*
X2352324Y-10002460D02*
X2342801Y-9992936D01*
X2342801Y-9992936D02*
X2333277Y-9973889D01*
X2333277Y-9973889D02*
X2323753Y-9935793D01*
X2323753Y-9935793D02*
X2323753Y-9888174D01*
X2323753Y-9888174D02*
X2333277Y-9850079D01*
X2333277Y-9850079D02*
X2342801Y-9831031D01*
X2342801Y-9831031D02*
X2352324Y-9821508D01*
X2352324Y-9821508D02*
X2371372Y-9811984D01*
X2523753Y-9992936D02*
X2533277Y-10002460D01*
X2533277Y-10002460D02*
X2523753Y-10011984D01*
X2523753Y-10011984D02*
X2514229Y-10002460D01*
X2514229Y-10002460D02*
X2523753Y-9992936D01*
X2523753Y-9992936D02*
X2523753Y-10011984D01*
X2628515Y-10011984D02*
X2666610Y-10011984D01*
X2666610Y-10011984D02*
X2685658Y-10002460D01*
X2685658Y-10002460D02*
X2695182Y-9992936D01*
X2695182Y-9992936D02*
X2714229Y-9964365D01*
X2714229Y-9964365D02*
X2723753Y-9926270D01*
X2723753Y-9926270D02*
X2723753Y-9850079D01*
X2723753Y-9850079D02*
X2714229Y-9831031D01*
X2714229Y-9831031D02*
X2704705Y-9821508D01*
X2704705Y-9821508D02*
X2685658Y-9811984D01*
X2685658Y-9811984D02*
X2647563Y-9811984D01*
X2647563Y-9811984D02*
X2628515Y-9821508D01*
X2628515Y-9821508D02*
X2618991Y-9831031D01*
X2618991Y-9831031D02*
X2609467Y-9850079D01*
X2609467Y-9850079D02*
X2609467Y-9897698D01*
X2609467Y-9897698D02*
X2618991Y-9916746D01*
X2618991Y-9916746D02*
X2628515Y-9926270D01*
X2628515Y-9926270D02*
X2647563Y-9935793D01*
X2647563Y-9935793D02*
X2685658Y-9935793D01*
X2685658Y-9935793D02*
X2704705Y-9926270D01*
X2704705Y-9926270D02*
X2714229Y-9916746D01*
X2714229Y-9916746D02*
X2723753Y-9897698D01*
X2847562Y-9811984D02*
X2866610Y-9811984D01*
X2866610Y-9811984D02*
X2885658Y-9821508D01*
X2885658Y-9821508D02*
X2895182Y-9831031D01*
X2895182Y-9831031D02*
X2904705Y-9850079D01*
X2904705Y-9850079D02*
X2914229Y-9888174D01*
X2914229Y-9888174D02*
X2914229Y-9935793D01*
X2914229Y-9935793D02*
X2904705Y-9973889D01*
X2904705Y-9973889D02*
X2895182Y-9992936D01*
X2895182Y-9992936D02*
X2885658Y-10002460D01*
X2885658Y-10002460D02*
X2866610Y-10011984D01*
X2866610Y-10011984D02*
X2847562Y-10011984D01*
X2847562Y-10011984D02*
X2828515Y-10002460D01*
X2828515Y-10002460D02*
X2818991Y-9992936D01*
X2818991Y-9992936D02*
X2809467Y-9973889D01*
X2809467Y-9973889D02*
X2799943Y-9935793D01*
X2799943Y-9935793D02*
X2799943Y-9888174D01*
X2799943Y-9888174D02*
X2809467Y-9850079D01*
X2809467Y-9850079D02*
X2818991Y-9831031D01*
X2818991Y-9831031D02*
X2828515Y-9821508D01*
X2828515Y-9821508D02*
X2847562Y-9811984D01*
X3038039Y-9811984D02*
X3057086Y-9811984D01*
X3057086Y-9811984D02*
X3076134Y-9821508D01*
X3076134Y-9821508D02*
X3085658Y-9831031D01*
X3085658Y-9831031D02*
X3095182Y-9850079D01*
X3095182Y-9850079D02*
X3104705Y-9888174D01*
X3104705Y-9888174D02*
X3104705Y-9935793D01*
X3104705Y-9935793D02*
X3095182Y-9973889D01*
X3095182Y-9973889D02*
X3085658Y-9992936D01*
X3085658Y-9992936D02*
X3076134Y-10002460D01*
X3076134Y-10002460D02*
X3057086Y-10011984D01*
X3057086Y-10011984D02*
X3038039Y-10011984D01*
X3038039Y-10011984D02*
X3018991Y-10002460D01*
X3018991Y-10002460D02*
X3009467Y-9992936D01*
X3009467Y-9992936D02*
X2999943Y-9973889D01*
X2999943Y-9973889D02*
X2990420Y-9935793D01*
X2990420Y-9935793D02*
X2990420Y-9888174D01*
X2990420Y-9888174D02*
X2999943Y-9850079D01*
X2999943Y-9850079D02*
X3009467Y-9831031D01*
X3009467Y-9831031D02*
X3018991Y-9821508D01*
X3018991Y-9821508D02*
X3038039Y-9811984D01*
X3190420Y-10011984D02*
X3190420Y-9878650D01*
X3190420Y-9897698D02*
X3199943Y-9888174D01*
X3199943Y-9888174D02*
X3218991Y-9878650D01*
X3218991Y-9878650D02*
X3247563Y-9878650D01*
X3247563Y-9878650D02*
X3266610Y-9888174D01*
X3266610Y-9888174D02*
X3276134Y-9907222D01*
X3276134Y-9907222D02*
X3276134Y-10011984D01*
X3276134Y-9907222D02*
X3285658Y-9888174D01*
X3285658Y-9888174D02*
X3304705Y-9878650D01*
X3304705Y-9878650D02*
X3333277Y-9878650D01*
X3333277Y-9878650D02*
X3352324Y-9888174D01*
X3352324Y-9888174D02*
X3361848Y-9907222D01*
X3361848Y-9907222D02*
X3361848Y-10011984D01*
X3457086Y-10011984D02*
X3457086Y-9878650D01*
X3457086Y-9897698D02*
X3466610Y-9888174D01*
X3466610Y-9888174D02*
X3485658Y-9878650D01*
X3485658Y-9878650D02*
X3514229Y-9878650D01*
X3514229Y-9878650D02*
X3533277Y-9888174D01*
X3533277Y-9888174D02*
X3542801Y-9907222D01*
X3542801Y-9907222D02*
X3542801Y-10011984D01*
X3542801Y-9907222D02*
X3552324Y-9888174D01*
X3552324Y-9888174D02*
X3571372Y-9878650D01*
X3571372Y-9878650D02*
X3599943Y-9878650D01*
X3599943Y-9878650D02*
X3618991Y-9888174D01*
X3618991Y-9888174D02*
X3628515Y-9907222D01*
X3628515Y-9907222D02*
X3628515Y-10011984D01*
X4018991Y-9802460D02*
X3847563Y-10059603D01*
X4276134Y-9811984D02*
X4295182Y-9811984D01*
X4295182Y-9811984D02*
X4314229Y-9821508D01*
X4314229Y-9821508D02*
X4323753Y-9831031D01*
X4323753Y-9831031D02*
X4333277Y-9850079D01*
X4333277Y-9850079D02*
X4342801Y-9888174D01*
X4342801Y-9888174D02*
X4342801Y-9935793D01*
X4342801Y-9935793D02*
X4333277Y-9973889D01*
X4333277Y-9973889D02*
X4323753Y-9992936D01*
X4323753Y-9992936D02*
X4314229Y-10002460D01*
X4314229Y-10002460D02*
X4295182Y-10011984D01*
X4295182Y-10011984D02*
X4276134Y-10011984D01*
X4276134Y-10011984D02*
X4257087Y-10002460D01*
X4257087Y-10002460D02*
X4247563Y-9992936D01*
X4247563Y-9992936D02*
X4238039Y-9973889D01*
X4238039Y-9973889D02*
X4228515Y-9935793D01*
X4228515Y-9935793D02*
X4228515Y-9888174D01*
X4228515Y-9888174D02*
X4238039Y-9850079D01*
X4238039Y-9850079D02*
X4247563Y-9831031D01*
X4247563Y-9831031D02*
X4257087Y-9821508D01*
X4257087Y-9821508D02*
X4276134Y-9811984D01*
X4428515Y-9992936D02*
X4438039Y-10002460D01*
X4438039Y-10002460D02*
X4428515Y-10011984D01*
X4428515Y-10011984D02*
X4418991Y-10002460D01*
X4418991Y-10002460D02*
X4428515Y-9992936D01*
X4428515Y-9992936D02*
X4428515Y-10011984D01*
X4561848Y-9811984D02*
X4580896Y-9811984D01*
X4580896Y-9811984D02*
X4599944Y-9821508D01*
X4599944Y-9821508D02*
X4609468Y-9831031D01*
X4609468Y-9831031D02*
X4618991Y-9850079D01*
X4618991Y-9850079D02*
X4628515Y-9888174D01*
X4628515Y-9888174D02*
X4628515Y-9935793D01*
X4628515Y-9935793D02*
X4618991Y-9973889D01*
X4618991Y-9973889D02*
X4609468Y-9992936D01*
X4609468Y-9992936D02*
X4599944Y-10002460D01*
X4599944Y-10002460D02*
X4580896Y-10011984D01*
X4580896Y-10011984D02*
X4561848Y-10011984D01*
X4561848Y-10011984D02*
X4542801Y-10002460D01*
X4542801Y-10002460D02*
X4533277Y-9992936D01*
X4533277Y-9992936D02*
X4523753Y-9973889D01*
X4523753Y-9973889D02*
X4514229Y-9935793D01*
X4514229Y-9935793D02*
X4514229Y-9888174D01*
X4514229Y-9888174D02*
X4523753Y-9850079D01*
X4523753Y-9850079D02*
X4533277Y-9831031D01*
X4533277Y-9831031D02*
X4542801Y-9821508D01*
X4542801Y-9821508D02*
X4561848Y-9811984D01*
X4695182Y-9811984D02*
X4818991Y-9811984D01*
X4818991Y-9811984D02*
X4752325Y-9888174D01*
X4752325Y-9888174D02*
X4780896Y-9888174D01*
X4780896Y-9888174D02*
X4799944Y-9897698D01*
X4799944Y-9897698D02*
X4809468Y-9907222D01*
X4809468Y-9907222D02*
X4818991Y-9926270D01*
X4818991Y-9926270D02*
X4818991Y-9973889D01*
X4818991Y-9973889D02*
X4809468Y-9992936D01*
X4809468Y-9992936D02*
X4799944Y-10002460D01*
X4799944Y-10002460D02*
X4780896Y-10011984D01*
X4780896Y-10011984D02*
X4723753Y-10011984D01*
X4723753Y-10011984D02*
X4704706Y-10002460D01*
X4704706Y-10002460D02*
X4695182Y-9992936D01*
X4999944Y-9811984D02*
X4904706Y-9811984D01*
X4904706Y-9811984D02*
X4895182Y-9907222D01*
X4895182Y-9907222D02*
X4904706Y-9897698D01*
X4904706Y-9897698D02*
X4923753Y-9888174D01*
X4923753Y-9888174D02*
X4971372Y-9888174D01*
X4971372Y-9888174D02*
X4990420Y-9897698D01*
X4990420Y-9897698D02*
X4999944Y-9907222D01*
X4999944Y-9907222D02*
X5009468Y-9926270D01*
X5009468Y-9926270D02*
X5009468Y-9973889D01*
X5009468Y-9973889D02*
X4999944Y-9992936D01*
X4999944Y-9992936D02*
X4990420Y-10002460D01*
X4990420Y-10002460D02*
X4971372Y-10011984D01*
X4971372Y-10011984D02*
X4923753Y-10011984D01*
X4923753Y-10011984D02*
X4904706Y-10002460D01*
X4904706Y-10002460D02*
X4895182Y-9992936D01*
X5180896Y-9878650D02*
X5180896Y-10011984D01*
X5133277Y-9802460D02*
X5085658Y-9945317D01*
X5085658Y-9945317D02*
X5209468Y-9945317D01*
X5276134Y-9811984D02*
X5276134Y-9850079D01*
X5352325Y-9811984D02*
X5352325Y-9850079D01*
X5647563Y-10088174D02*
X5638039Y-10078650D01*
X5638039Y-10078650D02*
X5618991Y-10050079D01*
X5618991Y-10050079D02*
X5609468Y-10031031D01*
X5609468Y-10031031D02*
X5599944Y-10002460D01*
X5599944Y-10002460D02*
X5590420Y-9954841D01*
X5590420Y-9954841D02*
X5590420Y-9916746D01*
X5590420Y-9916746D02*
X5599944Y-9869127D01*
X5599944Y-9869127D02*
X5609468Y-9840555D01*
X5609468Y-9840555D02*
X5618991Y-9821508D01*
X5618991Y-9821508D02*
X5638039Y-9792936D01*
X5638039Y-9792936D02*
X5647563Y-9783412D01*
X5714229Y-9831031D02*
X5723753Y-9821508D01*
X5723753Y-9821508D02*
X5742801Y-9811984D01*
X5742801Y-9811984D02*
X5790420Y-9811984D01*
X5790420Y-9811984D02*
X5809468Y-9821508D01*
X5809468Y-9821508D02*
X5818991Y-9831031D01*
X5818991Y-9831031D02*
X5828515Y-9850079D01*
X5828515Y-9850079D02*
X5828515Y-9869127D01*
X5828515Y-9869127D02*
X5818991Y-9897698D01*
X5818991Y-9897698D02*
X5704706Y-10011984D01*
X5704706Y-10011984D02*
X5828515Y-10011984D01*
X6066610Y-10011984D02*
X6066610Y-9811984D01*
X6152325Y-10011984D02*
X6152325Y-9907222D01*
X6152325Y-9907222D02*
X6142801Y-9888174D01*
X6142801Y-9888174D02*
X6123753Y-9878650D01*
X6123753Y-9878650D02*
X6095182Y-9878650D01*
X6095182Y-9878650D02*
X6076134Y-9888174D01*
X6076134Y-9888174D02*
X6066610Y-9897698D01*
X6276134Y-10011984D02*
X6257087Y-10002460D01*
X6257087Y-10002460D02*
X6247563Y-9992936D01*
X6247563Y-9992936D02*
X6238039Y-9973889D01*
X6238039Y-9973889D02*
X6238039Y-9916746D01*
X6238039Y-9916746D02*
X6247563Y-9897698D01*
X6247563Y-9897698D02*
X6257087Y-9888174D01*
X6257087Y-9888174D02*
X6276134Y-9878650D01*
X6276134Y-9878650D02*
X6304706Y-9878650D01*
X6304706Y-9878650D02*
X6323753Y-9888174D01*
X6323753Y-9888174D02*
X6333277Y-9897698D01*
X6333277Y-9897698D02*
X6342801Y-9916746D01*
X6342801Y-9916746D02*
X6342801Y-9973889D01*
X6342801Y-9973889D02*
X6333277Y-9992936D01*
X6333277Y-9992936D02*
X6323753Y-10002460D01*
X6323753Y-10002460D02*
X6304706Y-10011984D01*
X6304706Y-10011984D02*
X6276134Y-10011984D01*
X6457087Y-10011984D02*
X6438039Y-10002460D01*
X6438039Y-10002460D02*
X6428515Y-9983412D01*
X6428515Y-9983412D02*
X6428515Y-9811984D01*
X6609468Y-10002460D02*
X6590420Y-10011984D01*
X6590420Y-10011984D02*
X6552325Y-10011984D01*
X6552325Y-10011984D02*
X6533277Y-10002460D01*
X6533277Y-10002460D02*
X6523753Y-9983412D01*
X6523753Y-9983412D02*
X6523753Y-9907222D01*
X6523753Y-9907222D02*
X6533277Y-9888174D01*
X6533277Y-9888174D02*
X6552325Y-9878650D01*
X6552325Y-9878650D02*
X6590420Y-9878650D01*
X6590420Y-9878650D02*
X6609468Y-9888174D01*
X6609468Y-9888174D02*
X6618991Y-9907222D01*
X6618991Y-9907222D02*
X6618991Y-9926270D01*
X6618991Y-9926270D02*
X6523753Y-9945317D01*
X6695182Y-10002460D02*
X6714230Y-10011984D01*
X6714230Y-10011984D02*
X6752325Y-10011984D01*
X6752325Y-10011984D02*
X6771372Y-10002460D01*
X6771372Y-10002460D02*
X6780896Y-9983412D01*
X6780896Y-9983412D02*
X6780896Y-9973889D01*
X6780896Y-9973889D02*
X6771372Y-9954841D01*
X6771372Y-9954841D02*
X6752325Y-9945317D01*
X6752325Y-9945317D02*
X6723753Y-9945317D01*
X6723753Y-9945317D02*
X6704706Y-9935793D01*
X6704706Y-9935793D02*
X6695182Y-9916746D01*
X6695182Y-9916746D02*
X6695182Y-9907222D01*
X6695182Y-9907222D02*
X6704706Y-9888174D01*
X6704706Y-9888174D02*
X6723753Y-9878650D01*
X6723753Y-9878650D02*
X6752325Y-9878650D01*
X6752325Y-9878650D02*
X6771372Y-9888174D01*
X6847563Y-10088174D02*
X6857087Y-10078650D01*
X6857087Y-10078650D02*
X6876134Y-10050079D01*
X6876134Y-10050079D02*
X6885658Y-10031031D01*
X6885658Y-10031031D02*
X6895182Y-10002460D01*
X6895182Y-10002460D02*
X6904706Y-9954841D01*
X6904706Y-9954841D02*
X6904706Y-9916746D01*
X6904706Y-9916746D02*
X6895182Y-9869127D01*
X6895182Y-9869127D02*
X6885658Y-9840555D01*
X6885658Y-9840555D02*
X6876134Y-9821508D01*
X6876134Y-9821508D02*
X6857087Y-9792936D01*
X6857087Y-9792936D02*
X6847563Y-9783412D01*
D12*
X2057856Y-10219856D02*
X2057856Y-10149144D01*
X1987144Y-10149144D01*
X1987144Y-10219856D01*
X2057856Y-10219856D01*
D11*
X2438039Y-10275984D02*
X2323753Y-10275984D01*
X2380896Y-10275984D02*
X2380896Y-10075984D01*
X2380896Y-10075984D02*
X2361848Y-10104555D01*
X2361848Y-10104555D02*
X2342801Y-10123603D01*
X2342801Y-10123603D02*
X2323753Y-10133127D01*
X2523753Y-10256936D02*
X2533277Y-10266460D01*
X2533277Y-10266460D02*
X2523753Y-10275984D01*
X2523753Y-10275984D02*
X2514229Y-10266460D01*
X2514229Y-10266460D02*
X2523753Y-10256936D01*
X2523753Y-10256936D02*
X2523753Y-10275984D01*
X2657086Y-10075984D02*
X2676134Y-10075984D01*
X2676134Y-10075984D02*
X2695182Y-10085508D01*
X2695182Y-10085508D02*
X2704705Y-10095031D01*
X2704705Y-10095031D02*
X2714229Y-10114079D01*
X2714229Y-10114079D02*
X2723753Y-10152174D01*
X2723753Y-10152174D02*
X2723753Y-10199793D01*
X2723753Y-10199793D02*
X2714229Y-10237889D01*
X2714229Y-10237889D02*
X2704705Y-10256936D01*
X2704705Y-10256936D02*
X2695182Y-10266460D01*
X2695182Y-10266460D02*
X2676134Y-10275984D01*
X2676134Y-10275984D02*
X2657086Y-10275984D01*
X2657086Y-10275984D02*
X2638039Y-10266460D01*
X2638039Y-10266460D02*
X2628515Y-10256936D01*
X2628515Y-10256936D02*
X2618991Y-10237889D01*
X2618991Y-10237889D02*
X2609467Y-10199793D01*
X2609467Y-10199793D02*
X2609467Y-10152174D01*
X2609467Y-10152174D02*
X2618991Y-10114079D01*
X2618991Y-10114079D02*
X2628515Y-10095031D01*
X2628515Y-10095031D02*
X2638039Y-10085508D01*
X2638039Y-10085508D02*
X2657086Y-10075984D01*
X2847562Y-10075984D02*
X2866610Y-10075984D01*
X2866610Y-10075984D02*
X2885658Y-10085508D01*
X2885658Y-10085508D02*
X2895182Y-10095031D01*
X2895182Y-10095031D02*
X2904705Y-10114079D01*
X2904705Y-10114079D02*
X2914229Y-10152174D01*
X2914229Y-10152174D02*
X2914229Y-10199793D01*
X2914229Y-10199793D02*
X2904705Y-10237889D01*
X2904705Y-10237889D02*
X2895182Y-10256936D01*
X2895182Y-10256936D02*
X2885658Y-10266460D01*
X2885658Y-10266460D02*
X2866610Y-10275984D01*
X2866610Y-10275984D02*
X2847562Y-10275984D01*
X2847562Y-10275984D02*
X2828515Y-10266460D01*
X2828515Y-10266460D02*
X2818991Y-10256936D01*
X2818991Y-10256936D02*
X2809467Y-10237889D01*
X2809467Y-10237889D02*
X2799943Y-10199793D01*
X2799943Y-10199793D02*
X2799943Y-10152174D01*
X2799943Y-10152174D02*
X2809467Y-10114079D01*
X2809467Y-10114079D02*
X2818991Y-10095031D01*
X2818991Y-10095031D02*
X2828515Y-10085508D01*
X2828515Y-10085508D02*
X2847562Y-10075984D01*
X3038039Y-10075984D02*
X3057086Y-10075984D01*
X3057086Y-10075984D02*
X3076134Y-10085508D01*
X3076134Y-10085508D02*
X3085658Y-10095031D01*
X3085658Y-10095031D02*
X3095182Y-10114079D01*
X3095182Y-10114079D02*
X3104705Y-10152174D01*
X3104705Y-10152174D02*
X3104705Y-10199793D01*
X3104705Y-10199793D02*
X3095182Y-10237889D01*
X3095182Y-10237889D02*
X3085658Y-10256936D01*
X3085658Y-10256936D02*
X3076134Y-10266460D01*
X3076134Y-10266460D02*
X3057086Y-10275984D01*
X3057086Y-10275984D02*
X3038039Y-10275984D01*
X3038039Y-10275984D02*
X3018991Y-10266460D01*
X3018991Y-10266460D02*
X3009467Y-10256936D01*
X3009467Y-10256936D02*
X2999943Y-10237889D01*
X2999943Y-10237889D02*
X2990420Y-10199793D01*
X2990420Y-10199793D02*
X2990420Y-10152174D01*
X2990420Y-10152174D02*
X2999943Y-10114079D01*
X2999943Y-10114079D02*
X3009467Y-10095031D01*
X3009467Y-10095031D02*
X3018991Y-10085508D01*
X3018991Y-10085508D02*
X3038039Y-10075984D01*
X3190420Y-10275984D02*
X3190420Y-10142650D01*
X3190420Y-10161698D02*
X3199943Y-10152174D01*
X3199943Y-10152174D02*
X3218991Y-10142650D01*
X3218991Y-10142650D02*
X3247563Y-10142650D01*
X3247563Y-10142650D02*
X3266610Y-10152174D01*
X3266610Y-10152174D02*
X3276134Y-10171222D01*
X3276134Y-10171222D02*
X3276134Y-10275984D01*
X3276134Y-10171222D02*
X3285658Y-10152174D01*
X3285658Y-10152174D02*
X3304705Y-10142650D01*
X3304705Y-10142650D02*
X3333277Y-10142650D01*
X3333277Y-10142650D02*
X3352324Y-10152174D01*
X3352324Y-10152174D02*
X3361848Y-10171222D01*
X3361848Y-10171222D02*
X3361848Y-10275984D01*
X3457086Y-10275984D02*
X3457086Y-10142650D01*
X3457086Y-10161698D02*
X3466610Y-10152174D01*
X3466610Y-10152174D02*
X3485658Y-10142650D01*
X3485658Y-10142650D02*
X3514229Y-10142650D01*
X3514229Y-10142650D02*
X3533277Y-10152174D01*
X3533277Y-10152174D02*
X3542801Y-10171222D01*
X3542801Y-10171222D02*
X3542801Y-10275984D01*
X3542801Y-10171222D02*
X3552324Y-10152174D01*
X3552324Y-10152174D02*
X3571372Y-10142650D01*
X3571372Y-10142650D02*
X3599943Y-10142650D01*
X3599943Y-10142650D02*
X3618991Y-10152174D01*
X3618991Y-10152174D02*
X3628515Y-10171222D01*
X3628515Y-10171222D02*
X3628515Y-10275984D01*
X4018991Y-10066460D02*
X3847563Y-10323603D01*
X4276134Y-10075984D02*
X4295182Y-10075984D01*
X4295182Y-10075984D02*
X4314229Y-10085508D01*
X4314229Y-10085508D02*
X4323753Y-10095031D01*
X4323753Y-10095031D02*
X4333277Y-10114079D01*
X4333277Y-10114079D02*
X4342801Y-10152174D01*
X4342801Y-10152174D02*
X4342801Y-10199793D01*
X4342801Y-10199793D02*
X4333277Y-10237889D01*
X4333277Y-10237889D02*
X4323753Y-10256936D01*
X4323753Y-10256936D02*
X4314229Y-10266460D01*
X4314229Y-10266460D02*
X4295182Y-10275984D01*
X4295182Y-10275984D02*
X4276134Y-10275984D01*
X4276134Y-10275984D02*
X4257087Y-10266460D01*
X4257087Y-10266460D02*
X4247563Y-10256936D01*
X4247563Y-10256936D02*
X4238039Y-10237889D01*
X4238039Y-10237889D02*
X4228515Y-10199793D01*
X4228515Y-10199793D02*
X4228515Y-10152174D01*
X4228515Y-10152174D02*
X4238039Y-10114079D01*
X4238039Y-10114079D02*
X4247563Y-10095031D01*
X4247563Y-10095031D02*
X4257087Y-10085508D01*
X4257087Y-10085508D02*
X4276134Y-10075984D01*
X4428515Y-10256936D02*
X4438039Y-10266460D01*
X4438039Y-10266460D02*
X4428515Y-10275984D01*
X4428515Y-10275984D02*
X4418991Y-10266460D01*
X4418991Y-10266460D02*
X4428515Y-10256936D01*
X4428515Y-10256936D02*
X4428515Y-10275984D01*
X4561848Y-10075984D02*
X4580896Y-10075984D01*
X4580896Y-10075984D02*
X4599944Y-10085508D01*
X4599944Y-10085508D02*
X4609468Y-10095031D01*
X4609468Y-10095031D02*
X4618991Y-10114079D01*
X4618991Y-10114079D02*
X4628515Y-10152174D01*
X4628515Y-10152174D02*
X4628515Y-10199793D01*
X4628515Y-10199793D02*
X4618991Y-10237889D01*
X4618991Y-10237889D02*
X4609468Y-10256936D01*
X4609468Y-10256936D02*
X4599944Y-10266460D01*
X4599944Y-10266460D02*
X4580896Y-10275984D01*
X4580896Y-10275984D02*
X4561848Y-10275984D01*
X4561848Y-10275984D02*
X4542801Y-10266460D01*
X4542801Y-10266460D02*
X4533277Y-10256936D01*
X4533277Y-10256936D02*
X4523753Y-10237889D01*
X4523753Y-10237889D02*
X4514229Y-10199793D01*
X4514229Y-10199793D02*
X4514229Y-10152174D01*
X4514229Y-10152174D02*
X4523753Y-10114079D01*
X4523753Y-10114079D02*
X4533277Y-10095031D01*
X4533277Y-10095031D02*
X4542801Y-10085508D01*
X4542801Y-10085508D02*
X4561848Y-10075984D01*
X4695182Y-10075984D02*
X4818991Y-10075984D01*
X4818991Y-10075984D02*
X4752325Y-10152174D01*
X4752325Y-10152174D02*
X4780896Y-10152174D01*
X4780896Y-10152174D02*
X4799944Y-10161698D01*
X4799944Y-10161698D02*
X4809468Y-10171222D01*
X4809468Y-10171222D02*
X4818991Y-10190270D01*
X4818991Y-10190270D02*
X4818991Y-10237889D01*
X4818991Y-10237889D02*
X4809468Y-10256936D01*
X4809468Y-10256936D02*
X4799944Y-10266460D01*
X4799944Y-10266460D02*
X4780896Y-10275984D01*
X4780896Y-10275984D02*
X4723753Y-10275984D01*
X4723753Y-10275984D02*
X4704706Y-10266460D01*
X4704706Y-10266460D02*
X4695182Y-10256936D01*
X4914229Y-10275984D02*
X4952325Y-10275984D01*
X4952325Y-10275984D02*
X4971372Y-10266460D01*
X4971372Y-10266460D02*
X4980896Y-10256936D01*
X4980896Y-10256936D02*
X4999944Y-10228365D01*
X4999944Y-10228365D02*
X5009468Y-10190270D01*
X5009468Y-10190270D02*
X5009468Y-10114079D01*
X5009468Y-10114079D02*
X4999944Y-10095031D01*
X4999944Y-10095031D02*
X4990420Y-10085508D01*
X4990420Y-10085508D02*
X4971372Y-10075984D01*
X4971372Y-10075984D02*
X4933277Y-10075984D01*
X4933277Y-10075984D02*
X4914229Y-10085508D01*
X4914229Y-10085508D02*
X4904706Y-10095031D01*
X4904706Y-10095031D02*
X4895182Y-10114079D01*
X4895182Y-10114079D02*
X4895182Y-10161698D01*
X4895182Y-10161698D02*
X4904706Y-10180746D01*
X4904706Y-10180746D02*
X4914229Y-10190270D01*
X4914229Y-10190270D02*
X4933277Y-10199793D01*
X4933277Y-10199793D02*
X4971372Y-10199793D01*
X4971372Y-10199793D02*
X4990420Y-10190270D01*
X4990420Y-10190270D02*
X4999944Y-10180746D01*
X4999944Y-10180746D02*
X5009468Y-10161698D01*
X5180896Y-10142650D02*
X5180896Y-10275984D01*
X5133277Y-10066460D02*
X5085658Y-10209317D01*
X5085658Y-10209317D02*
X5209468Y-10209317D01*
X5276134Y-10075984D02*
X5276134Y-10114079D01*
X5352325Y-10075984D02*
X5352325Y-10114079D01*
X5647563Y-10352174D02*
X5638039Y-10342650D01*
X5638039Y-10342650D02*
X5618991Y-10314079D01*
X5618991Y-10314079D02*
X5609468Y-10295031D01*
X5609468Y-10295031D02*
X5599944Y-10266460D01*
X5599944Y-10266460D02*
X5590420Y-10218841D01*
X5590420Y-10218841D02*
X5590420Y-10180746D01*
X5590420Y-10180746D02*
X5599944Y-10133127D01*
X5599944Y-10133127D02*
X5609468Y-10104555D01*
X5609468Y-10104555D02*
X5618991Y-10085508D01*
X5618991Y-10085508D02*
X5638039Y-10056936D01*
X5638039Y-10056936D02*
X5647563Y-10047412D01*
X5828515Y-10275984D02*
X5714229Y-10275984D01*
X5771372Y-10275984D02*
X5771372Y-10075984D01*
X5771372Y-10075984D02*
X5752325Y-10104555D01*
X5752325Y-10104555D02*
X5733277Y-10123603D01*
X5733277Y-10123603D02*
X5714229Y-10133127D01*
X5942801Y-10161698D02*
X5923753Y-10152174D01*
X5923753Y-10152174D02*
X5914229Y-10142650D01*
X5914229Y-10142650D02*
X5904706Y-10123603D01*
X5904706Y-10123603D02*
X5904706Y-10114079D01*
X5904706Y-10114079D02*
X5914229Y-10095031D01*
X5914229Y-10095031D02*
X5923753Y-10085508D01*
X5923753Y-10085508D02*
X5942801Y-10075984D01*
X5942801Y-10075984D02*
X5980896Y-10075984D01*
X5980896Y-10075984D02*
X5999944Y-10085508D01*
X5999944Y-10085508D02*
X6009468Y-10095031D01*
X6009468Y-10095031D02*
X6018991Y-10114079D01*
X6018991Y-10114079D02*
X6018991Y-10123603D01*
X6018991Y-10123603D02*
X6009468Y-10142650D01*
X6009468Y-10142650D02*
X5999944Y-10152174D01*
X5999944Y-10152174D02*
X5980896Y-10161698D01*
X5980896Y-10161698D02*
X5942801Y-10161698D01*
X5942801Y-10161698D02*
X5923753Y-10171222D01*
X5923753Y-10171222D02*
X5914229Y-10180746D01*
X5914229Y-10180746D02*
X5904706Y-10199793D01*
X5904706Y-10199793D02*
X5904706Y-10237889D01*
X5904706Y-10237889D02*
X5914229Y-10256936D01*
X5914229Y-10256936D02*
X5923753Y-10266460D01*
X5923753Y-10266460D02*
X5942801Y-10275984D01*
X5942801Y-10275984D02*
X5980896Y-10275984D01*
X5980896Y-10275984D02*
X5999944Y-10266460D01*
X5999944Y-10266460D02*
X6009468Y-10256936D01*
X6009468Y-10256936D02*
X6018991Y-10237889D01*
X6018991Y-10237889D02*
X6018991Y-10199793D01*
X6018991Y-10199793D02*
X6009468Y-10180746D01*
X6009468Y-10180746D02*
X5999944Y-10171222D01*
X5999944Y-10171222D02*
X5980896Y-10161698D01*
X6257087Y-10275984D02*
X6257087Y-10075984D01*
X6342801Y-10275984D02*
X6342801Y-10171222D01*
X6342801Y-10171222D02*
X6333277Y-10152174D01*
X6333277Y-10152174D02*
X6314230Y-10142650D01*
X6314230Y-10142650D02*
X6285658Y-10142650D01*
X6285658Y-10142650D02*
X6266610Y-10152174D01*
X6266610Y-10152174D02*
X6257087Y-10161698D01*
X6466610Y-10275984D02*
X6447563Y-10266460D01*
X6447563Y-10266460D02*
X6438039Y-10256936D01*
X6438039Y-10256936D02*
X6428515Y-10237889D01*
X6428515Y-10237889D02*
X6428515Y-10180746D01*
X6428515Y-10180746D02*
X6438039Y-10161698D01*
X6438039Y-10161698D02*
X6447563Y-10152174D01*
X6447563Y-10152174D02*
X6466610Y-10142650D01*
X6466610Y-10142650D02*
X6495182Y-10142650D01*
X6495182Y-10142650D02*
X6514230Y-10152174D01*
X6514230Y-10152174D02*
X6523753Y-10161698D01*
X6523753Y-10161698D02*
X6533277Y-10180746D01*
X6533277Y-10180746D02*
X6533277Y-10237889D01*
X6533277Y-10237889D02*
X6523753Y-10256936D01*
X6523753Y-10256936D02*
X6514230Y-10266460D01*
X6514230Y-10266460D02*
X6495182Y-10275984D01*
X6495182Y-10275984D02*
X6466610Y-10275984D01*
X6647563Y-10275984D02*
X6628515Y-10266460D01*
X6628515Y-10266460D02*
X6618991Y-10247412D01*
X6618991Y-10247412D02*
X6618991Y-10075984D01*
X6799944Y-10266460D02*
X6780896Y-10275984D01*
X6780896Y-10275984D02*
X6742801Y-10275984D01*
X6742801Y-10275984D02*
X6723753Y-10266460D01*
X6723753Y-10266460D02*
X6714230Y-10247412D01*
X6714230Y-10247412D02*
X6714230Y-10171222D01*
X6714230Y-10171222D02*
X6723753Y-10152174D01*
X6723753Y-10152174D02*
X6742801Y-10142650D01*
X6742801Y-10142650D02*
X6780896Y-10142650D01*
X6780896Y-10142650D02*
X6799944Y-10152174D01*
X6799944Y-10152174D02*
X6809468Y-10171222D01*
X6809468Y-10171222D02*
X6809468Y-10190270D01*
X6809468Y-10190270D02*
X6714230Y-10209317D01*
X6885658Y-10266460D02*
X6904706Y-10275984D01*
X6904706Y-10275984D02*
X6942801Y-10275984D01*
X6942801Y-10275984D02*
X6961849Y-10266460D01*
X6961849Y-10266460D02*
X6971372Y-10247412D01*
X6971372Y-10247412D02*
X6971372Y-10237889D01*
X6971372Y-10237889D02*
X6961849Y-10218841D01*
X6961849Y-10218841D02*
X6942801Y-10209317D01*
X6942801Y-10209317D02*
X6914230Y-10209317D01*
X6914230Y-10209317D02*
X6895182Y-10199793D01*
X6895182Y-10199793D02*
X6885658Y-10180746D01*
X6885658Y-10180746D02*
X6885658Y-10171222D01*
X6885658Y-10171222D02*
X6895182Y-10152174D01*
X6895182Y-10152174D02*
X6914230Y-10142650D01*
X6914230Y-10142650D02*
X6942801Y-10142650D01*
X6942801Y-10142650D02*
X6961849Y-10152174D01*
X7038039Y-10352174D02*
X7047563Y-10342650D01*
X7047563Y-10342650D02*
X7066611Y-10314079D01*
X7066611Y-10314079D02*
X7076134Y-10295031D01*
X7076134Y-10295031D02*
X7085658Y-10266460D01*
X7085658Y-10266460D02*
X7095182Y-10218841D01*
X7095182Y-10218841D02*
X7095182Y-10180746D01*
X7095182Y-10180746D02*
X7085658Y-10133127D01*
X7085658Y-10133127D02*
X7076134Y-10104555D01*
X7076134Y-10104555D02*
X7066611Y-10085508D01*
X7066611Y-10085508D02*
X7047563Y-10056936D01*
X7047563Y-10056936D02*
X7038039Y-10047412D01*
M02*
