M48
; DRILL file {KiCad 9.0.4} date 2025-10-05T02:15:21+0200
; FORMAT={-:-/ absolute / metric / decimal}
; #@! TF.CreationDate,2025-10-05T02:15:21+02:00
; #@! TF.GenerationSoftware,Kicad,Pcbnew,9.0.4
; #@! TF.FileFunction,Plated,1,2,PTH
FMAT,2
METRIC
; #@! TA.AperFunction,Plated,PTH,ViaDrill
T1C0.300
; #@! TA.AperFunction,Plated,PTH,ComponentDrill
T2C0.800
; #@! TA.AperFunction,Plated,PTH,ComponentDrill
T3C0.900
; #@! TA.AperFunction,Plated,PTH,ComponentDrill
T4C1.000
%
G90
G05
T1
X28.5Y-59.0
X37.0Y-44.0
X40.0Y-30.0
X42.0Y-73.0
X43.5Y-79.5
X45.5Y-24.5
X46.0Y-55.5
X47.5Y-43.5
X49.0Y-48.0
X49.38Y-52.0
X49.5Y-33.354
X61.0Y-55.0
X66.5Y-44.5
X70.0Y-51.5
X74.5Y-44.0
X78.386Y-83.5
X78.5Y-59.5
X84.0Y-30.0
X84.0Y-41.0
X92.0Y-60.0
X95.5Y-52.0
T2
X34.0Y-69.5
X39.08Y-78.299
X40.0Y-66.205
X40.0Y-68.705
X42.45Y-20.84
X42.45Y-31.0
X46.0Y-20.84
X46.0Y-31.0
X52.95Y-20.84
X52.95Y-31.0
X56.5Y-20.84
X56.5Y-31.0
X63.95Y-20.84
X63.95Y-31.0
X67.5Y-20.84
X67.5Y-31.0
X73.95Y-20.84
X73.95Y-31.0
X77.5Y-20.84
X77.5Y-31.0
T3
X40.96Y-83.0
X43.5Y-83.0
T4
X30.5Y-63.0
X31.77Y-65.2
X42.96Y-35.5
X45.5Y-35.5
X49.38Y-55.0
X51.92Y-55.0
X53.235Y-35.5
X54.46Y-55.0
X55.775Y-35.5
X57.0Y-55.0
X64.38Y-55.0
X64.46Y-35.5
X66.92Y-55.0
X67.0Y-35.5
X69.46Y-55.0
X72.0Y-55.0
X74.5Y-35.5
X77.04Y-35.5
M30
