%TF.GenerationSoftware,KiCad,Pcbnew,9.0.6*%
%TF.CreationDate,2025-11-13T19:18:10+01:00*%
%TF.ProjectId,hex-dna,6865782d-646e-4612-9e6b-696361645f70,rev?*%
%TF.SameCoordinates,Original*%
%TF.FileFunction,Legend,Bot*%
%TF.FilePolarity,Positive*%
%FSLAX46Y46*%
G04 Gerber Fmt 4.6, Leading zero omitted, Abs format (unit mm)*
G04 Created by KiCad (PCBNEW 9.0.6) date 2025-11-13 19:18:10*
%MOMM*%
%LPD*%
G01*
G04 APERTURE LIST*
%ADD10C,0.320000*%
G04 APERTURE END LIST*
D10*
X71723809Y-25211640D02*
X71723809Y-23611640D01*
X71038095Y-25211640D02*
X71038095Y-24373545D01*
X71038095Y-24373545D02*
X71114285Y-24221164D01*
X71114285Y-24221164D02*
X71266666Y-24144973D01*
X71266666Y-24144973D02*
X71495238Y-24144973D01*
X71495238Y-24144973D02*
X71647619Y-24221164D01*
X71647619Y-24221164D02*
X71723809Y-24297354D01*
X70504762Y-24144973D02*
X69895238Y-24144973D01*
X70276190Y-23611640D02*
X70276190Y-24983069D01*
X70276190Y-24983069D02*
X70200000Y-25135450D01*
X70200000Y-25135450D02*
X70047619Y-25211640D01*
X70047619Y-25211640D02*
X69895238Y-25211640D01*
X69590476Y-24144973D02*
X68980952Y-24144973D01*
X69361904Y-23611640D02*
X69361904Y-24983069D01*
X69361904Y-24983069D02*
X69285714Y-25135450D01*
X69285714Y-25135450D02*
X69133333Y-25211640D01*
X69133333Y-25211640D02*
X68980952Y-25211640D01*
X68447618Y-24144973D02*
X68447618Y-25744973D01*
X68447618Y-24221164D02*
X68295237Y-24144973D01*
X68295237Y-24144973D02*
X67990475Y-24144973D01*
X67990475Y-24144973D02*
X67838094Y-24221164D01*
X67838094Y-24221164D02*
X67761904Y-24297354D01*
X67761904Y-24297354D02*
X67685713Y-24449735D01*
X67685713Y-24449735D02*
X67685713Y-24906878D01*
X67685713Y-24906878D02*
X67761904Y-25059259D01*
X67761904Y-25059259D02*
X67838094Y-25135450D01*
X67838094Y-25135450D02*
X67990475Y-25211640D01*
X67990475Y-25211640D02*
X68295237Y-25211640D01*
X68295237Y-25211640D02*
X68447618Y-25135450D01*
X67076190Y-25135450D02*
X66923809Y-25211640D01*
X66923809Y-25211640D02*
X66619047Y-25211640D01*
X66619047Y-25211640D02*
X66466666Y-25135450D01*
X66466666Y-25135450D02*
X66390475Y-24983069D01*
X66390475Y-24983069D02*
X66390475Y-24906878D01*
X66390475Y-24906878D02*
X66466666Y-24754497D01*
X66466666Y-24754497D02*
X66619047Y-24678307D01*
X66619047Y-24678307D02*
X66847618Y-24678307D01*
X66847618Y-24678307D02*
X66999999Y-24602116D01*
X66999999Y-24602116D02*
X67076190Y-24449735D01*
X67076190Y-24449735D02*
X67076190Y-24373545D01*
X67076190Y-24373545D02*
X66999999Y-24221164D01*
X66999999Y-24221164D02*
X66847618Y-24144973D01*
X66847618Y-24144973D02*
X66619047Y-24144973D01*
X66619047Y-24144973D02*
X66466666Y-24221164D01*
X65704761Y-25059259D02*
X65628571Y-25135450D01*
X65628571Y-25135450D02*
X65704761Y-25211640D01*
X65704761Y-25211640D02*
X65780952Y-25135450D01*
X65780952Y-25135450D02*
X65704761Y-25059259D01*
X65704761Y-25059259D02*
X65704761Y-25211640D01*
X65704761Y-24221164D02*
X65628571Y-24297354D01*
X65628571Y-24297354D02*
X65704761Y-24373545D01*
X65704761Y-24373545D02*
X65780952Y-24297354D01*
X65780952Y-24297354D02*
X65704761Y-24221164D01*
X65704761Y-24221164D02*
X65704761Y-24373545D01*
X63799999Y-23535450D02*
X65171428Y-25592592D01*
X62123809Y-23535450D02*
X63495238Y-25592592D01*
X60904762Y-24144973D02*
X60904762Y-25440211D01*
X60904762Y-25440211D02*
X60980952Y-25592592D01*
X60980952Y-25592592D02*
X61057143Y-25668783D01*
X61057143Y-25668783D02*
X61209524Y-25744973D01*
X61209524Y-25744973D02*
X61438095Y-25744973D01*
X61438095Y-25744973D02*
X61590476Y-25668783D01*
X60904762Y-25135450D02*
X61057143Y-25211640D01*
X61057143Y-25211640D02*
X61361905Y-25211640D01*
X61361905Y-25211640D02*
X61514286Y-25135450D01*
X61514286Y-25135450D02*
X61590476Y-25059259D01*
X61590476Y-25059259D02*
X61666667Y-24906878D01*
X61666667Y-24906878D02*
X61666667Y-24449735D01*
X61666667Y-24449735D02*
X61590476Y-24297354D01*
X61590476Y-24297354D02*
X61514286Y-24221164D01*
X61514286Y-24221164D02*
X61361905Y-24144973D01*
X61361905Y-24144973D02*
X61057143Y-24144973D01*
X61057143Y-24144973D02*
X60904762Y-24221164D01*
X60142857Y-25211640D02*
X60142857Y-24144973D01*
X60142857Y-23611640D02*
X60219048Y-23687830D01*
X60219048Y-23687830D02*
X60142857Y-23764021D01*
X60142857Y-23764021D02*
X60066667Y-23687830D01*
X60066667Y-23687830D02*
X60142857Y-23611640D01*
X60142857Y-23611640D02*
X60142857Y-23764021D01*
X59609524Y-24144973D02*
X59000000Y-24144973D01*
X59380952Y-23611640D02*
X59380952Y-24983069D01*
X59380952Y-24983069D02*
X59304762Y-25135450D01*
X59304762Y-25135450D02*
X59152381Y-25211640D01*
X59152381Y-25211640D02*
X59000000Y-25211640D01*
X58466666Y-25211640D02*
X58466666Y-23611640D01*
X57780952Y-25211640D02*
X57780952Y-24373545D01*
X57780952Y-24373545D02*
X57857142Y-24221164D01*
X57857142Y-24221164D02*
X58009523Y-24144973D01*
X58009523Y-24144973D02*
X58238095Y-24144973D01*
X58238095Y-24144973D02*
X58390476Y-24221164D01*
X58390476Y-24221164D02*
X58466666Y-24297354D01*
X56333333Y-24144973D02*
X56333333Y-25211640D01*
X57019047Y-24144973D02*
X57019047Y-24983069D01*
X57019047Y-24983069D02*
X56942857Y-25135450D01*
X56942857Y-25135450D02*
X56790476Y-25211640D01*
X56790476Y-25211640D02*
X56561904Y-25211640D01*
X56561904Y-25211640D02*
X56409523Y-25135450D01*
X56409523Y-25135450D02*
X56333333Y-25059259D01*
X55571428Y-25211640D02*
X55571428Y-23611640D01*
X55571428Y-24221164D02*
X55419047Y-24144973D01*
X55419047Y-24144973D02*
X55114285Y-24144973D01*
X55114285Y-24144973D02*
X54961904Y-24221164D01*
X54961904Y-24221164D02*
X54885714Y-24297354D01*
X54885714Y-24297354D02*
X54809523Y-24449735D01*
X54809523Y-24449735D02*
X54809523Y-24906878D01*
X54809523Y-24906878D02*
X54885714Y-25059259D01*
X54885714Y-25059259D02*
X54961904Y-25135450D01*
X54961904Y-25135450D02*
X55114285Y-25211640D01*
X55114285Y-25211640D02*
X55419047Y-25211640D01*
X55419047Y-25211640D02*
X55571428Y-25135450D01*
X54123809Y-25059259D02*
X54047619Y-25135450D01*
X54047619Y-25135450D02*
X54123809Y-25211640D01*
X54123809Y-25211640D02*
X54200000Y-25135450D01*
X54200000Y-25135450D02*
X54123809Y-25059259D01*
X54123809Y-25059259D02*
X54123809Y-25211640D01*
X52676190Y-25135450D02*
X52828571Y-25211640D01*
X52828571Y-25211640D02*
X53133333Y-25211640D01*
X53133333Y-25211640D02*
X53285714Y-25135450D01*
X53285714Y-25135450D02*
X53361904Y-25059259D01*
X53361904Y-25059259D02*
X53438095Y-24906878D01*
X53438095Y-24906878D02*
X53438095Y-24449735D01*
X53438095Y-24449735D02*
X53361904Y-24297354D01*
X53361904Y-24297354D02*
X53285714Y-24221164D01*
X53285714Y-24221164D02*
X53133333Y-24144973D01*
X53133333Y-24144973D02*
X52828571Y-24144973D01*
X52828571Y-24144973D02*
X52676190Y-24221164D01*
X51761904Y-25211640D02*
X51914285Y-25135450D01*
X51914285Y-25135450D02*
X51990475Y-25059259D01*
X51990475Y-25059259D02*
X52066666Y-24906878D01*
X52066666Y-24906878D02*
X52066666Y-24449735D01*
X52066666Y-24449735D02*
X51990475Y-24297354D01*
X51990475Y-24297354D02*
X51914285Y-24221164D01*
X51914285Y-24221164D02*
X51761904Y-24144973D01*
X51761904Y-24144973D02*
X51533332Y-24144973D01*
X51533332Y-24144973D02*
X51380951Y-24221164D01*
X51380951Y-24221164D02*
X51304761Y-24297354D01*
X51304761Y-24297354D02*
X51228570Y-24449735D01*
X51228570Y-24449735D02*
X51228570Y-24906878D01*
X51228570Y-24906878D02*
X51304761Y-25059259D01*
X51304761Y-25059259D02*
X51380951Y-25135450D01*
X51380951Y-25135450D02*
X51533332Y-25211640D01*
X51533332Y-25211640D02*
X51761904Y-25211640D01*
X50542856Y-25211640D02*
X50542856Y-24144973D01*
X50542856Y-24297354D02*
X50466666Y-24221164D01*
X50466666Y-24221164D02*
X50314285Y-24144973D01*
X50314285Y-24144973D02*
X50085713Y-24144973D01*
X50085713Y-24144973D02*
X49933332Y-24221164D01*
X49933332Y-24221164D02*
X49857142Y-24373545D01*
X49857142Y-24373545D02*
X49857142Y-25211640D01*
X49857142Y-24373545D02*
X49780951Y-24221164D01*
X49780951Y-24221164D02*
X49628570Y-24144973D01*
X49628570Y-24144973D02*
X49399999Y-24144973D01*
X49399999Y-24144973D02*
X49247618Y-24221164D01*
X49247618Y-24221164D02*
X49171428Y-24373545D01*
X49171428Y-24373545D02*
X49171428Y-25211640D01*
X47266666Y-23535450D02*
X48638095Y-25592592D01*
X75076190Y-26720883D02*
X74238095Y-26720883D01*
X74238095Y-26720883D02*
X75076190Y-27787550D01*
X75076190Y-27787550D02*
X74238095Y-27787550D01*
X73019047Y-27711360D02*
X73171428Y-27787550D01*
X73171428Y-27787550D02*
X73476190Y-27787550D01*
X73476190Y-27787550D02*
X73628571Y-27711360D01*
X73628571Y-27711360D02*
X73704762Y-27558979D01*
X73704762Y-27558979D02*
X73704762Y-26949455D01*
X73704762Y-26949455D02*
X73628571Y-26797074D01*
X73628571Y-26797074D02*
X73476190Y-26720883D01*
X73476190Y-26720883D02*
X73171428Y-26720883D01*
X73171428Y-26720883D02*
X73019047Y-26797074D01*
X73019047Y-26797074D02*
X72942857Y-26949455D01*
X72942857Y-26949455D02*
X72942857Y-27101836D01*
X72942857Y-27101836D02*
X73704762Y-27254217D01*
X71571428Y-26720883D02*
X71571428Y-27787550D01*
X72257142Y-26720883D02*
X72257142Y-27558979D01*
X72257142Y-27558979D02*
X72180952Y-27711360D01*
X72180952Y-27711360D02*
X72028571Y-27787550D01*
X72028571Y-27787550D02*
X71799999Y-27787550D01*
X71799999Y-27787550D02*
X71647618Y-27711360D01*
X71647618Y-27711360D02*
X71571428Y-27635169D01*
X70885714Y-27711360D02*
X70733333Y-27787550D01*
X70733333Y-27787550D02*
X70428571Y-27787550D01*
X70428571Y-27787550D02*
X70276190Y-27711360D01*
X70276190Y-27711360D02*
X70199999Y-27558979D01*
X70199999Y-27558979D02*
X70199999Y-27482788D01*
X70199999Y-27482788D02*
X70276190Y-27330407D01*
X70276190Y-27330407D02*
X70428571Y-27254217D01*
X70428571Y-27254217D02*
X70657142Y-27254217D01*
X70657142Y-27254217D02*
X70809523Y-27178026D01*
X70809523Y-27178026D02*
X70885714Y-27025645D01*
X70885714Y-27025645D02*
X70885714Y-26949455D01*
X70885714Y-26949455D02*
X70809523Y-26797074D01*
X70809523Y-26797074D02*
X70657142Y-26720883D01*
X70657142Y-26720883D02*
X70428571Y-26720883D01*
X70428571Y-26720883D02*
X70276190Y-26797074D01*
X69285714Y-26873264D02*
X69438095Y-26797074D01*
X69438095Y-26797074D02*
X69514285Y-26720883D01*
X69514285Y-26720883D02*
X69590476Y-26568502D01*
X69590476Y-26568502D02*
X69590476Y-26492312D01*
X69590476Y-26492312D02*
X69514285Y-26339931D01*
X69514285Y-26339931D02*
X69438095Y-26263740D01*
X69438095Y-26263740D02*
X69285714Y-26187550D01*
X69285714Y-26187550D02*
X68980952Y-26187550D01*
X68980952Y-26187550D02*
X68828571Y-26263740D01*
X68828571Y-26263740D02*
X68752380Y-26339931D01*
X68752380Y-26339931D02*
X68676190Y-26492312D01*
X68676190Y-26492312D02*
X68676190Y-26568502D01*
X68676190Y-26568502D02*
X68752380Y-26720883D01*
X68752380Y-26720883D02*
X68828571Y-26797074D01*
X68828571Y-26797074D02*
X68980952Y-26873264D01*
X68980952Y-26873264D02*
X69285714Y-26873264D01*
X69285714Y-26873264D02*
X69438095Y-26949455D01*
X69438095Y-26949455D02*
X69514285Y-27025645D01*
X69514285Y-27025645D02*
X69590476Y-27178026D01*
X69590476Y-27178026D02*
X69590476Y-27482788D01*
X69590476Y-27482788D02*
X69514285Y-27635169D01*
X69514285Y-27635169D02*
X69438095Y-27711360D01*
X69438095Y-27711360D02*
X69285714Y-27787550D01*
X69285714Y-27787550D02*
X68980952Y-27787550D01*
X68980952Y-27787550D02*
X68828571Y-27711360D01*
X68828571Y-27711360D02*
X68752380Y-27635169D01*
X68752380Y-27635169D02*
X68676190Y-27482788D01*
X68676190Y-27482788D02*
X68676190Y-27178026D01*
X68676190Y-27178026D02*
X68752380Y-27025645D01*
X68752380Y-27025645D02*
X68828571Y-26949455D01*
X68828571Y-26949455D02*
X68980952Y-26873264D01*
X67304761Y-26187550D02*
X67609523Y-26187550D01*
X67609523Y-26187550D02*
X67761904Y-26263740D01*
X67761904Y-26263740D02*
X67838094Y-26339931D01*
X67838094Y-26339931D02*
X67990475Y-26568502D01*
X67990475Y-26568502D02*
X68066666Y-26873264D01*
X68066666Y-26873264D02*
X68066666Y-27482788D01*
X68066666Y-27482788D02*
X67990475Y-27635169D01*
X67990475Y-27635169D02*
X67914285Y-27711360D01*
X67914285Y-27711360D02*
X67761904Y-27787550D01*
X67761904Y-27787550D02*
X67457142Y-27787550D01*
X67457142Y-27787550D02*
X67304761Y-27711360D01*
X67304761Y-27711360D02*
X67228570Y-27635169D01*
X67228570Y-27635169D02*
X67152380Y-27482788D01*
X67152380Y-27482788D02*
X67152380Y-27101836D01*
X67152380Y-27101836D02*
X67228570Y-26949455D01*
X67228570Y-26949455D02*
X67304761Y-26873264D01*
X67304761Y-26873264D02*
X67457142Y-26797074D01*
X67457142Y-26797074D02*
X67761904Y-26797074D01*
X67761904Y-26797074D02*
X67914285Y-26873264D01*
X67914285Y-26873264D02*
X67990475Y-26949455D01*
X67990475Y-26949455D02*
X68066666Y-27101836D01*
X65323808Y-26111360D02*
X66695237Y-28168502D01*
X64790475Y-27787550D02*
X64790475Y-26187550D01*
X64104761Y-27787550D02*
X64104761Y-26949455D01*
X64104761Y-26949455D02*
X64180951Y-26797074D01*
X64180951Y-26797074D02*
X64333332Y-26720883D01*
X64333332Y-26720883D02*
X64561904Y-26720883D01*
X64561904Y-26720883D02*
X64714285Y-26797074D01*
X64714285Y-26797074D02*
X64790475Y-26873264D01*
X62733332Y-27711360D02*
X62885713Y-27787550D01*
X62885713Y-27787550D02*
X63190475Y-27787550D01*
X63190475Y-27787550D02*
X63342856Y-27711360D01*
X63342856Y-27711360D02*
X63419047Y-27558979D01*
X63419047Y-27558979D02*
X63419047Y-26949455D01*
X63419047Y-26949455D02*
X63342856Y-26797074D01*
X63342856Y-26797074D02*
X63190475Y-26720883D01*
X63190475Y-26720883D02*
X62885713Y-26720883D01*
X62885713Y-26720883D02*
X62733332Y-26797074D01*
X62733332Y-26797074D02*
X62657142Y-26949455D01*
X62657142Y-26949455D02*
X62657142Y-27101836D01*
X62657142Y-27101836D02*
X63419047Y-27254217D01*
X62123808Y-27787550D02*
X61285713Y-26720883D01*
X62123808Y-26720883D02*
X61285713Y-27787550D01*
X59990475Y-27787550D02*
X59990475Y-26949455D01*
X59990475Y-26949455D02*
X60066665Y-26797074D01*
X60066665Y-26797074D02*
X60219046Y-26720883D01*
X60219046Y-26720883D02*
X60523808Y-26720883D01*
X60523808Y-26720883D02*
X60676189Y-26797074D01*
X59990475Y-27711360D02*
X60142856Y-27787550D01*
X60142856Y-27787550D02*
X60523808Y-27787550D01*
X60523808Y-27787550D02*
X60676189Y-27711360D01*
X60676189Y-27711360D02*
X60752380Y-27558979D01*
X60752380Y-27558979D02*
X60752380Y-27406598D01*
X60752380Y-27406598D02*
X60676189Y-27254217D01*
X60676189Y-27254217D02*
X60523808Y-27178026D01*
X60523808Y-27178026D02*
X60142856Y-27178026D01*
X60142856Y-27178026D02*
X59990475Y-27101836D01*
X58542856Y-26720883D02*
X58542856Y-28016121D01*
X58542856Y-28016121D02*
X58619046Y-28168502D01*
X58619046Y-28168502D02*
X58695237Y-28244693D01*
X58695237Y-28244693D02*
X58847618Y-28320883D01*
X58847618Y-28320883D02*
X59076189Y-28320883D01*
X59076189Y-28320883D02*
X59228570Y-28244693D01*
X58542856Y-27711360D02*
X58695237Y-27787550D01*
X58695237Y-27787550D02*
X58999999Y-27787550D01*
X58999999Y-27787550D02*
X59152380Y-27711360D01*
X59152380Y-27711360D02*
X59228570Y-27635169D01*
X59228570Y-27635169D02*
X59304761Y-27482788D01*
X59304761Y-27482788D02*
X59304761Y-27025645D01*
X59304761Y-27025645D02*
X59228570Y-26873264D01*
X59228570Y-26873264D02*
X59152380Y-26797074D01*
X59152380Y-26797074D02*
X58999999Y-26720883D01*
X58999999Y-26720883D02*
X58695237Y-26720883D01*
X58695237Y-26720883D02*
X58542856Y-26797074D01*
X57552380Y-27787550D02*
X57704761Y-27711360D01*
X57704761Y-27711360D02*
X57780951Y-27635169D01*
X57780951Y-27635169D02*
X57857142Y-27482788D01*
X57857142Y-27482788D02*
X57857142Y-27025645D01*
X57857142Y-27025645D02*
X57780951Y-26873264D01*
X57780951Y-26873264D02*
X57704761Y-26797074D01*
X57704761Y-26797074D02*
X57552380Y-26720883D01*
X57552380Y-26720883D02*
X57323808Y-26720883D01*
X57323808Y-26720883D02*
X57171427Y-26797074D01*
X57171427Y-26797074D02*
X57095237Y-26873264D01*
X57095237Y-26873264D02*
X57019046Y-27025645D01*
X57019046Y-27025645D02*
X57019046Y-27482788D01*
X57019046Y-27482788D02*
X57095237Y-27635169D01*
X57095237Y-27635169D02*
X57171427Y-27711360D01*
X57171427Y-27711360D02*
X57323808Y-27787550D01*
X57323808Y-27787550D02*
X57552380Y-27787550D01*
X56333332Y-26720883D02*
X56333332Y-27787550D01*
X56333332Y-26873264D02*
X56257142Y-26797074D01*
X56257142Y-26797074D02*
X56104761Y-26720883D01*
X56104761Y-26720883D02*
X55876189Y-26720883D01*
X55876189Y-26720883D02*
X55723808Y-26797074D01*
X55723808Y-26797074D02*
X55647618Y-26949455D01*
X55647618Y-26949455D02*
X55647618Y-27787550D01*
X54885713Y-27178026D02*
X53666666Y-27178026D01*
X52219047Y-27787550D02*
X52219047Y-26187550D01*
X52219047Y-27711360D02*
X52371428Y-27787550D01*
X52371428Y-27787550D02*
X52676190Y-27787550D01*
X52676190Y-27787550D02*
X52828571Y-27711360D01*
X52828571Y-27711360D02*
X52904761Y-27635169D01*
X52904761Y-27635169D02*
X52980952Y-27482788D01*
X52980952Y-27482788D02*
X52980952Y-27025645D01*
X52980952Y-27025645D02*
X52904761Y-26873264D01*
X52904761Y-26873264D02*
X52828571Y-26797074D01*
X52828571Y-26797074D02*
X52676190Y-26720883D01*
X52676190Y-26720883D02*
X52371428Y-26720883D01*
X52371428Y-26720883D02*
X52219047Y-26797074D01*
X51457142Y-26720883D02*
X51457142Y-27787550D01*
X51457142Y-26873264D02*
X51380952Y-26797074D01*
X51380952Y-26797074D02*
X51228571Y-26720883D01*
X51228571Y-26720883D02*
X50999999Y-26720883D01*
X50999999Y-26720883D02*
X50847618Y-26797074D01*
X50847618Y-26797074D02*
X50771428Y-26949455D01*
X50771428Y-26949455D02*
X50771428Y-27787550D01*
X49323809Y-27787550D02*
X49323809Y-26949455D01*
X49323809Y-26949455D02*
X49399999Y-26797074D01*
X49399999Y-26797074D02*
X49552380Y-26720883D01*
X49552380Y-26720883D02*
X49857142Y-26720883D01*
X49857142Y-26720883D02*
X50009523Y-26797074D01*
X49323809Y-27711360D02*
X49476190Y-27787550D01*
X49476190Y-27787550D02*
X49857142Y-27787550D01*
X49857142Y-27787550D02*
X50009523Y-27711360D01*
X50009523Y-27711360D02*
X50085714Y-27558979D01*
X50085714Y-27558979D02*
X50085714Y-27406598D01*
X50085714Y-27406598D02*
X50009523Y-27254217D01*
X50009523Y-27254217D02*
X49857142Y-27178026D01*
X49857142Y-27178026D02*
X49476190Y-27178026D01*
X49476190Y-27178026D02*
X49323809Y-27101836D01*
X48561904Y-27178026D02*
X47342857Y-27178026D01*
X46580952Y-26720883D02*
X46580952Y-28320883D01*
X46580952Y-26797074D02*
X46428571Y-26720883D01*
X46428571Y-26720883D02*
X46123809Y-26720883D01*
X46123809Y-26720883D02*
X45971428Y-26797074D01*
X45971428Y-26797074D02*
X45895238Y-26873264D01*
X45895238Y-26873264D02*
X45819047Y-27025645D01*
X45819047Y-27025645D02*
X45819047Y-27482788D01*
X45819047Y-27482788D02*
X45895238Y-27635169D01*
X45895238Y-27635169D02*
X45971428Y-27711360D01*
X45971428Y-27711360D02*
X46123809Y-27787550D01*
X46123809Y-27787550D02*
X46428571Y-27787550D01*
X46428571Y-27787550D02*
X46580952Y-27711360D01*
X44447619Y-27711360D02*
X44600000Y-27787550D01*
X44600000Y-27787550D02*
X44904762Y-27787550D01*
X44904762Y-27787550D02*
X45057143Y-27711360D01*
X45057143Y-27711360D02*
X45133333Y-27635169D01*
X45133333Y-27635169D02*
X45209524Y-27482788D01*
X45209524Y-27482788D02*
X45209524Y-27025645D01*
X45209524Y-27025645D02*
X45133333Y-26873264D01*
X45133333Y-26873264D02*
X45057143Y-26797074D01*
X45057143Y-26797074D02*
X44904762Y-26720883D01*
X44904762Y-26720883D02*
X44600000Y-26720883D01*
X44600000Y-26720883D02*
X44447619Y-26797074D01*
X43761904Y-27787550D02*
X43761904Y-26187550D01*
X43761904Y-26797074D02*
X43609523Y-26720883D01*
X43609523Y-26720883D02*
X43304761Y-26720883D01*
X43304761Y-26720883D02*
X43152380Y-26797074D01*
X43152380Y-26797074D02*
X43076190Y-26873264D01*
X43076190Y-26873264D02*
X42999999Y-27025645D01*
X42999999Y-27025645D02*
X42999999Y-27482788D01*
X42999999Y-27482788D02*
X43076190Y-27635169D01*
X43076190Y-27635169D02*
X43152380Y-27711360D01*
X43152380Y-27711360D02*
X43304761Y-27787550D01*
X43304761Y-27787550D02*
X43609523Y-27787550D01*
X43609523Y-27787550D02*
X43761904Y-27711360D01*
M02*
